<?xml version="1.0" encoding="UTF-8" standalone="no"?>
<!DOCTYPE svg PUBLIC "-//W3C//DTD SVG 1.1//EN"
 "http://www.w3.org/Graphics/SVG/1.1/DTD/svg11.dtd">
<!-- Generated by graphviz version 12.1.1 (20240910.0053)
 -->
<!-- Title: WaterHeater Pages: 1 -->
<svg width="548pt" height="98pt"
 viewBox="0.00 0.00 547.85 98.00" xmlns="http://www.w3.org/2000/svg" xmlns:xlink="http://www.w3.org/1999/xlink">
<g id="graph0" class="graph" transform="scale(1 1) rotate(0) translate(4 94)">
<title>WaterHeater</title>
<polygon fill="white" stroke="none" points="-4,4 -4,-94 543.85,-94 543.85,4 -4,4"/>
<!-- Inflow -->
<g id="node1" class="node">
<title>Inflow</title>
<ellipse fill="none" stroke="black" cx="60.56" cy="-72" rx="60.56" ry="18"/>
<text text-anchor="middle" x="60.56" y="-66.95" font-family="Times,serif" font-size="14.00">Inflow (q_in)</text>
</g>
<!-- Tank -->
<g id="node3" class="node">
<title>Tank</title>
<ellipse fill="none" stroke="black" cx="276.05" cy="-45" rx="54.42" ry="18"/>
<text text-anchor="middle" x="276.05" y="-39.95" font-family="Times,serif" font-size="14.00">Water Tank</text>
</g>
<!-- Inflow&#45;&gt;Tank -->
<g id="edge1" class="edge">
<title>Inflow&#45;&gt;Tank</title>
<path fill="none" stroke="black" d="M116.82,-65.01C146.4,-61.27 182.91,-56.65 213.41,-52.8"/>
<polygon fill="black" stroke="black" points="213.79,-56.28 223.27,-51.55 212.91,-49.33 213.79,-56.28"/>
<text text-anchor="middle" x="171.38" y="-64.91" font-family="Times,serif" font-size="14.00">q_in</text>
</g>
<!-- Outflow -->
<g id="node2" class="node">
<title>Outflow</title>
<ellipse fill="none" stroke="black" cx="468.53" cy="-45" rx="71.31" ry="18"/>
<text text-anchor="middle" x="468.53" y="-39.95" font-family="Times,serif" font-size="14.00">Outflow (q_out)</text>
</g>
<!-- Tank&#45;&gt;Outflow -->
<g id="edge2" class="edge">
<title>Tank&#45;&gt;Outflow</title>
<path fill="none" stroke="black" d="M330.87,-45C347.82,-45 366.94,-45 385.39,-45"/>
<polygon fill="black" stroke="black" points="385.25,-48.5 395.25,-45 385.25,-41.5 385.25,-48.5"/>
<text text-anchor="middle" x="363.85" y="-48.2" font-family="Times,serif" font-size="14.00">q_out</text>
</g>
<!-- Heater -->
<g id="node4" class="node">
<title>Heater</title>
<ellipse fill="none" stroke="black" cx="60.56" cy="-18" rx="49.3" ry="18"/>
<text text-anchor="middle" x="60.56" y="-12.95" font-family="Times,serif" font-size="14.00">Heater (P)</text>
</g>
<!-- Heater&#45;&gt;Tank -->
<g id="edge3" class="edge">
<title>Heater&#45;&gt;Tank</title>
<path fill="none" stroke="black" d="M108.32,-23.07C136.05,-26.17 171.87,-30.32 203.63,-34.5 207.23,-34.97 210.94,-35.48 214.67,-35.99"/>
<polygon fill="black" stroke="black" points="214.01,-39.43 224.4,-37.36 214.99,-32.5 214.01,-39.43"/>
<text text-anchor="middle" x="171.38" y="-37.7" font-family="Times,serif" font-size="14.00">Heats water</text>
</g>
</g>
</svg>
