<?xml version="1.0" encoding="utf-8" standalone="no"?>
<!DOCTYPE svg PUBLIC "-//W3C//DTD SVG 1.1//EN"
  "http://www.w3.org/Graphics/SVG/1.1/DTD/svg11.dtd">
<svg xmlns:xlink="http://www.w3.org/1999/xlink" width="850.136369pt" height="420.4075pt" viewBox="0 0 850.136369 420.4075" xmlns="http://www.w3.org/2000/svg" version="1.1">
 <metadata>
  <rdf:RDF xmlns:dc="http://purl.org/dc/elements/1.1/" xmlns:cc="http://creativecommons.org/ns#" xmlns:rdf="http://www.w3.org/1999/02/22-rdf-syntax-ns#">
   <cc:Work>
    <dc:type rdf:resource="http://purl.org/dc/dcmitype/StillImage"/>
    <dc:date>2025-11-19T22:56:25.806042</dc:date>
    <dc:format>image/svg+xml</dc:format>
    <dc:creator>
     <cc:Agent>
      <dc:title>Matplotlib v3.10.3, https://matplotlib.org/</dc:title>
     </cc:Agent>
    </dc:creator>
   </cc:Work>
  </rdf:RDF>
 </metadata>
 <defs>
  <style type="text/css">*{stroke-linejoin: round; stroke-linecap: butt}</style>
 </defs>
 <g id="figure_1">
  <g id="patch_1">
   <path d="M 0 420.4075 
L 850.136369 420.4075 
L 850.136369 0 
L 0 0 
z
" style="fill: #ffffff"/>
  </g>
  <g id="axes_1">
   <g id="patch_2">
    <path d="M 46.945 378.3375 
L 413.596212 378.3375 
L 413.596212 21.7575 
L 46.945 21.7575 
z
" style="fill: #ffffff"/>
   </g>
   <g id="matplotlib.axis_1">
    <g id="xtick_1">
     <g id="line2d_1">
      <defs>
       <path id="m414798d666" d="M 0 0 
L 0 -6 
" style="stroke: #000000"/>
      </defs>
      <g>
       <use xlink:href="#m414798d666" x="63.610964" y="378.3375" style="stroke: #000000"/>
      </g>
     </g>
     <g id="line2d_2">
      <defs>
       <path id="m08d462ad2f" d="M 0 0 
L 0 6 
" style="stroke: #000000"/>
      </defs>
      <g>
       <use xlink:href="#m08d462ad2f" x="63.610964" y="21.7575" style="stroke: #000000"/>
      </g>
     </g>
     <g id="text_1">
      <!-- 0 -->
      <g transform="translate(58.520964 393.995) scale(0.16 -0.16)">
       <defs>
        <path id="DejaVuSans-30" d="M 2034 4250 
Q 1547 4250 1301 3770 
Q 1056 3291 1056 2328 
Q 1056 1369 1301 889 
Q 1547 409 2034 409 
Q 2525 409 2770 889 
Q 3016 1369 3016 2328 
Q 3016 3291 2770 3770 
Q 2525 4250 2034 4250 
z
M 2034 4750 
Q 2819 4750 3233 4129 
Q 3647 3509 3647 2328 
Q 3647 1150 3233 529 
Q 2819 -91 2034 -91 
Q 1250 -91 836 529 
Q 422 1150 422 2328 
Q 422 3509 836 4129 
Q 1250 4750 2034 4750 
z
" transform="scale(0.015625)"/>
       </defs>
       <use xlink:href="#DejaVuSans-30"/>
      </g>
     </g>
    </g>
    <g id="xtick_2">
     <g id="line2d_3">
      <g>
       <use xlink:href="#m414798d666" x="119.164178" y="378.3375" style="stroke: #000000"/>
      </g>
     </g>
     <g id="line2d_4">
      <g>
       <use xlink:href="#m08d462ad2f" x="119.164178" y="21.7575" style="stroke: #000000"/>
      </g>
     </g>
     <g id="text_2">
      <!-- 5 -->
      <g transform="translate(114.074178 393.995) scale(0.16 -0.16)">
       <defs>
        <path id="DejaVuSans-35" d="M 691 4666 
L 3169 4666 
L 3169 4134 
L 1269 4134 
L 1269 2991 
Q 1406 3038 1543 3061 
Q 1681 3084 1819 3084 
Q 2600 3084 3056 2656 
Q 3513 2228 3513 1497 
Q 3513 744 3044 326 
Q 2575 -91 1722 -91 
Q 1428 -91 1123 -41 
Q 819 9 494 109 
L 494 744 
Q 775 591 1075 516 
Q 1375 441 1709 441 
Q 2250 441 2565 725 
Q 2881 1009 2881 1497 
Q 2881 1984 2565 2268 
Q 2250 2553 1709 2553 
Q 1456 2553 1204 2497 
Q 953 2441 691 2322 
L 691 4666 
z
" transform="scale(0.015625)"/>
       </defs>
       <use xlink:href="#DejaVuSans-35"/>
      </g>
     </g>
    </g>
    <g id="xtick_3">
     <g id="line2d_5">
      <g>
       <use xlink:href="#m414798d666" x="174.717392" y="378.3375" style="stroke: #000000"/>
      </g>
     </g>
     <g id="line2d_6">
      <g>
       <use xlink:href="#m08d462ad2f" x="174.717392" y="21.7575" style="stroke: #000000"/>
      </g>
     </g>
     <g id="text_3">
      <!-- 10 -->
      <g transform="translate(164.537392 393.995) scale(0.16 -0.16)">
       <defs>
        <path id="DejaVuSans-31" d="M 794 531 
L 1825 531 
L 1825 4091 
L 703 3866 
L 703 4441 
L 1819 4666 
L 2450 4666 
L 2450 531 
L 3481 531 
L 3481 0 
L 794 0 
L 794 531 
z
" transform="scale(0.015625)"/>
       </defs>
       <use xlink:href="#DejaVuSans-31"/>
       <use xlink:href="#DejaVuSans-30" transform="translate(63.623047 0)"/>
      </g>
     </g>
    </g>
    <g id="xtick_4">
     <g id="line2d_7">
      <g>
       <use xlink:href="#m414798d666" x="230.270606" y="378.3375" style="stroke: #000000"/>
      </g>
     </g>
     <g id="line2d_8">
      <g>
       <use xlink:href="#m08d462ad2f" x="230.270606" y="21.7575" style="stroke: #000000"/>
      </g>
     </g>
     <g id="text_4">
      <!-- 15 -->
      <g transform="translate(220.090606 393.995) scale(0.16 -0.16)">
       <use xlink:href="#DejaVuSans-31"/>
       <use xlink:href="#DejaVuSans-35" transform="translate(63.623047 0)"/>
      </g>
     </g>
    </g>
    <g id="xtick_5">
     <g id="line2d_9">
      <g>
       <use xlink:href="#m414798d666" x="285.82382" y="378.3375" style="stroke: #000000"/>
      </g>
     </g>
     <g id="line2d_10">
      <g>
       <use xlink:href="#m08d462ad2f" x="285.82382" y="21.7575" style="stroke: #000000"/>
      </g>
     </g>
     <g id="text_5">
      <!-- 20 -->
      <g transform="translate(275.64382 393.995) scale(0.16 -0.16)">
       <defs>
        <path id="DejaVuSans-32" d="M 1228 531 
L 3431 531 
L 3431 0 
L 469 0 
L 469 531 
Q 828 903 1448 1529 
Q 2069 2156 2228 2338 
Q 2531 2678 2651 2914 
Q 2772 3150 2772 3378 
Q 2772 3750 2511 3984 
Q 2250 4219 1831 4219 
Q 1534 4219 1204 4116 
Q 875 4013 500 3803 
L 500 4441 
Q 881 4594 1212 4672 
Q 1544 4750 1819 4750 
Q 2544 4750 2975 4387 
Q 3406 4025 3406 3419 
Q 3406 3131 3298 2873 
Q 3191 2616 2906 2266 
Q 2828 2175 2409 1742 
Q 1991 1309 1228 531 
z
" transform="scale(0.015625)"/>
       </defs>
       <use xlink:href="#DejaVuSans-32"/>
       <use xlink:href="#DejaVuSans-30" transform="translate(63.623047 0)"/>
      </g>
     </g>
    </g>
    <g id="xtick_6">
     <g id="line2d_11">
      <g>
       <use xlink:href="#m414798d666" x="341.377034" y="378.3375" style="stroke: #000000"/>
      </g>
     </g>
     <g id="line2d_12">
      <g>
       <use xlink:href="#m08d462ad2f" x="341.377034" y="21.7575" style="stroke: #000000"/>
      </g>
     </g>
     <g id="text_6">
      <!-- 25 -->
      <g transform="translate(331.197034 393.995) scale(0.16 -0.16)">
       <use xlink:href="#DejaVuSans-32"/>
       <use xlink:href="#DejaVuSans-35" transform="translate(63.623047 0)"/>
      </g>
     </g>
    </g>
    <g id="xtick_7">
     <g id="line2d_13">
      <g>
       <use xlink:href="#m414798d666" x="396.930247" y="378.3375" style="stroke: #000000"/>
      </g>
     </g>
     <g id="line2d_14">
      <g>
       <use xlink:href="#m08d462ad2f" x="396.930247" y="21.7575" style="stroke: #000000"/>
      </g>
     </g>
     <g id="text_7">
      <!-- 30 -->
      <g transform="translate(386.750247 393.995) scale(0.16 -0.16)">
       <defs>
        <path id="DejaVuSans-33" d="M 2597 2516 
Q 3050 2419 3304 2112 
Q 3559 1806 3559 1356 
Q 3559 666 3084 287 
Q 2609 -91 1734 -91 
Q 1441 -91 1130 -33 
Q 819 25 488 141 
L 488 750 
Q 750 597 1062 519 
Q 1375 441 1716 441 
Q 2309 441 2620 675 
Q 2931 909 2931 1356 
Q 2931 1769 2642 2001 
Q 2353 2234 1838 2234 
L 1294 2234 
L 1294 2753 
L 1863 2753 
Q 2328 2753 2575 2939 
Q 2822 3125 2822 3475 
Q 2822 3834 2567 4026 
Q 2313 4219 1838 4219 
Q 1578 4219 1281 4162 
Q 984 4106 628 3988 
L 628 4550 
Q 988 4650 1302 4700 
Q 1616 4750 1894 4750 
Q 2613 4750 3031 4423 
Q 3450 4097 3450 3541 
Q 3450 3153 3228 2886 
Q 3006 2619 2597 2516 
z
" transform="scale(0.015625)"/>
       </defs>
       <use xlink:href="#DejaVuSans-33"/>
       <use xlink:href="#DejaVuSans-30" transform="translate(63.623047 0)"/>
      </g>
     </g>
    </g>
    <g id="xtick_8">
     <g id="line2d_15">
      <defs>
       <path id="mf64f4694be" d="M 0 0 
L 0 -3 
" style="stroke: #000000"/>
      </defs>
      <g>
       <use xlink:href="#mf64f4694be" x="52.500321" y="378.3375" style="stroke: #000000"/>
      </g>
     </g>
     <g id="line2d_16">
      <defs>
       <path id="m9510d12751" d="M 0 0 
L 0 3 
" style="stroke: #000000"/>
      </defs>
      <g>
       <use xlink:href="#m9510d12751" x="52.500321" y="21.7575" style="stroke: #000000"/>
      </g>
     </g>
    </g>
    <g id="xtick_9">
     <g id="line2d_17">
      <g>
       <use xlink:href="#mf64f4694be" x="74.721607" y="378.3375" style="stroke: #000000"/>
      </g>
     </g>
     <g id="line2d_18">
      <g>
       <use xlink:href="#m9510d12751" x="74.721607" y="21.7575" style="stroke: #000000"/>
      </g>
     </g>
    </g>
    <g id="xtick_10">
     <g id="line2d_19">
      <g>
       <use xlink:href="#mf64f4694be" x="85.83225" y="378.3375" style="stroke: #000000"/>
      </g>
     </g>
     <g id="line2d_20">
      <g>
       <use xlink:href="#m9510d12751" x="85.83225" y="21.7575" style="stroke: #000000"/>
      </g>
     </g>
    </g>
    <g id="xtick_11">
     <g id="line2d_21">
      <g>
       <use xlink:href="#mf64f4694be" x="96.942892" y="378.3375" style="stroke: #000000"/>
      </g>
     </g>
     <g id="line2d_22">
      <g>
       <use xlink:href="#m9510d12751" x="96.942892" y="21.7575" style="stroke: #000000"/>
      </g>
     </g>
    </g>
    <g id="xtick_12">
     <g id="line2d_23">
      <g>
       <use xlink:href="#mf64f4694be" x="108.053535" y="378.3375" style="stroke: #000000"/>
      </g>
     </g>
     <g id="line2d_24">
      <g>
       <use xlink:href="#m9510d12751" x="108.053535" y="21.7575" style="stroke: #000000"/>
      </g>
     </g>
    </g>
    <g id="xtick_13">
     <g id="line2d_25">
      <g>
       <use xlink:href="#mf64f4694be" x="130.274821" y="378.3375" style="stroke: #000000"/>
      </g>
     </g>
     <g id="line2d_26">
      <g>
       <use xlink:href="#m9510d12751" x="130.274821" y="21.7575" style="stroke: #000000"/>
      </g>
     </g>
    </g>
    <g id="xtick_14">
     <g id="line2d_27">
      <g>
       <use xlink:href="#mf64f4694be" x="141.385464" y="378.3375" style="stroke: #000000"/>
      </g>
     </g>
     <g id="line2d_28">
      <g>
       <use xlink:href="#m9510d12751" x="141.385464" y="21.7575" style="stroke: #000000"/>
      </g>
     </g>
    </g>
    <g id="xtick_15">
     <g id="line2d_29">
      <g>
       <use xlink:href="#mf64f4694be" x="152.496106" y="378.3375" style="stroke: #000000"/>
      </g>
     </g>
     <g id="line2d_30">
      <g>
       <use xlink:href="#m9510d12751" x="152.496106" y="21.7575" style="stroke: #000000"/>
      </g>
     </g>
    </g>
    <g id="xtick_16">
     <g id="line2d_31">
      <g>
       <use xlink:href="#mf64f4694be" x="163.606749" y="378.3375" style="stroke: #000000"/>
      </g>
     </g>
     <g id="line2d_32">
      <g>
       <use xlink:href="#m9510d12751" x="163.606749" y="21.7575" style="stroke: #000000"/>
      </g>
     </g>
    </g>
    <g id="xtick_17">
     <g id="line2d_33">
      <g>
       <use xlink:href="#mf64f4694be" x="185.828035" y="378.3375" style="stroke: #000000"/>
      </g>
     </g>
     <g id="line2d_34">
      <g>
       <use xlink:href="#m9510d12751" x="185.828035" y="21.7575" style="stroke: #000000"/>
      </g>
     </g>
    </g>
    <g id="xtick_18">
     <g id="line2d_35">
      <g>
       <use xlink:href="#mf64f4694be" x="196.938677" y="378.3375" style="stroke: #000000"/>
      </g>
     </g>
     <g id="line2d_36">
      <g>
       <use xlink:href="#m9510d12751" x="196.938677" y="21.7575" style="stroke: #000000"/>
      </g>
     </g>
    </g>
    <g id="xtick_19">
     <g id="line2d_37">
      <g>
       <use xlink:href="#mf64f4694be" x="208.04932" y="378.3375" style="stroke: #000000"/>
      </g>
     </g>
     <g id="line2d_38">
      <g>
       <use xlink:href="#m9510d12751" x="208.04932" y="21.7575" style="stroke: #000000"/>
      </g>
     </g>
    </g>
    <g id="xtick_20">
     <g id="line2d_39">
      <g>
       <use xlink:href="#mf64f4694be" x="219.159963" y="378.3375" style="stroke: #000000"/>
      </g>
     </g>
     <g id="line2d_40">
      <g>
       <use xlink:href="#m9510d12751" x="219.159963" y="21.7575" style="stroke: #000000"/>
      </g>
     </g>
    </g>
    <g id="xtick_21">
     <g id="line2d_41">
      <g>
       <use xlink:href="#mf64f4694be" x="241.381249" y="378.3375" style="stroke: #000000"/>
      </g>
     </g>
     <g id="line2d_42">
      <g>
       <use xlink:href="#m9510d12751" x="241.381249" y="21.7575" style="stroke: #000000"/>
      </g>
     </g>
    </g>
    <g id="xtick_22">
     <g id="line2d_43">
      <g>
       <use xlink:href="#mf64f4694be" x="252.491891" y="378.3375" style="stroke: #000000"/>
      </g>
     </g>
     <g id="line2d_44">
      <g>
       <use xlink:href="#m9510d12751" x="252.491891" y="21.7575" style="stroke: #000000"/>
      </g>
     </g>
    </g>
    <g id="xtick_23">
     <g id="line2d_45">
      <g>
       <use xlink:href="#mf64f4694be" x="263.602534" y="378.3375" style="stroke: #000000"/>
      </g>
     </g>
     <g id="line2d_46">
      <g>
       <use xlink:href="#m9510d12751" x="263.602534" y="21.7575" style="stroke: #000000"/>
      </g>
     </g>
    </g>
    <g id="xtick_24">
     <g id="line2d_47">
      <g>
       <use xlink:href="#mf64f4694be" x="274.713177" y="378.3375" style="stroke: #000000"/>
      </g>
     </g>
     <g id="line2d_48">
      <g>
       <use xlink:href="#m9510d12751" x="274.713177" y="21.7575" style="stroke: #000000"/>
      </g>
     </g>
    </g>
    <g id="xtick_25">
     <g id="line2d_49">
      <g>
       <use xlink:href="#mf64f4694be" x="296.934462" y="378.3375" style="stroke: #000000"/>
      </g>
     </g>
     <g id="line2d_50">
      <g>
       <use xlink:href="#m9510d12751" x="296.934462" y="21.7575" style="stroke: #000000"/>
      </g>
     </g>
    </g>
    <g id="xtick_26">
     <g id="line2d_51">
      <g>
       <use xlink:href="#mf64f4694be" x="308.045105" y="378.3375" style="stroke: #000000"/>
      </g>
     </g>
     <g id="line2d_52">
      <g>
       <use xlink:href="#m9510d12751" x="308.045105" y="21.7575" style="stroke: #000000"/>
      </g>
     </g>
    </g>
    <g id="xtick_27">
     <g id="line2d_53">
      <g>
       <use xlink:href="#mf64f4694be" x="319.155748" y="378.3375" style="stroke: #000000"/>
      </g>
     </g>
     <g id="line2d_54">
      <g>
       <use xlink:href="#m9510d12751" x="319.155748" y="21.7575" style="stroke: #000000"/>
      </g>
     </g>
    </g>
    <g id="xtick_28">
     <g id="line2d_55">
      <g>
       <use xlink:href="#mf64f4694be" x="330.266391" y="378.3375" style="stroke: #000000"/>
      </g>
     </g>
     <g id="line2d_56">
      <g>
       <use xlink:href="#m9510d12751" x="330.266391" y="21.7575" style="stroke: #000000"/>
      </g>
     </g>
    </g>
    <g id="xtick_29">
     <g id="line2d_57">
      <g>
       <use xlink:href="#mf64f4694be" x="352.487676" y="378.3375" style="stroke: #000000"/>
      </g>
     </g>
     <g id="line2d_58">
      <g>
       <use xlink:href="#m9510d12751" x="352.487676" y="21.7575" style="stroke: #000000"/>
      </g>
     </g>
    </g>
    <g id="xtick_30">
     <g id="line2d_59">
      <g>
       <use xlink:href="#mf64f4694be" x="363.598319" y="378.3375" style="stroke: #000000"/>
      </g>
     </g>
     <g id="line2d_60">
      <g>
       <use xlink:href="#m9510d12751" x="363.598319" y="21.7575" style="stroke: #000000"/>
      </g>
     </g>
    </g>
    <g id="xtick_31">
     <g id="line2d_61">
      <g>
       <use xlink:href="#mf64f4694be" x="374.708962" y="378.3375" style="stroke: #000000"/>
      </g>
     </g>
     <g id="line2d_62">
      <g>
       <use xlink:href="#m9510d12751" x="374.708962" y="21.7575" style="stroke: #000000"/>
      </g>
     </g>
    </g>
    <g id="xtick_32">
     <g id="line2d_63">
      <g>
       <use xlink:href="#mf64f4694be" x="385.819605" y="378.3375" style="stroke: #000000"/>
      </g>
     </g>
     <g id="line2d_64">
      <g>
       <use xlink:href="#m9510d12751" x="385.819605" y="21.7575" style="stroke: #000000"/>
      </g>
     </g>
    </g>
    <g id="xtick_33">
     <g id="line2d_65">
      <g>
       <use xlink:href="#mf64f4694be" x="408.04089" y="378.3375" style="stroke: #000000"/>
      </g>
     </g>
     <g id="line2d_66">
      <g>
       <use xlink:href="#m9510d12751" x="408.04089" y="21.7575" style="stroke: #000000"/>
      </g>
     </g>
    </g>
    <g id="text_8">
     <!-- Time -->
     <g transform="translate(210.696856 413.48) scale(0.16 -0.16)">
      <defs>
       <path id="DejaVuSans-54" d="M -19 4666 
L 3928 4666 
L 3928 4134 
L 2272 4134 
L 2272 0 
L 1638 0 
L 1638 4134 
L -19 4134 
L -19 4666 
z
" transform="scale(0.015625)"/>
       <path id="DejaVuSans-69" d="M 603 3500 
L 1178 3500 
L 1178 0 
L 603 0 
L 603 3500 
z
M 603 4863 
L 1178 4863 
L 1178 4134 
L 603 4134 
L 603 4863 
z
" transform="scale(0.015625)"/>
       <path id="DejaVuSans-6d" d="M 3328 2828 
Q 3544 3216 3844 3400 
Q 4144 3584 4550 3584 
Q 5097 3584 5394 3201 
Q 5691 2819 5691 2113 
L 5691 0 
L 5113 0 
L 5113 2094 
Q 5113 2597 4934 2840 
Q 4756 3084 4391 3084 
Q 3944 3084 3684 2787 
Q 3425 2491 3425 1978 
L 3425 0 
L 2847 0 
L 2847 2094 
Q 2847 2600 2669 2842 
Q 2491 3084 2119 3084 
Q 1678 3084 1418 2786 
Q 1159 2488 1159 1978 
L 1159 0 
L 581 0 
L 581 3500 
L 1159 3500 
L 1159 2956 
Q 1356 3278 1631 3431 
Q 1906 3584 2284 3584 
Q 2666 3584 2933 3390 
Q 3200 3197 3328 2828 
z
" transform="scale(0.015625)"/>
       <path id="DejaVuSans-65" d="M 3597 1894 
L 3597 1613 
L 953 1613 
Q 991 1019 1311 708 
Q 1631 397 2203 397 
Q 2534 397 2845 478 
Q 3156 559 3463 722 
L 3463 178 
Q 3153 47 2828 -22 
Q 2503 -91 2169 -91 
Q 1331 -91 842 396 
Q 353 884 353 1716 
Q 353 2575 817 3079 
Q 1281 3584 2069 3584 
Q 2775 3584 3186 3129 
Q 3597 2675 3597 1894 
z
M 3022 2063 
Q 3016 2534 2758 2815 
Q 2500 3097 2075 3097 
Q 1594 3097 1305 2825 
Q 1016 2553 972 2059 
L 3022 2063 
z
" transform="scale(0.015625)"/>
      </defs>
      <use xlink:href="#DejaVuSans-54"/>
      <use xlink:href="#DejaVuSans-69" transform="translate(57.958984 0)"/>
      <use xlink:href="#DejaVuSans-6d" transform="translate(85.742188 0)"/>
      <use xlink:href="#DejaVuSans-65" transform="translate(183.154297 0)"/>
     </g>
    </g>
   </g>
   <g id="matplotlib.axis_2">
    <g id="ytick_1">
     <g id="line2d_67">
      <defs>
       <path id="m3f2555870d" d="M 0 0 
L 6 0 
" style="stroke: #000000"/>
      </defs>
      <g>
       <use xlink:href="#m3f2555870d" x="46.945" y="357.583266" style="stroke: #000000"/>
      </g>
     </g>
     <g id="line2d_68">
      <defs>
       <path id="m18e4c7524e" d="M 0 0 
L -6 0 
" style="stroke: #000000"/>
      </defs>
      <g>
       <use xlink:href="#m18e4c7524e" x="413.596212" y="357.583266" style="stroke: #000000"/>
      </g>
     </g>
     <g id="text_9">
      <!-- 10 -->
      <g transform="translate(23.085 363.662016) scale(0.16 -0.16)">
       <use xlink:href="#DejaVuSans-31"/>
       <use xlink:href="#DejaVuSans-30" transform="translate(63.623047 0)"/>
      </g>
     </g>
    </g>
    <g id="ytick_2">
     <g id="line2d_69">
      <g>
       <use xlink:href="#m3f2555870d" x="46.945" y="302.3538" style="stroke: #000000"/>
      </g>
     </g>
     <g id="line2d_70">
      <g>
       <use xlink:href="#m18e4c7524e" x="413.596212" y="302.3538" style="stroke: #000000"/>
      </g>
     </g>
     <g id="text_10">
      <!-- 20 -->
      <g transform="translate(23.085 308.43255) scale(0.16 -0.16)">
       <use xlink:href="#DejaVuSans-32"/>
       <use xlink:href="#DejaVuSans-30" transform="translate(63.623047 0)"/>
      </g>
     </g>
    </g>
    <g id="ytick_3">
     <g id="line2d_71">
      <g>
       <use xlink:href="#m3f2555870d" x="46.945" y="247.124334" style="stroke: #000000"/>
      </g>
     </g>
     <g id="line2d_72">
      <g>
       <use xlink:href="#m18e4c7524e" x="413.596212" y="247.124334" style="stroke: #000000"/>
      </g>
     </g>
     <g id="text_11">
      <!-- 30 -->
      <g transform="translate(23.085 253.203084) scale(0.16 -0.16)">
       <use xlink:href="#DejaVuSans-33"/>
       <use xlink:href="#DejaVuSans-30" transform="translate(63.623047 0)"/>
      </g>
     </g>
    </g>
    <g id="ytick_4">
     <g id="line2d_73">
      <g>
       <use xlink:href="#m3f2555870d" x="46.945" y="191.894868" style="stroke: #000000"/>
      </g>
     </g>
     <g id="line2d_74">
      <g>
       <use xlink:href="#m18e4c7524e" x="413.596212" y="191.894868" style="stroke: #000000"/>
      </g>
     </g>
     <g id="text_12">
      <!-- 40 -->
      <g transform="translate(23.085 197.973618) scale(0.16 -0.16)">
       <defs>
        <path id="DejaVuSans-34" d="M 2419 4116 
L 825 1625 
L 2419 1625 
L 2419 4116 
z
M 2253 4666 
L 3047 4666 
L 3047 1625 
L 3713 1625 
L 3713 1100 
L 3047 1100 
L 3047 0 
L 2419 0 
L 2419 1100 
L 313 1100 
L 313 1709 
L 2253 4666 
z
" transform="scale(0.015625)"/>
       </defs>
       <use xlink:href="#DejaVuSans-34"/>
       <use xlink:href="#DejaVuSans-30" transform="translate(63.623047 0)"/>
      </g>
     </g>
    </g>
    <g id="ytick_5">
     <g id="line2d_75">
      <g>
       <use xlink:href="#m3f2555870d" x="46.945" y="136.665402" style="stroke: #000000"/>
      </g>
     </g>
     <g id="line2d_76">
      <g>
       <use xlink:href="#m18e4c7524e" x="413.596212" y="136.665402" style="stroke: #000000"/>
      </g>
     </g>
     <g id="text_13">
      <!-- 50 -->
      <g transform="translate(23.085 142.744152) scale(0.16 -0.16)">
       <use xlink:href="#DejaVuSans-35"/>
       <use xlink:href="#DejaVuSans-30" transform="translate(63.623047 0)"/>
      </g>
     </g>
    </g>
    <g id="ytick_6">
     <g id="line2d_77">
      <g>
       <use xlink:href="#m3f2555870d" x="46.945" y="81.435935" style="stroke: #000000"/>
      </g>
     </g>
     <g id="line2d_78">
      <g>
       <use xlink:href="#m18e4c7524e" x="413.596212" y="81.435935" style="stroke: #000000"/>
      </g>
     </g>
     <g id="text_14">
      <!-- 60 -->
      <g transform="translate(23.085 87.514685) scale(0.16 -0.16)">
       <defs>
        <path id="DejaVuSans-36" d="M 2113 2584 
Q 1688 2584 1439 2293 
Q 1191 2003 1191 1497 
Q 1191 994 1439 701 
Q 1688 409 2113 409 
Q 2538 409 2786 701 
Q 3034 994 3034 1497 
Q 3034 2003 2786 2293 
Q 2538 2584 2113 2584 
z
M 3366 4563 
L 3366 3988 
Q 3128 4100 2886 4159 
Q 2644 4219 2406 4219 
Q 1781 4219 1451 3797 
Q 1122 3375 1075 2522 
Q 1259 2794 1537 2939 
Q 1816 3084 2150 3084 
Q 2853 3084 3261 2657 
Q 3669 2231 3669 1497 
Q 3669 778 3244 343 
Q 2819 -91 2113 -91 
Q 1303 -91 875 529 
Q 447 1150 447 2328 
Q 447 3434 972 4092 
Q 1497 4750 2381 4750 
Q 2619 4750 2861 4703 
Q 3103 4656 3366 4563 
z
" transform="scale(0.015625)"/>
       </defs>
       <use xlink:href="#DejaVuSans-36"/>
       <use xlink:href="#DejaVuSans-30" transform="translate(63.623047 0)"/>
      </g>
     </g>
    </g>
    <g id="ytick_7">
     <g id="line2d_79">
      <g>
       <use xlink:href="#m3f2555870d" x="46.945" y="26.206469" style="stroke: #000000"/>
      </g>
     </g>
     <g id="line2d_80">
      <g>
       <use xlink:href="#m18e4c7524e" x="413.596212" y="26.206469" style="stroke: #000000"/>
      </g>
     </g>
     <g id="text_15">
      <!-- 70 -->
      <g transform="translate(23.085 32.285219) scale(0.16 -0.16)">
       <defs>
        <path id="DejaVuSans-37" d="M 525 4666 
L 3525 4666 
L 3525 4397 
L 1831 0 
L 1172 0 
L 2766 4134 
L 525 4134 
L 525 4666 
z
" transform="scale(0.015625)"/>
       </defs>
       <use xlink:href="#DejaVuSans-37"/>
       <use xlink:href="#DejaVuSans-30" transform="translate(63.623047 0)"/>
      </g>
     </g>
    </g>
    <g id="ytick_8">
     <g id="line2d_81">
      <defs>
       <path id="mcb1bb1a725" d="M 0 0 
L 3 0 
" style="stroke: #000000"/>
      </defs>
      <g>
       <use xlink:href="#mcb1bb1a725" x="46.945" y="368.629159" style="stroke: #000000"/>
      </g>
     </g>
     <g id="line2d_82">
      <defs>
       <path id="m6aff49e1b0" d="M 0 0 
L -3 0 
" style="stroke: #000000"/>
      </defs>
      <g>
       <use xlink:href="#m6aff49e1b0" x="413.596212" y="368.629159" style="stroke: #000000"/>
      </g>
     </g>
    </g>
    <g id="ytick_9">
     <g id="line2d_83">
      <g>
       <use xlink:href="#mcb1bb1a725" x="46.945" y="346.537373" style="stroke: #000000"/>
      </g>
     </g>
     <g id="line2d_84">
      <g>
       <use xlink:href="#m6aff49e1b0" x="413.596212" y="346.537373" style="stroke: #000000"/>
      </g>
     </g>
    </g>
    <g id="ytick_10">
     <g id="line2d_85">
      <g>
       <use xlink:href="#mcb1bb1a725" x="46.945" y="335.491479" style="stroke: #000000"/>
      </g>
     </g>
     <g id="line2d_86">
      <g>
       <use xlink:href="#m6aff49e1b0" x="413.596212" y="335.491479" style="stroke: #000000"/>
      </g>
     </g>
    </g>
    <g id="ytick_11">
     <g id="line2d_87">
      <g>
       <use xlink:href="#mcb1bb1a725" x="46.945" y="324.445586" style="stroke: #000000"/>
      </g>
     </g>
     <g id="line2d_88">
      <g>
       <use xlink:href="#m6aff49e1b0" x="413.596212" y="324.445586" style="stroke: #000000"/>
      </g>
     </g>
    </g>
    <g id="ytick_12">
     <g id="line2d_89">
      <g>
       <use xlink:href="#mcb1bb1a725" x="46.945" y="313.399693" style="stroke: #000000"/>
      </g>
     </g>
     <g id="line2d_90">
      <g>
       <use xlink:href="#m6aff49e1b0" x="413.596212" y="313.399693" style="stroke: #000000"/>
      </g>
     </g>
    </g>
    <g id="ytick_13">
     <g id="line2d_91">
      <g>
       <use xlink:href="#mcb1bb1a725" x="46.945" y="291.307907" style="stroke: #000000"/>
      </g>
     </g>
     <g id="line2d_92">
      <g>
       <use xlink:href="#m6aff49e1b0" x="413.596212" y="291.307907" style="stroke: #000000"/>
      </g>
     </g>
    </g>
    <g id="ytick_14">
     <g id="line2d_93">
      <g>
       <use xlink:href="#mcb1bb1a725" x="46.945" y="280.262013" style="stroke: #000000"/>
      </g>
     </g>
     <g id="line2d_94">
      <g>
       <use xlink:href="#m6aff49e1b0" x="413.596212" y="280.262013" style="stroke: #000000"/>
      </g>
     </g>
    </g>
    <g id="ytick_15">
     <g id="line2d_95">
      <g>
       <use xlink:href="#mcb1bb1a725" x="46.945" y="269.21612" style="stroke: #000000"/>
      </g>
     </g>
     <g id="line2d_96">
      <g>
       <use xlink:href="#m6aff49e1b0" x="413.596212" y="269.21612" style="stroke: #000000"/>
      </g>
     </g>
    </g>
    <g id="ytick_16">
     <g id="line2d_97">
      <g>
       <use xlink:href="#mcb1bb1a725" x="46.945" y="258.170227" style="stroke: #000000"/>
      </g>
     </g>
     <g id="line2d_98">
      <g>
       <use xlink:href="#m6aff49e1b0" x="413.596212" y="258.170227" style="stroke: #000000"/>
      </g>
     </g>
    </g>
    <g id="ytick_17">
     <g id="line2d_99">
      <g>
       <use xlink:href="#mcb1bb1a725" x="46.945" y="236.078441" style="stroke: #000000"/>
      </g>
     </g>
     <g id="line2d_100">
      <g>
       <use xlink:href="#m6aff49e1b0" x="413.596212" y="236.078441" style="stroke: #000000"/>
      </g>
     </g>
    </g>
    <g id="ytick_18">
     <g id="line2d_101">
      <g>
       <use xlink:href="#mcb1bb1a725" x="46.945" y="225.032547" style="stroke: #000000"/>
      </g>
     </g>
     <g id="line2d_102">
      <g>
       <use xlink:href="#m6aff49e1b0" x="413.596212" y="225.032547" style="stroke: #000000"/>
      </g>
     </g>
    </g>
    <g id="ytick_19">
     <g id="line2d_103">
      <g>
       <use xlink:href="#mcb1bb1a725" x="46.945" y="213.986654" style="stroke: #000000"/>
      </g>
     </g>
     <g id="line2d_104">
      <g>
       <use xlink:href="#m6aff49e1b0" x="413.596212" y="213.986654" style="stroke: #000000"/>
      </g>
     </g>
    </g>
    <g id="ytick_20">
     <g id="line2d_105">
      <g>
       <use xlink:href="#mcb1bb1a725" x="46.945" y="202.940761" style="stroke: #000000"/>
      </g>
     </g>
     <g id="line2d_106">
      <g>
       <use xlink:href="#m6aff49e1b0" x="413.596212" y="202.940761" style="stroke: #000000"/>
      </g>
     </g>
    </g>
    <g id="ytick_21">
     <g id="line2d_107">
      <g>
       <use xlink:href="#mcb1bb1a725" x="46.945" y="180.848974" style="stroke: #000000"/>
      </g>
     </g>
     <g id="line2d_108">
      <g>
       <use xlink:href="#m6aff49e1b0" x="413.596212" y="180.848974" style="stroke: #000000"/>
      </g>
     </g>
    </g>
    <g id="ytick_22">
     <g id="line2d_109">
      <g>
       <use xlink:href="#mcb1bb1a725" x="46.945" y="169.803081" style="stroke: #000000"/>
      </g>
     </g>
     <g id="line2d_110">
      <g>
       <use xlink:href="#m6aff49e1b0" x="413.596212" y="169.803081" style="stroke: #000000"/>
      </g>
     </g>
    </g>
    <g id="ytick_23">
     <g id="line2d_111">
      <g>
       <use xlink:href="#mcb1bb1a725" x="46.945" y="158.757188" style="stroke: #000000"/>
      </g>
     </g>
     <g id="line2d_112">
      <g>
       <use xlink:href="#m6aff49e1b0" x="413.596212" y="158.757188" style="stroke: #000000"/>
      </g>
     </g>
    </g>
    <g id="ytick_24">
     <g id="line2d_113">
      <g>
       <use xlink:href="#mcb1bb1a725" x="46.945" y="147.711295" style="stroke: #000000"/>
      </g>
     </g>
     <g id="line2d_114">
      <g>
       <use xlink:href="#m6aff49e1b0" x="413.596212" y="147.711295" style="stroke: #000000"/>
      </g>
     </g>
    </g>
    <g id="ytick_25">
     <g id="line2d_115">
      <g>
       <use xlink:href="#mcb1bb1a725" x="46.945" y="125.619508" style="stroke: #000000"/>
      </g>
     </g>
     <g id="line2d_116">
      <g>
       <use xlink:href="#m6aff49e1b0" x="413.596212" y="125.619508" style="stroke: #000000"/>
      </g>
     </g>
    </g>
    <g id="ytick_26">
     <g id="line2d_117">
      <g>
       <use xlink:href="#mcb1bb1a725" x="46.945" y="114.573615" style="stroke: #000000"/>
      </g>
     </g>
     <g id="line2d_118">
      <g>
       <use xlink:href="#m6aff49e1b0" x="413.596212" y="114.573615" style="stroke: #000000"/>
      </g>
     </g>
    </g>
    <g id="ytick_27">
     <g id="line2d_119">
      <g>
       <use xlink:href="#mcb1bb1a725" x="46.945" y="103.527722" style="stroke: #000000"/>
      </g>
     </g>
     <g id="line2d_120">
      <g>
       <use xlink:href="#m6aff49e1b0" x="413.596212" y="103.527722" style="stroke: #000000"/>
      </g>
     </g>
    </g>
    <g id="ytick_28">
     <g id="line2d_121">
      <g>
       <use xlink:href="#mcb1bb1a725" x="46.945" y="92.481829" style="stroke: #000000"/>
      </g>
     </g>
     <g id="line2d_122">
      <g>
       <use xlink:href="#m6aff49e1b0" x="413.596212" y="92.481829" style="stroke: #000000"/>
      </g>
     </g>
    </g>
    <g id="ytick_29">
     <g id="line2d_123">
      <g>
       <use xlink:href="#mcb1bb1a725" x="46.945" y="70.390042" style="stroke: #000000"/>
      </g>
     </g>
     <g id="line2d_124">
      <g>
       <use xlink:href="#m6aff49e1b0" x="413.596212" y="70.390042" style="stroke: #000000"/>
      </g>
     </g>
    </g>
    <g id="ytick_30">
     <g id="line2d_125">
      <g>
       <use xlink:href="#mcb1bb1a725" x="46.945" y="59.344149" style="stroke: #000000"/>
      </g>
     </g>
     <g id="line2d_126">
      <g>
       <use xlink:href="#m6aff49e1b0" x="413.596212" y="59.344149" style="stroke: #000000"/>
      </g>
     </g>
    </g>
    <g id="ytick_31">
     <g id="line2d_127">
      <g>
       <use xlink:href="#mcb1bb1a725" x="46.945" y="48.298256" style="stroke: #000000"/>
      </g>
     </g>
     <g id="line2d_128">
      <g>
       <use xlink:href="#m6aff49e1b0" x="413.596212" y="48.298256" style="stroke: #000000"/>
      </g>
     </g>
    </g>
    <g id="ytick_32">
     <g id="line2d_129">
      <g>
       <use xlink:href="#mcb1bb1a725" x="46.945" y="37.252363" style="stroke: #000000"/>
      </g>
     </g>
     <g id="line2d_130">
      <g>
       <use xlink:href="#m6aff49e1b0" x="413.596212" y="37.252363" style="stroke: #000000"/>
      </g>
     </g>
    </g>
    <g id="text_16">
     <!-- Population -->
     <g transform="translate(15.7575 242.07375) rotate(-90) scale(0.16 -0.16)">
      <defs>
       <path id="DejaVuSans-50" d="M 1259 4147 
L 1259 2394 
L 2053 2394 
Q 2494 2394 2734 2622 
Q 2975 2850 2975 3272 
Q 2975 3691 2734 3919 
Q 2494 4147 2053 4147 
L 1259 4147 
z
M 628 4666 
L 2053 4666 
Q 2838 4666 3239 4311 
Q 3641 3956 3641 3272 
Q 3641 2581 3239 2228 
Q 2838 1875 2053 1875 
L 1259 1875 
L 1259 0 
L 628 0 
L 628 4666 
z
" transform="scale(0.015625)"/>
       <path id="DejaVuSans-6f" d="M 1959 3097 
Q 1497 3097 1228 2736 
Q 959 2375 959 1747 
Q 959 1119 1226 758 
Q 1494 397 1959 397 
Q 2419 397 2687 759 
Q 2956 1122 2956 1747 
Q 2956 2369 2687 2733 
Q 2419 3097 1959 3097 
z
M 1959 3584 
Q 2709 3584 3137 3096 
Q 3566 2609 3566 1747 
Q 3566 888 3137 398 
Q 2709 -91 1959 -91 
Q 1206 -91 779 398 
Q 353 888 353 1747 
Q 353 2609 779 3096 
Q 1206 3584 1959 3584 
z
" transform="scale(0.015625)"/>
       <path id="DejaVuSans-70" d="M 1159 525 
L 1159 -1331 
L 581 -1331 
L 581 3500 
L 1159 3500 
L 1159 2969 
Q 1341 3281 1617 3432 
Q 1894 3584 2278 3584 
Q 2916 3584 3314 3078 
Q 3713 2572 3713 1747 
Q 3713 922 3314 415 
Q 2916 -91 2278 -91 
Q 1894 -91 1617 61 
Q 1341 213 1159 525 
z
M 3116 1747 
Q 3116 2381 2855 2742 
Q 2594 3103 2138 3103 
Q 1681 3103 1420 2742 
Q 1159 2381 1159 1747 
Q 1159 1113 1420 752 
Q 1681 391 2138 391 
Q 2594 391 2855 752 
Q 3116 1113 3116 1747 
z
" transform="scale(0.015625)"/>
       <path id="DejaVuSans-75" d="M 544 1381 
L 544 3500 
L 1119 3500 
L 1119 1403 
Q 1119 906 1312 657 
Q 1506 409 1894 409 
Q 2359 409 2629 706 
Q 2900 1003 2900 1516 
L 2900 3500 
L 3475 3500 
L 3475 0 
L 2900 0 
L 2900 538 
Q 2691 219 2414 64 
Q 2138 -91 1772 -91 
Q 1169 -91 856 284 
Q 544 659 544 1381 
z
M 1991 3584 
L 1991 3584 
z
" transform="scale(0.015625)"/>
       <path id="DejaVuSans-6c" d="M 603 4863 
L 1178 4863 
L 1178 0 
L 603 0 
L 603 4863 
z
" transform="scale(0.015625)"/>
       <path id="DejaVuSans-61" d="M 2194 1759 
Q 1497 1759 1228 1600 
Q 959 1441 959 1056 
Q 959 750 1161 570 
Q 1363 391 1709 391 
Q 2188 391 2477 730 
Q 2766 1069 2766 1631 
L 2766 1759 
L 2194 1759 
z
M 3341 1997 
L 3341 0 
L 2766 0 
L 2766 531 
Q 2569 213 2275 61 
Q 1981 -91 1556 -91 
Q 1019 -91 701 211 
Q 384 513 384 1019 
Q 384 1609 779 1909 
Q 1175 2209 1959 2209 
L 2766 2209 
L 2766 2266 
Q 2766 2663 2505 2880 
Q 2244 3097 1772 3097 
Q 1472 3097 1187 3025 
Q 903 2953 641 2809 
L 641 3341 
Q 956 3463 1253 3523 
Q 1550 3584 1831 3584 
Q 2591 3584 2966 3190 
Q 3341 2797 3341 1997 
z
" transform="scale(0.015625)"/>
       <path id="DejaVuSans-74" d="M 1172 4494 
L 1172 3500 
L 2356 3500 
L 2356 3053 
L 1172 3053 
L 1172 1153 
Q 1172 725 1289 603 
Q 1406 481 1766 481 
L 2356 481 
L 2356 0 
L 1766 0 
Q 1100 0 847 248 
Q 594 497 594 1153 
L 594 3053 
L 172 3053 
L 172 3500 
L 594 3500 
L 594 4494 
L 1172 4494 
z
" transform="scale(0.015625)"/>
       <path id="DejaVuSans-6e" d="M 3513 2113 
L 3513 0 
L 2938 0 
L 2938 2094 
Q 2938 2591 2744 2837 
Q 2550 3084 2163 3084 
Q 1697 3084 1428 2787 
Q 1159 2491 1159 1978 
L 1159 0 
L 581 0 
L 581 3500 
L 1159 3500 
L 1159 2956 
Q 1366 3272 1645 3428 
Q 1925 3584 2291 3584 
Q 2894 3584 3203 3211 
Q 3513 2838 3513 2113 
z
" transform="scale(0.015625)"/>
      </defs>
      <use xlink:href="#DejaVuSans-50"/>
      <use xlink:href="#DejaVuSans-6f" transform="translate(56.677734 0)"/>
      <use xlink:href="#DejaVuSans-70" transform="translate(117.859375 0)"/>
      <use xlink:href="#DejaVuSans-75" transform="translate(181.335938 0)"/>
      <use xlink:href="#DejaVuSans-6c" transform="translate(244.714844 0)"/>
      <use xlink:href="#DejaVuSans-61" transform="translate(272.498047 0)"/>
      <use xlink:href="#DejaVuSans-74" transform="translate(333.777344 0)"/>
      <use xlink:href="#DejaVuSans-69" transform="translate(372.986328 0)"/>
      <use xlink:href="#DejaVuSans-6f" transform="translate(400.769531 0)"/>
      <use xlink:href="#DejaVuSans-6e" transform="translate(461.951172 0)"/>
     </g>
    </g>
   </g>
   <g id="line2d_131">
    <path d="M 63.610964 136.665402 
L 74.721607 94.41486 
L 85.83225 82.50869 
L 96.942892 69.531218 
L 108.053535 59.571531 
L 119.164178 88.370004 
L 130.274821 58.532997 
L 141.385464 75.060186 
L 152.496106 54.494135 
L 163.606749 71.870063 
L 174.717392 51.606032 
L 185.828035 69.598003 
L 196.938677 54.476741 
L 208.04932 53.939557 
L 219.159963 66.263568 
L 230.270606 72.445277 
L 241.381249 55.458535 
L 252.491891 65.105391 
L 263.602534 78.783026 
L 274.713177 49.525519 
L 285.82382 60.12867 
L 296.934462 76.324641 
L 308.045105 57.5782 
L 319.155748 92.066416 
L 330.266391 78.065693 
L 341.377034 52.050566 
L 352.487676 82.818112 
L 363.598319 127.555266 
L 374.708962 217.456083 
L 385.819605 271.010564 
L 396.930247 295.454023 
" clip-path="url(#pea6de9559a)" style="fill: none; stroke: #0c5da5; stroke-opacity: 0.3; stroke-width: 2; stroke-linecap: square"/>
   </g>
   <g id="line2d_132">
    <path d="M 63.610964 136.665402 
L 74.721607 84.473556 
L 85.83225 63.070439 
L 96.942892 96.148986 
L 108.053535 84.104829 
L 119.164178 64.847212 
L 130.274821 62.679064 
L 141.385464 55.667089 
L 152.496106 83.138085 
L 163.606749 56.68149 
L 174.717392 73.595912 
L 185.828035 63.519766 
L 196.938677 96.484205 
L 208.04932 74.130471 
L 219.159963 55.536275 
L 230.270606 100.898419 
L 241.381249 73.098728 
L 252.491891 52.717276 
L 263.602534 70.471313 
L 274.713177 58.901172 
L 285.82382 75.351732 
L 296.934462 54.758542 
L 308.045105 72.078451 
L 319.155748 43.276051 
L 330.266391 63.087475 
L 341.377034 73.498564 
L 352.487676 90.456508 
L 363.598319 160.115148 
L 374.708962 245.612448 
L 385.819605 289.300183 
L 396.930247 319.110688 
" clip-path="url(#pea6de9559a)" style="fill: none; stroke: #00b945; stroke-opacity: 0.3; stroke-width: 2; stroke-linecap: square"/>
   </g>
   <g id="line2d_133">
    <path d="M 63.610964 136.665402 
L 74.721607 79.502904 
L 85.83225 77.207733 
L 96.942892 56.443595 
L 108.053535 68.235673 
L 119.164178 73.742876 
L 130.274821 53.300414 
L 141.385464 65.761203 
L 152.496106 85.543415 
L 163.606749 74.377912 
L 174.717392 48.69989 
L 185.828035 77.64382 
L 196.938677 48.46075 
L 208.04932 67.13228 
L 219.159963 48.806885 
L 230.270606 67.403188 
L 241.381249 89.918453 
L 252.491891 68.068072 
L 263.602534 74.912031 
L 274.713177 49.184343 
L 285.82382 85.880156 
L 296.934462 72.532218 
L 308.045105 60.711748 
L 319.155748 59.182219 
L 330.266391 93.255893 
L 341.377034 73.454261 
L 352.487676 55.885899 
L 363.598319 174.873956 
L 374.708962 269.789141 
L 385.819605 287.704068 
L 396.930247 299.279241 
" clip-path="url(#pea6de9559a)" style="fill: none; stroke: #ff9500; stroke-opacity: 0.3; stroke-width: 2; stroke-linecap: square"/>
   </g>
   <g id="line2d_134">
    <path d="M 63.610964 136.665402 
L 74.721607 79.502904 
L 85.83225 58.531716 
L 96.942892 69.885006 
L 108.053535 57.129054 
L 119.164178 84.295528 
L 130.274821 54.694561 
L 141.385464 54.122111 
L 152.496106 71.576966 
L 163.606749 59.872044 
L 174.717392 88.593014 
L 185.828035 66.849018 
L 196.938677 65.421578 
L 208.04932 77.047855 
L 219.159963 64.692441 
L 230.270606 79.953927 
L 241.381249 62.092926 
L 252.491891 95.420354 
L 263.602534 81.080317 
L 274.713177 51.676306 
L 285.82382 64.486492 
L 296.934462 107.560718 
L 308.045105 59.106965 
L 319.155748 75.514747 
L 330.266391 49.731356 
L 341.377034 86.281345 
L 352.487676 64.726729 
L 363.598319 194.76186 
L 374.708962 293.002723 
L 385.819605 321.717192 
L 396.930247 342.356244 
" clip-path="url(#pea6de9559a)" style="fill: none; stroke: #ff2c00; stroke-opacity: 0.3; stroke-width: 2; stroke-linecap: square"/>
   </g>
   <g id="line2d_135">
    <path d="M 63.610964 136.665402 
L 74.721607 79.502904 
L 85.83225 60.542241 
L 96.942892 59.039222 
L 108.053535 75.461081 
L 119.164178 65.207925 
L 130.274821 61.375972 
L 141.385464 77.314656 
L 152.496106 56.540766 
L 163.606749 68.312328 
L 174.717392 56.178324 
L 185.828035 73.198522 
L 196.938677 71.650777 
L 208.04932 51.407848 
L 219.159963 61.704785 
L 230.270606 95.131277 
L 241.381249 91.109868 
L 252.491891 55.968853 
L 263.602534 55.19096 
L 274.713177 64.880384 
L 285.82382 90.374948 
L 296.934462 86.859801 
L 308.045105 57.108515 
L 319.155748 73.93335 
L 330.266391 55.353005 
L 341.377034 49.503 
L 352.487676 67.948345 
L 363.598319 196.369595 
L 374.708962 293.757574 
L 385.819605 328.161559 
L 396.930247 362.129318 
" clip-path="url(#pea6de9559a)" style="fill: none; stroke: #845b97; stroke-opacity: 0.3; stroke-width: 2; stroke-linecap: square"/>
   </g>
   <g id="line2d_136">
    <path d="M 63.610964 136.665402 
L 74.721607 84.473556 
L 85.83225 49.696527 
L 96.942892 96.583371 
L 108.053535 76.98674 
L 119.164178 51.068835 
L 130.274821 45.923191 
L 141.385464 65.149557 
L 152.496106 95.479074 
L 163.606749 65.266505 
L 174.717392 77.898397 
L 185.828035 57.071448 
L 196.938677 84.249891 
L 208.04932 54.651654 
L 219.159963 82.33509 
L 230.270606 61.115034 
L 241.381249 94.692311 
L 252.491891 72.472046 
L 263.602534 52.150313 
L 274.713177 88.058726 
L 285.82382 61.198442 
L 296.934462 77.17366 
L 308.045105 66.760239 
L 319.155748 69.742664 
L 330.266391 48.528969 
L 341.377034 67.185663 
L 352.487676 76.766907 
L 363.598319 154.907182 
L 374.708962 242.662658 
L 385.819605 304.77248 
L 396.930247 327.351953 
" clip-path="url(#pea6de9559a)" style="fill: none; stroke: #474747; stroke-opacity: 0.3; stroke-width: 2; stroke-linecap: square"/>
   </g>
   <g id="line2d_137">
    <path d="M 63.610964 136.665402 
L 74.721607 79.502904 
L 85.83225 45.027335 
L 96.942892 74.762113 
L 108.053535 73.026256 
L 119.164178 44.157029 
L 130.274821 45.340249 
L 141.385464 75.007255 
L 152.496106 64.796932 
L 163.606749 97.438035 
L 174.717392 75.01445 
L 185.828035 46.007706 
L 196.938677 60.058049 
L 208.04932 88.731093 
L 219.159963 75.07798 
L 230.270606 62.953639 
L 241.381249 61.075969 
L 252.491891 89.487349 
L 263.602534 69.902258 
L 274.713177 52.857729 
L 285.82382 70.581774 
L 296.934462 41.886569 
L 308.045105 62.007649 
L 319.155748 60.276322 
L 330.266391 76.441762 
L 341.377034 47.33852 
L 352.487676 94.848156 
L 363.598319 178.296672 
L 374.708962 256.06753 
L 385.819605 276.682568 
L 396.930247 307.04351 
" clip-path="url(#pea6de9559a)" style="fill: none; stroke: #9e9e9e; stroke-opacity: 0.3; stroke-width: 2; stroke-linecap: square"/>
   </g>
   <g id="line2d_138">
    <path d="M 63.610964 136.665402 
L 74.721607 79.502904 
L 85.83225 58.531716 
L 96.942892 75.059172 
L 108.053535 54.493215 
L 119.164178 71.869338 
L 130.274821 51.605377 
L 141.385464 82.491251 
L 152.496106 61.257685 
L 163.606749 77.220708 
L 174.717392 48.065586 
L 185.828035 61.662 
L 196.938677 95.099421 
L 208.04932 83.138514 
L 219.159963 64.923738 
L 230.270606 74.604135 
L 241.381249 64.431987 
L 252.491891 79.746293 
L 263.602534 58.753431 
L 274.713177 85.583404 
L 285.82382 67.103904 
L 296.934462 78.233487 
L 308.045105 60.567827 
L 319.155748 89.109699 
L 330.266391 75.416617 
L 341.377034 54.817397 
L 352.487676 66.954215 
L 363.598319 239.104975 
L 374.708962 263.295354 
L 385.819605 308.184499 
L 396.930247 342.951018 
" clip-path="url(#pea6de9559a)" style="fill: none; stroke: #0c5da5; stroke-opacity: 0.3; stroke-width: 2; stroke-linecap: square"/>
   </g>
   <g id="line2d_139">
    <path d="M 63.610964 136.665402 
L 74.721607 94.41486 
L 85.83225 74.548743 
L 96.942892 54.030487 
L 108.053535 53.565687 
L 119.164178 65.969658 
L 130.274821 100.015298 
L 141.385464 79.851555 
L 152.496106 50.525307 
L 163.606749 68.749757 
L 174.717392 80.520216 
L 185.828035 59.458793 
L 196.938677 52.950971 
L 208.04932 52.662026 
L 219.159963 98.771459 
L 230.270606 76.251616 
L 241.381249 65.924212 
L 252.491891 74.297138 
L 263.602534 45.339593 
L 274.713177 93.380398 
L 285.82382 58.124957 
L 296.934462 69.563379 
L 308.045105 74.882059 
L 319.155748 54.332626 
L 330.266391 66.572723 
L 341.377034 95.756181 
L 352.487676 73.456321 
L 363.598319 183.607231 
L 374.708962 274.038338 
L 385.819605 287.825598 
L 396.930247 308.594242 
" clip-path="url(#pea6de9559a)" style="fill: none; stroke: #00b945; stroke-opacity: 0.3; stroke-width: 2; stroke-linecap: square"/>
   </g>
   <g id="line2d_140">
    <path d="M 63.610964 136.665402 
L 74.721607 84.473556 
L 85.83225 57.905007 
L 96.942892 87.134918 
L 108.053535 75.832263 
L 119.164178 63.619023 
L 130.274821 89.452722 
L 141.385464 77.95367 
L 152.496106 60.32006 
L 163.606749 88.925653 
L 174.717392 85.56809 
L 185.828035 67.090229 
L 196.938677 62.774351 
L 208.04932 71.277831 
L 219.159963 51.070892 
L 230.270606 64.011997 
L 241.381249 89.765994 
L 252.491891 76.003937 
L 263.602534 55.350317 
L 274.713177 67.37387 
L 285.82382 53.064049 
L 296.934462 70.744068 
L 308.045105 59.140574 
L 319.155748 85.890636 
L 330.266391 59.20524 
L 341.377034 93.272982 
L 352.487676 71.160516 
L 363.598319 155.273724 
L 374.708962 242.869612 
L 385.819605 316.416161 
L 396.930247 336.0013 
" clip-path="url(#pea6de9559a)" style="fill: none; stroke: #ff9500; stroke-opacity: 0.3; stroke-width: 2; stroke-linecap: square"/>
   </g>
   <g id="line2d_141">
    <path d="M 63.610964 136.665402 
L 74.721607 94.41486 
L 85.83225 90.468637 
L 96.942892 63.419473 
L 108.053535 78.939703 
L 119.164178 66.365703 
L 130.274821 51.738864 
L 141.385464 80.035916 
L 152.496106 67.336753 
L 163.606749 61.439317 
L 174.717392 59.796302 
L 185.828035 58.410251 
L 196.938677 57.242891 
L 208.04932 91.818061 
L 219.159963 61.793138 
L 230.270606 87.998654 
L 241.381249 66.302884 
L 252.491891 72.231007 
L 263.602534 46.755497 
L 274.713177 76.116891 
L 285.82382 57.384712 
L 296.934462 74.151691 
L 308.045105 53.670704 
L 319.155748 63.602989 
L 330.266391 106.900429 
L 341.377034 65.147662 
L 352.487676 80.316979 
L 363.598319 141.166499 
L 374.708962 234.976113 
L 385.819605 282.306079 
L 396.930247 294.732728 
" clip-path="url(#pea6de9559a)" style="fill: none; stroke: #ff2c00; stroke-opacity: 0.3; stroke-width: 2; stroke-linecap: square"/>
   </g>
   <g id="line2d_142">
    <path d="M 63.610964 136.665402 
L 74.721607 84.473556 
L 85.83225 73.401302 
L 96.942892 44.505859 
L 108.053535 58.890153 
L 119.164178 75.343004 
L 130.274821 49.575449 
L 141.385464 78.332308 
L 152.496106 67.811688 
L 163.606749 51.3999 
L 174.717392 51.365489 
L 185.828035 61.669288 
L 196.938677 77.547675 
L 208.04932 48.370941 
L 219.159963 48.839918 
L 230.270606 67.429047 
L 241.381249 76.473365 
L 252.491891 64.184975 
L 263.602534 62.118044 
L 274.713177 88.257217 
L 285.82382 66.540428 
L 296.934462 85.628421 
L 308.045105 64.128178 
L 319.155748 107.292862 
L 330.266391 60.937111 
L 341.377034 69.724012 
L 352.487676 78.799682 
L 363.598319 146.996226 
L 374.708962 223.508143 
L 385.819605 251.217707 
L 396.930247 289.314446 
" clip-path="url(#pea6de9559a)" style="fill: none; stroke: #845b97; stroke-opacity: 0.3; stroke-width: 2; stroke-linecap: square"/>
   </g>
   <g id="line2d_143">
    <path d="M 63.610964 136.665402 
L 74.721607 84.473556 
L 85.83225 71.278918 
L 96.942892 51.071874 
L 108.053535 61.423274 
L 119.164178 77.352229 
L 130.274821 66.922222 
L 141.385464 68.86322 
L 152.496106 68.756262 
L 163.606749 69.329167 
L 174.717392 60.969048 
L 185.828035 94.583699 
L 196.938677 64.415893 
L 208.04932 90.088092 
L 219.159963 71.136485 
L 230.270606 54.307897 
L 241.381249 82.063424 
L 252.491891 63.966946 
L 263.602534 79.375715 
L 274.713177 58.415876 
L 285.82382 87.513236 
L 296.934462 73.989579 
L 308.045105 53.523851 
L 319.155748 89.070339 
L 330.266391 54.036503 
L 341.377034 71.509538 
L 352.487676 88.84658 
L 363.598319 206.984966 
L 374.708962 285.787974 
L 385.819605 316.649734 
L 396.930247 350.679615 
" clip-path="url(#pea6de9559a)" style="fill: none; stroke: #474747; stroke-opacity: 0.3; stroke-width: 2; stroke-linecap: square"/>
   </g>
   <g id="line2d_144">
    <path d="M 63.610964 136.665402 
L 74.721607 94.41486 
L 85.83225 72.215524 
L 96.942892 62.272035 
L 108.053535 70.852757 
L 119.164178 54.058681 
L 130.274821 66.357245 
L 141.385464 71.934841 
L 152.496106 37.965682 
L 163.606749 77.712412 
L 174.717392 65.279842 
L 185.828035 55.92035 
L 196.938677 67.823063 
L 208.04932 76.623512 
L 219.159963 50.738598 
L 230.270606 50.813376 
L 241.381249 61.206737 
L 252.491891 87.532188 
L 263.602534 74.006507 
L 274.713177 48.36319 
L 285.82382 85.278419 
L 296.934462 63.807483 
L 308.045105 74.071561 
L 319.155748 62.066643 
L 330.266391 60.326166 
L 341.377034 88.930188 
L 352.487676 59.061913 
L 363.598319 176.429729 
L 374.708962 245.656005 
L 385.819605 306.423121 
L 396.930247 341.868567 
" clip-path="url(#pea6de9559a)" style="fill: none; stroke: #9e9e9e; stroke-opacity: 0.3; stroke-width: 2; stroke-linecap: square"/>
   </g>
   <g id="line2d_145">
    <path d="M 63.610964 136.665402 
L 74.721607 84.473556 
L 85.83225 54.861959 
L 96.942892 54.262436 
L 108.053535 89.61502 
L 119.164178 62.632096 
L 130.274821 106.175496 
L 141.385464 67.327674 
L 152.496106 53.239954 
L 163.606749 99.198639 
L 174.717392 79.076853 
L 185.828035 49.800339 
L 196.938677 78.509239 
L 208.04932 59.614749 
L 219.159963 86.267086 
L 230.270606 64.713654 
L 241.381249 79.970841 
L 252.491891 45.46584 
L 263.602534 83.160175 
L 274.713177 72.203553 
L 285.82382 51.907515 
L 296.934462 64.6678 
L 308.045105 90.289044 
L 319.155748 68.409204 
L 330.266391 59.492893 
L 341.377034 93.486547 
L 352.487676 73.672003 
L 363.598319 241.637468 
L 374.708962 265.277378 
L 385.819605 309.463456 
L 396.930247 333.456612 
" clip-path="url(#pea6de9559a)" style="fill: none; stroke: #0c5da5; stroke-opacity: 0.3; stroke-width: 2; stroke-linecap: square"/>
   </g>
   <g id="line2d_146">
    <path d="M 63.610964 136.665402 
L 74.721607 79.502904 
L 85.83225 66.864462 
L 96.942892 79.532177 
L 108.053535 53.386774 
L 119.164178 99.307201 
L 130.274821 79.179809 
L 141.385464 68.581406 
L 152.496106 71.335196 
L 163.606749 45.945548 
L 174.717392 75.481663 
L 185.828035 56.793292 
L 196.938677 55.883271 
L 208.04932 90.812075 
L 219.159963 71.14967 
L 230.270606 42.413551 
L 241.381249 62.416982 
L 252.491891 95.661806 
L 263.602534 83.65619 
L 274.713177 54.093636 
L 285.82382 71.554537 
L 296.934462 51.320884 
L 308.045105 64.207885 
L 319.155748 62.137445 
L 330.266391 77.919755 
L 341.377034 65.463195 
L 352.487676 90.923853 
L 363.598319 160.406327 
L 374.708962 231.366821 
L 385.819605 279.956187 
L 396.930247 302.418637 
" clip-path="url(#pea6de9559a)" style="fill: none; stroke: #00b945; stroke-opacity: 0.3; stroke-width: 2; stroke-linecap: square"/>
   </g>
   <g id="line2d_147">
    <path d="M 63.610964 136.665402 
L 74.721607 94.41486 
L 85.83225 72.215524 
L 96.942892 70.786965 
L 108.053535 54.000903 
L 119.164178 53.540909 
L 130.274821 89.082913 
L 141.385464 77.61493 
L 152.496106 67.160565 
L 163.606749 67.570972 
L 174.717392 78.387348 
L 185.828035 52.343463 
L 196.938677 52.15395 
L 208.04932 70.028463 
L 219.159963 43.056525 
L 230.270606 57.76523 
L 241.381249 56.700239 
L 252.491891 86.243776 
L 263.602534 64.692278 
L 274.713177 57.370387 
L 285.82382 91.912482 
L 296.934462 61.882566 
L 308.045105 77.717158 
L 319.155748 48.52926 
L 330.266391 62.023981 
L 341.377034 105.72179 
L 352.487676 80.75627 
L 363.598319 163.377337 
L 374.708962 237.911608 
L 385.819605 306.08869 
L 396.930247 331.029656 
" clip-path="url(#pea6de9559a)" style="fill: none; stroke: #ff9500; stroke-opacity: 0.3; stroke-width: 2; stroke-linecap: square"/>
   </g>
   <g id="line2d_148">
    <path d="M 63.610964 136.665402 
L 74.721607 79.502904 
L 85.83225 50.198971 
L 96.942892 68.49383 
L 108.053535 70.736633 
L 119.164178 69.488733 
L 130.274821 55.430451 
L 141.385464 100.820001 
L 152.496106 78.155437 
L 163.606749 57.305223 
L 174.717392 68.915714 
L 185.828035 79.367713 
L 196.938677 68.752136 
L 208.04932 58.99586 
L 219.159963 57.735889 
L 230.270606 51.502054 
L 241.381249 69.516345 
L 252.491891 54.911847 
L 263.602534 67.02857 
L 274.713177 82.192399 
L 285.82382 63.056288 
L 296.934462 78.65061 
L 308.045105 57.755747 
L 319.155748 92.197963 
L 330.266391 70.168368 
L 341.377034 61.799474 
L 352.487676 77.651123 
L 363.598319 180.363337 
L 374.708962 243.39494 
L 385.819605 287.833505 
L 396.930247 308.60047 
" clip-path="url(#pea6de9559a)" style="fill: none; stroke: #ff2c00; stroke-opacity: 0.3; stroke-width: 2; stroke-linecap: square"/>
   </g>
   <g id="line2d_149">
    <path d="M 63.610964 136.665402 
L 74.721607 94.41486 
L 85.83225 67.06894 
L 96.942892 68.067496 
L 108.053535 57.495306 
L 119.164178 56.473266 
L 130.274821 83.776143 
L 141.385464 57.265836 
L 152.496106 74.057708 
L 163.606749 56.878474 
L 174.717392 73.751549 
L 185.828035 72.137064 
L 196.938677 55.187412 
L 208.04932 85.126824 
L 219.159963 55.476469 
L 230.270606 67.473251 
L 241.381249 63.041352 
L 252.491891 71.503851 
L 263.602534 61.629305 
L 274.713177 77.515907 
L 285.82382 75.453139 
L 296.934462 54.850527 
L 308.045105 90.049073 
L 319.155748 78.500132 
L 330.266391 65.976629 
L 341.377034 84.433037 
L 352.487676 63.033349 
L 363.598319 183.56617 
L 374.708962 230.48752 
L 385.819605 252.56965 
L 396.930247 293.930861 
" clip-path="url(#pea6de9559a)" style="fill: none; stroke: #845b97; stroke-opacity: 0.3; stroke-width: 2; stroke-linecap: square"/>
   </g>
   <g id="line2d_150">
    <path d="M 63.610964 136.665402 
L 74.721607 84.473556 
L 85.83225 73.401302 
L 96.942892 52.991145 
L 108.053535 65.518264 
L 119.164178 60.176948 
L 130.274821 76.362934 
L 141.385464 66.025112 
L 152.496106 84.101382 
L 163.606749 64.843982 
L 174.717392 90.429615 
L 185.828035 68.538634 
L 196.938677 60.140708 
L 208.04932 86.684842 
L 219.159963 56.943621 
L 230.270606 101.942088 
L 241.381249 86.971643 
L 252.491891 57.213938 
L 263.602534 84.362779 
L 274.713177 73.300229 
L 285.82382 47.723287 
L 296.934462 76.876546 
L 308.045105 56.142682 
L 319.155748 73.170381 
L 330.266391 52.782124 
L 341.377034 52.520781 
L 352.487676 47.134367 
L 363.598319 231.827503 
L 374.708962 302.878614 
L 385.819605 312.216169 
L 396.930247 345.440341 
" clip-path="url(#pea6de9559a)" style="fill: none; stroke: #474747; stroke-opacity: 0.3; stroke-width: 2; stroke-linecap: square"/>
   </g>
   <g id="line2d_151">
    <path d="M 63.610964 136.665402 
L 74.721607 85.815632 
L 85.83225 65.146787 
L 96.942892 68.841482 
L 108.053535 66.326239 
L 119.164178 68.124036 
L 130.274821 68.371804 
L 141.385464 67.843731 
L 152.496106 66.793985 
L 163.606749 68.416446 
L 174.717392 68.745577 
L 185.828035 68.195778 
L 196.938677 66.309023 
L 208.04932 67.82394 
L 219.159963 65.009289 
L 230.270606 67.456044 
L 241.381249 69.37015 
L 252.491891 66.866252 
L 263.602534 68.83127 
L 274.713177 65.521105 
L 285.82382 70.117628 
L 296.934462 66.116345 
L 308.045105 66.889091 
L 319.155748 67.558596 
L 330.266391 67.313738 
L 341.377034 68.675009 
L 352.487676 74.637794 
L 363.598319 178.073093 
L 374.708962 248.715404 
L 385.819605 290.85321 
L 396.930247 321.08047 
" clip-path="url(#pea6de9559a)" style="fill: none; stroke: #ff0000; stroke-width: 2; stroke-linecap: square"/>
   </g>
   <g id="patch_3">
    <path d="M 46.945 378.3375 
L 46.945 21.7575 
" style="fill: none; stroke: #000000; stroke-linejoin: miter; stroke-linecap: square"/>
   </g>
   <g id="patch_4">
    <path d="M 413.596212 378.3375 
L 413.596212 21.7575 
" style="fill: none; stroke: #000000; stroke-linejoin: miter; stroke-linecap: square"/>
   </g>
   <g id="patch_5">
    <path d="M 46.945 378.3375 
L 413.596212 378.3375 
" style="fill: none; stroke: #000000; stroke-linejoin: miter; stroke-linecap: square"/>
   </g>
   <g id="patch_6">
    <path d="M 46.945 21.7575 
L 413.596212 21.7575 
" style="fill: none; stroke: #000000; stroke-linejoin: miter; stroke-linecap: square"/>
   </g>
   <g id="text_17">
    <!-- Population Trajectories -->
    <g transform="translate(139.628106 15.7575) scale(0.16 -0.16)">
     <defs>
      <path id="DejaVuSans-20" transform="scale(0.015625)"/>
      <path id="DejaVuSans-72" d="M 2631 2963 
Q 2534 3019 2420 3045 
Q 2306 3072 2169 3072 
Q 1681 3072 1420 2755 
Q 1159 2438 1159 1844 
L 1159 0 
L 581 0 
L 581 3500 
L 1159 3500 
L 1159 2956 
Q 1341 3275 1631 3429 
Q 1922 3584 2338 3584 
Q 2397 3584 2469 3576 
Q 2541 3569 2628 3553 
L 2631 2963 
z
" transform="scale(0.015625)"/>
      <path id="DejaVuSans-6a" d="M 603 3500 
L 1178 3500 
L 1178 -63 
Q 1178 -731 923 -1031 
Q 669 -1331 103 -1331 
L -116 -1331 
L -116 -844 
L 38 -844 
Q 366 -844 484 -692 
Q 603 -541 603 -63 
L 603 3500 
z
M 603 4863 
L 1178 4863 
L 1178 4134 
L 603 4134 
L 603 4863 
z
" transform="scale(0.015625)"/>
      <path id="DejaVuSans-63" d="M 3122 3366 
L 3122 2828 
Q 2878 2963 2633 3030 
Q 2388 3097 2138 3097 
Q 1578 3097 1268 2742 
Q 959 2388 959 1747 
Q 959 1106 1268 751 
Q 1578 397 2138 397 
Q 2388 397 2633 464 
Q 2878 531 3122 666 
L 3122 134 
Q 2881 22 2623 -34 
Q 2366 -91 2075 -91 
Q 1284 -91 818 406 
Q 353 903 353 1747 
Q 353 2603 823 3093 
Q 1294 3584 2113 3584 
Q 2378 3584 2631 3529 
Q 2884 3475 3122 3366 
z
" transform="scale(0.015625)"/>
      <path id="DejaVuSans-73" d="M 2834 3397 
L 2834 2853 
Q 2591 2978 2328 3040 
Q 2066 3103 1784 3103 
Q 1356 3103 1142 2972 
Q 928 2841 928 2578 
Q 928 2378 1081 2264 
Q 1234 2150 1697 2047 
L 1894 2003 
Q 2506 1872 2764 1633 
Q 3022 1394 3022 966 
Q 3022 478 2636 193 
Q 2250 -91 1575 -91 
Q 1294 -91 989 -36 
Q 684 19 347 128 
L 347 722 
Q 666 556 975 473 
Q 1284 391 1588 391 
Q 1994 391 2212 530 
Q 2431 669 2431 922 
Q 2431 1156 2273 1281 
Q 2116 1406 1581 1522 
L 1381 1569 
Q 847 1681 609 1914 
Q 372 2147 372 2553 
Q 372 3047 722 3315 
Q 1072 3584 1716 3584 
Q 2034 3584 2315 3537 
Q 2597 3491 2834 3397 
z
" transform="scale(0.015625)"/>
     </defs>
     <use xlink:href="#DejaVuSans-50"/>
     <use xlink:href="#DejaVuSans-6f" transform="translate(56.677734 0)"/>
     <use xlink:href="#DejaVuSans-70" transform="translate(117.859375 0)"/>
     <use xlink:href="#DejaVuSans-75" transform="translate(181.335938 0)"/>
     <use xlink:href="#DejaVuSans-6c" transform="translate(244.714844 0)"/>
     <use xlink:href="#DejaVuSans-61" transform="translate(272.498047 0)"/>
     <use xlink:href="#DejaVuSans-74" transform="translate(333.777344 0)"/>
     <use xlink:href="#DejaVuSans-69" transform="translate(372.986328 0)"/>
     <use xlink:href="#DejaVuSans-6f" transform="translate(400.769531 0)"/>
     <use xlink:href="#DejaVuSans-6e" transform="translate(461.951172 0)"/>
     <use xlink:href="#DejaVuSans-20" transform="translate(525.330078 0)"/>
     <use xlink:href="#DejaVuSans-54" transform="translate(557.117188 0)"/>
     <use xlink:href="#DejaVuSans-72" transform="translate(603.451172 0)"/>
     <use xlink:href="#DejaVuSans-61" transform="translate(644.564453 0)"/>
     <use xlink:href="#DejaVuSans-6a" transform="translate(705.84375 0)"/>
     <use xlink:href="#DejaVuSans-65" transform="translate(733.626953 0)"/>
     <use xlink:href="#DejaVuSans-63" transform="translate(795.150391 0)"/>
     <use xlink:href="#DejaVuSans-74" transform="translate(850.130859 0)"/>
     <use xlink:href="#DejaVuSans-6f" transform="translate(889.339844 0)"/>
     <use xlink:href="#DejaVuSans-72" transform="translate(950.521484 0)"/>
     <use xlink:href="#DejaVuSans-69" transform="translate(991.634766 0)"/>
     <use xlink:href="#DejaVuSans-65" transform="translate(1019.417969 0)"/>
     <use xlink:href="#DejaVuSans-73" transform="translate(1080.941406 0)"/>
    </g>
   </g>
  </g>
  <g id="axes_2">
   <g id="patch_7">
    <path d="M 466.726212 378.3375 
L 833.377423 378.3375 
L 833.377423 21.7575 
L 466.726212 21.7575 
z
" style="fill: #ffffff"/>
   </g>
   <g id="patch_8">
    <path d="M 483.392176 378.3375 
L 500.05814 378.3375 
L 500.05814 350.0375 
L 483.392176 350.0375 
z
" clip-path="url(#p931efdcc6f)" style="fill: #0c5da5"/>
   </g>
   <g id="patch_9">
    <path d="M 500.05814 378.3375 
L 516.724104 378.3375 
L 516.724104 378.3375 
L 500.05814 378.3375 
z
" clip-path="url(#p931efdcc6f)" style="fill: #0c5da5"/>
   </g>
   <g id="patch_10">
    <path d="M 516.724104 378.3375 
L 533.390068 378.3375 
L 533.390068 378.3375 
L 516.724104 378.3375 
z
" clip-path="url(#p931efdcc6f)" style="fill: #0c5da5"/>
   </g>
   <g id="patch_11">
    <path d="M 533.390068 378.3375 
L 550.056032 378.3375 
L 550.056032 378.3375 
L 533.390068 378.3375 
z
" clip-path="url(#p931efdcc6f)" style="fill: #0c5da5"/>
   </g>
   <g id="patch_12">
    <path d="M 550.056032 378.3375 
L 566.721997 378.3375 
L 566.721997 293.4375 
L 550.056032 293.4375 
z
" clip-path="url(#p931efdcc6f)" style="fill: #0c5da5"/>
   </g>
   <g id="patch_13">
    <path d="M 566.721997 378.3375 
L 583.387961 378.3375 
L 583.387961 265.1375 
L 566.721997 265.1375 
z
" clip-path="url(#p931efdcc6f)" style="fill: #0c5da5"/>
   </g>
   <g id="patch_14">
    <path d="M 583.387961 378.3375 
L 600.053925 378.3375 
L 600.053925 208.5375 
L 583.387961 208.5375 
z
" clip-path="url(#p931efdcc6f)" style="fill: #0c5da5"/>
   </g>
   <g id="patch_15">
    <path d="M 600.053925 378.3375 
L 616.719889 378.3375 
L 616.719889 67.0375 
L 600.053925 67.0375 
z
" clip-path="url(#p931efdcc6f)" style="fill: #0c5da5"/>
   </g>
   <g id="patch_16">
    <path d="M 616.719889 378.3375 
L 633.385853 378.3375 
L 633.385853 208.5375 
L 616.719889 208.5375 
z
" clip-path="url(#p931efdcc6f)" style="fill: #0c5da5"/>
   </g>
   <g id="patch_17">
    <path d="M 633.385853 378.3375 
L 650.051817 378.3375 
L 650.051817 95.3375 
L 633.385853 95.3375 
z
" clip-path="url(#p931efdcc6f)" style="fill: #0c5da5"/>
   </g>
   <g id="patch_18">
    <path d="M 650.051817 378.3375 
L 666.717782 378.3375 
L 666.717782 123.6375 
L 650.051817 123.6375 
z
" clip-path="url(#p931efdcc6f)" style="fill: #0c5da5"/>
   </g>
   <g id="patch_19">
    <path d="M 666.717782 378.3375 
L 683.383746 378.3375 
L 683.383746 95.3375 
L 666.717782 95.3375 
z
" clip-path="url(#p931efdcc6f)" style="fill: #0c5da5"/>
   </g>
   <g id="patch_20">
    <path d="M 683.383746 378.3375 
L 700.04971 378.3375 
L 700.04971 38.7375 
L 683.383746 38.7375 
z
" clip-path="url(#p931efdcc6f)" style="fill: #0c5da5"/>
   </g>
   <g id="patch_21">
    <path d="M 700.04971 378.3375 
L 716.715674 378.3375 
L 716.715674 180.2375 
L 700.04971 180.2375 
z
" clip-path="url(#p931efdcc6f)" style="fill: #0c5da5"/>
   </g>
   <g id="patch_22">
    <path d="M 716.715674 378.3375 
L 733.381638 378.3375 
L 733.381638 265.1375 
L 716.715674 265.1375 
z
" clip-path="url(#p931efdcc6f)" style="fill: #0c5da5"/>
   </g>
   <g id="patch_23">
    <path d="M 733.381638 378.3375 
L 750.047602 378.3375 
L 750.047602 265.1375 
L 733.381638 265.1375 
z
" clip-path="url(#p931efdcc6f)" style="fill: #0c5da5"/>
   </g>
   <g id="patch_24">
    <path d="M 750.047602 378.3375 
L 766.713567 378.3375 
L 766.713567 208.5375 
L 750.047602 208.5375 
z
" clip-path="url(#p931efdcc6f)" style="fill: #0c5da5"/>
   </g>
   <g id="patch_25">
    <path d="M 766.713567 378.3375 
L 783.379531 378.3375 
L 783.379531 293.4375 
L 766.713567 293.4375 
z
" clip-path="url(#p931efdcc6f)" style="fill: #0c5da5"/>
   </g>
   <g id="patch_26">
    <path d="M 783.379531 378.3375 
L 800.045495 378.3375 
L 800.045495 293.4375 
L 783.379531 293.4375 
z
" clip-path="url(#p931efdcc6f)" style="fill: #0c5da5"/>
   </g>
   <g id="patch_27">
    <path d="M 800.045495 378.3375 
L 816.711459 378.3375 
L 816.711459 350.0375 
L 800.045495 350.0375 
z
" clip-path="url(#p931efdcc6f)" style="fill: #0c5da5"/>
   </g>
   <g id="matplotlib.axis_3">
    <g id="xtick_34">
     <g id="line2d_152">
      <g>
       <use xlink:href="#m414798d666" x="543.210164" y="378.3375" style="stroke: #000000"/>
      </g>
     </g>
     <g id="line2d_153">
      <g>
       <use xlink:href="#m08d462ad2f" x="543.210164" y="21.7575" style="stroke: #000000"/>
      </g>
     </g>
     <g id="text_18">
      <!-- 300 -->
      <g transform="translate(527.940164 393.995) scale(0.16 -0.16)">
       <use xlink:href="#DejaVuSans-33"/>
       <use xlink:href="#DejaVuSans-30" transform="translate(63.623047 0)"/>
       <use xlink:href="#DejaVuSans-30" transform="translate(127.246094 0)"/>
      </g>
     </g>
    </g>
    <g id="xtick_35">
     <g id="line2d_154">
      <g>
       <use xlink:href="#m414798d666" x="639.228899" y="378.3375" style="stroke: #000000"/>
      </g>
     </g>
     <g id="line2d_155">
      <g>
       <use xlink:href="#m08d462ad2f" x="639.228899" y="21.7575" style="stroke: #000000"/>
      </g>
     </g>
     <g id="text_19">
      <!-- 310 -->
      <g transform="translate(623.958899 393.995) scale(0.16 -0.16)">
       <use xlink:href="#DejaVuSans-33"/>
       <use xlink:href="#DejaVuSans-31" transform="translate(63.623047 0)"/>
       <use xlink:href="#DejaVuSans-30" transform="translate(127.246094 0)"/>
      </g>
     </g>
    </g>
    <g id="xtick_36">
     <g id="line2d_156">
      <g>
       <use xlink:href="#m414798d666" x="735.247634" y="378.3375" style="stroke: #000000"/>
      </g>
     </g>
     <g id="line2d_157">
      <g>
       <use xlink:href="#m08d462ad2f" x="735.247634" y="21.7575" style="stroke: #000000"/>
      </g>
     </g>
     <g id="text_20">
      <!-- 320 -->
      <g transform="translate(719.977634 393.995) scale(0.16 -0.16)">
       <use xlink:href="#DejaVuSans-33"/>
       <use xlink:href="#DejaVuSans-32" transform="translate(63.623047 0)"/>
       <use xlink:href="#DejaVuSans-30" transform="translate(127.246094 0)"/>
      </g>
     </g>
    </g>
    <g id="xtick_37">
     <g id="line2d_158">
      <g>
       <use xlink:href="#m414798d666" x="831.266369" y="378.3375" style="stroke: #000000"/>
      </g>
     </g>
     <g id="line2d_159">
      <g>
       <use xlink:href="#m08d462ad2f" x="831.266369" y="21.7575" style="stroke: #000000"/>
      </g>
     </g>
     <g id="text_21">
      <!-- 330 -->
      <g transform="translate(815.996369 393.995) scale(0.16 -0.16)">
       <use xlink:href="#DejaVuSans-33"/>
       <use xlink:href="#DejaVuSans-33" transform="translate(63.623047 0)"/>
       <use xlink:href="#DejaVuSans-30" transform="translate(127.246094 0)"/>
      </g>
     </g>
    </g>
    <g id="xtick_38">
     <g id="line2d_160">
      <g>
       <use xlink:href="#mf64f4694be" x="485.598923" y="378.3375" style="stroke: #000000"/>
      </g>
     </g>
     <g id="line2d_161">
      <g>
       <use xlink:href="#m9510d12751" x="485.598923" y="21.7575" style="stroke: #000000"/>
      </g>
     </g>
    </g>
    <g id="xtick_39">
     <g id="line2d_162">
      <g>
       <use xlink:href="#mf64f4694be" x="504.80267" y="378.3375" style="stroke: #000000"/>
      </g>
     </g>
     <g id="line2d_163">
      <g>
       <use xlink:href="#m9510d12751" x="504.80267" y="21.7575" style="stroke: #000000"/>
      </g>
     </g>
    </g>
    <g id="xtick_40">
     <g id="line2d_164">
      <g>
       <use xlink:href="#mf64f4694be" x="524.006417" y="378.3375" style="stroke: #000000"/>
      </g>
     </g>
     <g id="line2d_165">
      <g>
       <use xlink:href="#m9510d12751" x="524.006417" y="21.7575" style="stroke: #000000"/>
      </g>
     </g>
    </g>
    <g id="xtick_41">
     <g id="line2d_166">
      <g>
       <use xlink:href="#mf64f4694be" x="562.413911" y="378.3375" style="stroke: #000000"/>
      </g>
     </g>
     <g id="line2d_167">
      <g>
       <use xlink:href="#m9510d12751" x="562.413911" y="21.7575" style="stroke: #000000"/>
      </g>
     </g>
    </g>
    <g id="xtick_42">
     <g id="line2d_168">
      <g>
       <use xlink:href="#mf64f4694be" x="581.617658" y="378.3375" style="stroke: #000000"/>
      </g>
     </g>
     <g id="line2d_169">
      <g>
       <use xlink:href="#m9510d12751" x="581.617658" y="21.7575" style="stroke: #000000"/>
      </g>
     </g>
    </g>
    <g id="xtick_43">
     <g id="line2d_170">
      <g>
       <use xlink:href="#mf64f4694be" x="600.821405" y="378.3375" style="stroke: #000000"/>
      </g>
     </g>
     <g id="line2d_171">
      <g>
       <use xlink:href="#m9510d12751" x="600.821405" y="21.7575" style="stroke: #000000"/>
      </g>
     </g>
    </g>
    <g id="xtick_44">
     <g id="line2d_172">
      <g>
       <use xlink:href="#mf64f4694be" x="620.025152" y="378.3375" style="stroke: #000000"/>
      </g>
     </g>
     <g id="line2d_173">
      <g>
       <use xlink:href="#m9510d12751" x="620.025152" y="21.7575" style="stroke: #000000"/>
      </g>
     </g>
    </g>
    <g id="xtick_45">
     <g id="line2d_174">
      <g>
       <use xlink:href="#mf64f4694be" x="658.432646" y="378.3375" style="stroke: #000000"/>
      </g>
     </g>
     <g id="line2d_175">
      <g>
       <use xlink:href="#m9510d12751" x="658.432646" y="21.7575" style="stroke: #000000"/>
      </g>
     </g>
    </g>
    <g id="xtick_46">
     <g id="line2d_176">
      <g>
       <use xlink:href="#mf64f4694be" x="677.636393" y="378.3375" style="stroke: #000000"/>
      </g>
     </g>
     <g id="line2d_177">
      <g>
       <use xlink:href="#m9510d12751" x="677.636393" y="21.7575" style="stroke: #000000"/>
      </g>
     </g>
    </g>
    <g id="xtick_47">
     <g id="line2d_178">
      <g>
       <use xlink:href="#mf64f4694be" x="696.84014" y="378.3375" style="stroke: #000000"/>
      </g>
     </g>
     <g id="line2d_179">
      <g>
       <use xlink:href="#m9510d12751" x="696.84014" y="21.7575" style="stroke: #000000"/>
      </g>
     </g>
    </g>
    <g id="xtick_48">
     <g id="line2d_180">
      <g>
       <use xlink:href="#mf64f4694be" x="716.043887" y="378.3375" style="stroke: #000000"/>
      </g>
     </g>
     <g id="line2d_181">
      <g>
       <use xlink:href="#m9510d12751" x="716.043887" y="21.7575" style="stroke: #000000"/>
      </g>
     </g>
    </g>
    <g id="xtick_49">
     <g id="line2d_182">
      <g>
       <use xlink:href="#mf64f4694be" x="754.451381" y="378.3375" style="stroke: #000000"/>
      </g>
     </g>
     <g id="line2d_183">
      <g>
       <use xlink:href="#m9510d12751" x="754.451381" y="21.7575" style="stroke: #000000"/>
      </g>
     </g>
    </g>
    <g id="xtick_50">
     <g id="line2d_184">
      <g>
       <use xlink:href="#mf64f4694be" x="773.655128" y="378.3375" style="stroke: #000000"/>
      </g>
     </g>
     <g id="line2d_185">
      <g>
       <use xlink:href="#m9510d12751" x="773.655128" y="21.7575" style="stroke: #000000"/>
      </g>
     </g>
    </g>
    <g id="xtick_51">
     <g id="line2d_186">
      <g>
       <use xlink:href="#mf64f4694be" x="792.858875" y="378.3375" style="stroke: #000000"/>
      </g>
     </g>
     <g id="line2d_187">
      <g>
       <use xlink:href="#m9510d12751" x="792.858875" y="21.7575" style="stroke: #000000"/>
      </g>
     </g>
    </g>
    <g id="xtick_52">
     <g id="line2d_188">
      <g>
       <use xlink:href="#mf64f4694be" x="812.062622" y="378.3375" style="stroke: #000000"/>
      </g>
     </g>
     <g id="line2d_189">
      <g>
       <use xlink:href="#m9510d12751" x="812.062622" y="21.7575" style="stroke: #000000"/>
      </g>
     </g>
    </g>
    <g id="text_22">
     <!-- Total Harvest -->
     <g transform="translate(597.658067 413.48) scale(0.16 -0.16)">
      <defs>
       <path id="DejaVuSans-48" d="M 628 4666 
L 1259 4666 
L 1259 2753 
L 3553 2753 
L 3553 4666 
L 4184 4666 
L 4184 0 
L 3553 0 
L 3553 2222 
L 1259 2222 
L 1259 0 
L 628 0 
L 628 4666 
z
" transform="scale(0.015625)"/>
       <path id="DejaVuSans-76" d="M 191 3500 
L 800 3500 
L 1894 563 
L 2988 3500 
L 3597 3500 
L 2284 0 
L 1503 0 
L 191 3500 
z
" transform="scale(0.015625)"/>
      </defs>
      <use xlink:href="#DejaVuSans-54"/>
      <use xlink:href="#DejaVuSans-6f" transform="translate(44.083984 0)"/>
      <use xlink:href="#DejaVuSans-74" transform="translate(105.265625 0)"/>
      <use xlink:href="#DejaVuSans-61" transform="translate(144.474609 0)"/>
      <use xlink:href="#DejaVuSans-6c" transform="translate(205.753906 0)"/>
      <use xlink:href="#DejaVuSans-20" transform="translate(233.537109 0)"/>
      <use xlink:href="#DejaVuSans-48" transform="translate(265.324219 0)"/>
      <use xlink:href="#DejaVuSans-61" transform="translate(340.519531 0)"/>
      <use xlink:href="#DejaVuSans-72" transform="translate(401.798828 0)"/>
      <use xlink:href="#DejaVuSans-76" transform="translate(442.912109 0)"/>
      <use xlink:href="#DejaVuSans-65" transform="translate(502.091797 0)"/>
      <use xlink:href="#DejaVuSans-73" transform="translate(563.615234 0)"/>
      <use xlink:href="#DejaVuSans-74" transform="translate(615.714844 0)"/>
     </g>
    </g>
   </g>
   <g id="matplotlib.axis_4">
    <g id="ytick_33">
     <g id="line2d_190">
      <g>
       <use xlink:href="#m3f2555870d" x="466.726212" y="378.3375" style="stroke: #000000"/>
      </g>
     </g>
     <g id="line2d_191">
      <g>
       <use xlink:href="#m18e4c7524e" x="833.377423" y="378.3375" style="stroke: #000000"/>
      </g>
     </g>
     <g id="text_23">
      <!-- 0 -->
      <g transform="translate(453.046212 384.41625) scale(0.16 -0.16)">
       <use xlink:href="#DejaVuSans-30"/>
      </g>
     </g>
    </g>
    <g id="ytick_34">
     <g id="line2d_192">
      <g>
       <use xlink:href="#m3f2555870d" x="466.726212" y="321.7375" style="stroke: #000000"/>
      </g>
     </g>
     <g id="line2d_193">
      <g>
       <use xlink:href="#m18e4c7524e" x="833.377423" y="321.7375" style="stroke: #000000"/>
      </g>
     </g>
     <g id="text_24">
      <!-- 2 -->
      <g transform="translate(453.046212 327.81625) scale(0.16 -0.16)">
       <use xlink:href="#DejaVuSans-32"/>
      </g>
     </g>
    </g>
    <g id="ytick_35">
     <g id="line2d_194">
      <g>
       <use xlink:href="#m3f2555870d" x="466.726212" y="265.1375" style="stroke: #000000"/>
      </g>
     </g>
     <g id="line2d_195">
      <g>
       <use xlink:href="#m18e4c7524e" x="833.377423" y="265.1375" style="stroke: #000000"/>
      </g>
     </g>
     <g id="text_25">
      <!-- 4 -->
      <g transform="translate(453.046212 271.21625) scale(0.16 -0.16)">
       <use xlink:href="#DejaVuSans-34"/>
      </g>
     </g>
    </g>
    <g id="ytick_36">
     <g id="line2d_196">
      <g>
       <use xlink:href="#m3f2555870d" x="466.726212" y="208.5375" style="stroke: #000000"/>
      </g>
     </g>
     <g id="line2d_197">
      <g>
       <use xlink:href="#m18e4c7524e" x="833.377423" y="208.5375" style="stroke: #000000"/>
      </g>
     </g>
     <g id="text_26">
      <!-- 6 -->
      <g transform="translate(453.046212 214.61625) scale(0.16 -0.16)">
       <use xlink:href="#DejaVuSans-36"/>
      </g>
     </g>
    </g>
    <g id="ytick_37">
     <g id="line2d_198">
      <g>
       <use xlink:href="#m3f2555870d" x="466.726212" y="151.9375" style="stroke: #000000"/>
      </g>
     </g>
     <g id="line2d_199">
      <g>
       <use xlink:href="#m18e4c7524e" x="833.377423" y="151.9375" style="stroke: #000000"/>
      </g>
     </g>
     <g id="text_27">
      <!-- 8 -->
      <g transform="translate(453.046212 158.01625) scale(0.16 -0.16)">
       <defs>
        <path id="DejaVuSans-38" d="M 2034 2216 
Q 1584 2216 1326 1975 
Q 1069 1734 1069 1313 
Q 1069 891 1326 650 
Q 1584 409 2034 409 
Q 2484 409 2743 651 
Q 3003 894 3003 1313 
Q 3003 1734 2745 1975 
Q 2488 2216 2034 2216 
z
M 1403 2484 
Q 997 2584 770 2862 
Q 544 3141 544 3541 
Q 544 4100 942 4425 
Q 1341 4750 2034 4750 
Q 2731 4750 3128 4425 
Q 3525 4100 3525 3541 
Q 3525 3141 3298 2862 
Q 3072 2584 2669 2484 
Q 3125 2378 3379 2068 
Q 3634 1759 3634 1313 
Q 3634 634 3220 271 
Q 2806 -91 2034 -91 
Q 1263 -91 848 271 
Q 434 634 434 1313 
Q 434 1759 690 2068 
Q 947 2378 1403 2484 
z
M 1172 3481 
Q 1172 3119 1398 2916 
Q 1625 2713 2034 2713 
Q 2441 2713 2670 2916 
Q 2900 3119 2900 3481 
Q 2900 3844 2670 4047 
Q 2441 4250 2034 4250 
Q 1625 4250 1398 4047 
Q 1172 3844 1172 3481 
z
" transform="scale(0.015625)"/>
       </defs>
       <use xlink:href="#DejaVuSans-38"/>
      </g>
     </g>
    </g>
    <g id="ytick_38">
     <g id="line2d_200">
      <g>
       <use xlink:href="#m3f2555870d" x="466.726212" y="95.3375" style="stroke: #000000"/>
      </g>
     </g>
     <g id="line2d_201">
      <g>
       <use xlink:href="#m18e4c7524e" x="833.377423" y="95.3375" style="stroke: #000000"/>
      </g>
     </g>
     <g id="text_28">
      <!-- 10 -->
      <g transform="translate(442.866212 101.41625) scale(0.16 -0.16)">
       <use xlink:href="#DejaVuSans-31"/>
       <use xlink:href="#DejaVuSans-30" transform="translate(63.623047 0)"/>
      </g>
     </g>
    </g>
    <g id="ytick_39">
     <g id="line2d_202">
      <g>
       <use xlink:href="#m3f2555870d" x="466.726212" y="38.7375" style="stroke: #000000"/>
      </g>
     </g>
     <g id="line2d_203">
      <g>
       <use xlink:href="#m18e4c7524e" x="833.377423" y="38.7375" style="stroke: #000000"/>
      </g>
     </g>
     <g id="text_29">
      <!-- 12 -->
      <g transform="translate(442.866212 44.81625) scale(0.16 -0.16)">
       <use xlink:href="#DejaVuSans-31"/>
       <use xlink:href="#DejaVuSans-32" transform="translate(63.623047 0)"/>
      </g>
     </g>
    </g>
    <g id="ytick_40">
     <g id="line2d_204">
      <g>
       <use xlink:href="#mcb1bb1a725" x="466.726212" y="364.1875" style="stroke: #000000"/>
      </g>
     </g>
     <g id="line2d_205">
      <g>
       <use xlink:href="#m6aff49e1b0" x="833.377423" y="364.1875" style="stroke: #000000"/>
      </g>
     </g>
    </g>
    <g id="ytick_41">
     <g id="line2d_206">
      <g>
       <use xlink:href="#mcb1bb1a725" x="466.726212" y="350.0375" style="stroke: #000000"/>
      </g>
     </g>
     <g id="line2d_207">
      <g>
       <use xlink:href="#m6aff49e1b0" x="833.377423" y="350.0375" style="stroke: #000000"/>
      </g>
     </g>
    </g>
    <g id="ytick_42">
     <g id="line2d_208">
      <g>
       <use xlink:href="#mcb1bb1a725" x="466.726212" y="335.8875" style="stroke: #000000"/>
      </g>
     </g>
     <g id="line2d_209">
      <g>
       <use xlink:href="#m6aff49e1b0" x="833.377423" y="335.8875" style="stroke: #000000"/>
      </g>
     </g>
    </g>
    <g id="ytick_43">
     <g id="line2d_210">
      <g>
       <use xlink:href="#mcb1bb1a725" x="466.726212" y="307.5875" style="stroke: #000000"/>
      </g>
     </g>
     <g id="line2d_211">
      <g>
       <use xlink:href="#m6aff49e1b0" x="833.377423" y="307.5875" style="stroke: #000000"/>
      </g>
     </g>
    </g>
    <g id="ytick_44">
     <g id="line2d_212">
      <g>
       <use xlink:href="#mcb1bb1a725" x="466.726212" y="293.4375" style="stroke: #000000"/>
      </g>
     </g>
     <g id="line2d_213">
      <g>
       <use xlink:href="#m6aff49e1b0" x="833.377423" y="293.4375" style="stroke: #000000"/>
      </g>
     </g>
    </g>
    <g id="ytick_45">
     <g id="line2d_214">
      <g>
       <use xlink:href="#mcb1bb1a725" x="466.726212" y="279.2875" style="stroke: #000000"/>
      </g>
     </g>
     <g id="line2d_215">
      <g>
       <use xlink:href="#m6aff49e1b0" x="833.377423" y="279.2875" style="stroke: #000000"/>
      </g>
     </g>
    </g>
    <g id="ytick_46">
     <g id="line2d_216">
      <g>
       <use xlink:href="#mcb1bb1a725" x="466.726212" y="250.9875" style="stroke: #000000"/>
      </g>
     </g>
     <g id="line2d_217">
      <g>
       <use xlink:href="#m6aff49e1b0" x="833.377423" y="250.9875" style="stroke: #000000"/>
      </g>
     </g>
    </g>
    <g id="ytick_47">
     <g id="line2d_218">
      <g>
       <use xlink:href="#mcb1bb1a725" x="466.726212" y="236.8375" style="stroke: #000000"/>
      </g>
     </g>
     <g id="line2d_219">
      <g>
       <use xlink:href="#m6aff49e1b0" x="833.377423" y="236.8375" style="stroke: #000000"/>
      </g>
     </g>
    </g>
    <g id="ytick_48">
     <g id="line2d_220">
      <g>
       <use xlink:href="#mcb1bb1a725" x="466.726212" y="222.6875" style="stroke: #000000"/>
      </g>
     </g>
     <g id="line2d_221">
      <g>
       <use xlink:href="#m6aff49e1b0" x="833.377423" y="222.6875" style="stroke: #000000"/>
      </g>
     </g>
    </g>
    <g id="ytick_49">
     <g id="line2d_222">
      <g>
       <use xlink:href="#mcb1bb1a725" x="466.726212" y="194.3875" style="stroke: #000000"/>
      </g>
     </g>
     <g id="line2d_223">
      <g>
       <use xlink:href="#m6aff49e1b0" x="833.377423" y="194.3875" style="stroke: #000000"/>
      </g>
     </g>
    </g>
    <g id="ytick_50">
     <g id="line2d_224">
      <g>
       <use xlink:href="#mcb1bb1a725" x="466.726212" y="180.2375" style="stroke: #000000"/>
      </g>
     </g>
     <g id="line2d_225">
      <g>
       <use xlink:href="#m6aff49e1b0" x="833.377423" y="180.2375" style="stroke: #000000"/>
      </g>
     </g>
    </g>
    <g id="ytick_51">
     <g id="line2d_226">
      <g>
       <use xlink:href="#mcb1bb1a725" x="466.726212" y="166.0875" style="stroke: #000000"/>
      </g>
     </g>
     <g id="line2d_227">
      <g>
       <use xlink:href="#m6aff49e1b0" x="833.377423" y="166.0875" style="stroke: #000000"/>
      </g>
     </g>
    </g>
    <g id="ytick_52">
     <g id="line2d_228">
      <g>
       <use xlink:href="#mcb1bb1a725" x="466.726212" y="137.7875" style="stroke: #000000"/>
      </g>
     </g>
     <g id="line2d_229">
      <g>
       <use xlink:href="#m6aff49e1b0" x="833.377423" y="137.7875" style="stroke: #000000"/>
      </g>
     </g>
    </g>
    <g id="ytick_53">
     <g id="line2d_230">
      <g>
       <use xlink:href="#mcb1bb1a725" x="466.726212" y="123.6375" style="stroke: #000000"/>
      </g>
     </g>
     <g id="line2d_231">
      <g>
       <use xlink:href="#m6aff49e1b0" x="833.377423" y="123.6375" style="stroke: #000000"/>
      </g>
     </g>
    </g>
    <g id="ytick_54">
     <g id="line2d_232">
      <g>
       <use xlink:href="#mcb1bb1a725" x="466.726212" y="109.4875" style="stroke: #000000"/>
      </g>
     </g>
     <g id="line2d_233">
      <g>
       <use xlink:href="#m6aff49e1b0" x="833.377423" y="109.4875" style="stroke: #000000"/>
      </g>
     </g>
    </g>
    <g id="ytick_55">
     <g id="line2d_234">
      <g>
       <use xlink:href="#mcb1bb1a725" x="466.726212" y="81.1875" style="stroke: #000000"/>
      </g>
     </g>
     <g id="line2d_235">
      <g>
       <use xlink:href="#m6aff49e1b0" x="833.377423" y="81.1875" style="stroke: #000000"/>
      </g>
     </g>
    </g>
    <g id="ytick_56">
     <g id="line2d_236">
      <g>
       <use xlink:href="#mcb1bb1a725" x="466.726212" y="67.0375" style="stroke: #000000"/>
      </g>
     </g>
     <g id="line2d_237">
      <g>
       <use xlink:href="#m6aff49e1b0" x="833.377423" y="67.0375" style="stroke: #000000"/>
      </g>
     </g>
    </g>
    <g id="ytick_57">
     <g id="line2d_238">
      <g>
       <use xlink:href="#mcb1bb1a725" x="466.726212" y="52.8875" style="stroke: #000000"/>
      </g>
     </g>
     <g id="line2d_239">
      <g>
       <use xlink:href="#m6aff49e1b0" x="833.377423" y="52.8875" style="stroke: #000000"/>
      </g>
     </g>
    </g>
    <g id="ytick_58">
     <g id="line2d_240">
      <g>
       <use xlink:href="#mcb1bb1a725" x="466.726212" y="24.5875" style="stroke: #000000"/>
      </g>
     </g>
     <g id="line2d_241">
      <g>
       <use xlink:href="#m6aff49e1b0" x="833.377423" y="24.5875" style="stroke: #000000"/>
      </g>
     </g>
    </g>
    <g id="text_30">
     <!-- Frequency -->
     <g transform="translate(435.538712 241.375) rotate(-90) scale(0.16 -0.16)">
      <defs>
       <path id="DejaVuSans-46" d="M 628 4666 
L 3309 4666 
L 3309 4134 
L 1259 4134 
L 1259 2759 
L 3109 2759 
L 3109 2228 
L 1259 2228 
L 1259 0 
L 628 0 
L 628 4666 
z
" transform="scale(0.015625)"/>
       <path id="DejaVuSans-71" d="M 947 1747 
Q 947 1113 1208 752 
Q 1469 391 1925 391 
Q 2381 391 2643 752 
Q 2906 1113 2906 1747 
Q 2906 2381 2643 2742 
Q 2381 3103 1925 3103 
Q 1469 3103 1208 2742 
Q 947 2381 947 1747 
z
M 2906 525 
Q 2725 213 2448 61 
Q 2172 -91 1784 -91 
Q 1150 -91 751 415 
Q 353 922 353 1747 
Q 353 2572 751 3078 
Q 1150 3584 1784 3584 
Q 2172 3584 2448 3432 
Q 2725 3281 2906 2969 
L 2906 3500 
L 3481 3500 
L 3481 -1331 
L 2906 -1331 
L 2906 525 
z
" transform="scale(0.015625)"/>
       <path id="DejaVuSans-79" d="M 2059 -325 
Q 1816 -950 1584 -1140 
Q 1353 -1331 966 -1331 
L 506 -1331 
L 506 -850 
L 844 -850 
Q 1081 -850 1212 -737 
Q 1344 -625 1503 -206 
L 1606 56 
L 191 3500 
L 800 3500 
L 1894 763 
L 2988 3500 
L 3597 3500 
L 2059 -325 
z
" transform="scale(0.015625)"/>
      </defs>
      <use xlink:href="#DejaVuSans-46"/>
      <use xlink:href="#DejaVuSans-72" transform="translate(50.269531 0)"/>
      <use xlink:href="#DejaVuSans-65" transform="translate(89.132812 0)"/>
      <use xlink:href="#DejaVuSans-71" transform="translate(150.65625 0)"/>
      <use xlink:href="#DejaVuSans-75" transform="translate(214.132812 0)"/>
      <use xlink:href="#DejaVuSans-65" transform="translate(277.511719 0)"/>
      <use xlink:href="#DejaVuSans-6e" transform="translate(339.035156 0)"/>
      <use xlink:href="#DejaVuSans-63" transform="translate(402.414062 0)"/>
      <use xlink:href="#DejaVuSans-79" transform="translate(457.394531 0)"/>
     </g>
    </g>
   </g>
   <g id="patch_28">
    <path d="M 466.726212 378.3375 
L 466.726212 21.7575 
" style="fill: none; stroke: #000000; stroke-linejoin: miter; stroke-linecap: square"/>
   </g>
   <g id="patch_29">
    <path d="M 833.377423 378.3375 
L 833.377423 21.7575 
" style="fill: none; stroke: #000000; stroke-linejoin: miter; stroke-linecap: square"/>
   </g>
   <g id="patch_30">
    <path d="M 466.726212 378.3375 
L 833.377423 378.3375 
" style="fill: none; stroke: #000000; stroke-linejoin: miter; stroke-linecap: square"/>
   </g>
   <g id="patch_31">
    <path d="M 466.726212 21.7575 
L 833.377423 21.7575 
" style="fill: none; stroke: #000000; stroke-linejoin: miter; stroke-linecap: square"/>
   </g>
   <g id="text_31">
    <!-- Distribution of Total Harvest -->
    <g transform="translate(538.191817 15.7575) scale(0.16 -0.16)">
     <defs>
      <path id="DejaVuSans-44" d="M 1259 4147 
L 1259 519 
L 2022 519 
Q 2988 519 3436 956 
Q 3884 1394 3884 2338 
Q 3884 3275 3436 3711 
Q 2988 4147 2022 4147 
L 1259 4147 
z
M 628 4666 
L 1925 4666 
Q 3281 4666 3915 4102 
Q 4550 3538 4550 2338 
Q 4550 1131 3912 565 
Q 3275 0 1925 0 
L 628 0 
L 628 4666 
z
" transform="scale(0.015625)"/>
      <path id="DejaVuSans-62" d="M 3116 1747 
Q 3116 2381 2855 2742 
Q 2594 3103 2138 3103 
Q 1681 3103 1420 2742 
Q 1159 2381 1159 1747 
Q 1159 1113 1420 752 
Q 1681 391 2138 391 
Q 2594 391 2855 752 
Q 3116 1113 3116 1747 
z
M 1159 2969 
Q 1341 3281 1617 3432 
Q 1894 3584 2278 3584 
Q 2916 3584 3314 3078 
Q 3713 2572 3713 1747 
Q 3713 922 3314 415 
Q 2916 -91 2278 -91 
Q 1894 -91 1617 61 
Q 1341 213 1159 525 
L 1159 0 
L 581 0 
L 581 4863 
L 1159 4863 
L 1159 2969 
z
" transform="scale(0.015625)"/>
      <path id="DejaVuSans-66" d="M 2375 4863 
L 2375 4384 
L 1825 4384 
Q 1516 4384 1395 4259 
Q 1275 4134 1275 3809 
L 1275 3500 
L 2222 3500 
L 2222 3053 
L 1275 3053 
L 1275 0 
L 697 0 
L 697 3053 
L 147 3053 
L 147 3500 
L 697 3500 
L 697 3744 
Q 697 4328 969 4595 
Q 1241 4863 1831 4863 
L 2375 4863 
z
" transform="scale(0.015625)"/>
     </defs>
     <use xlink:href="#DejaVuSans-44"/>
     <use xlink:href="#DejaVuSans-69" transform="translate(77.001953 0)"/>
     <use xlink:href="#DejaVuSans-73" transform="translate(104.785156 0)"/>
     <use xlink:href="#DejaVuSans-74" transform="translate(156.884766 0)"/>
     <use xlink:href="#DejaVuSans-72" transform="translate(196.09375 0)"/>
     <use xlink:href="#DejaVuSans-69" transform="translate(237.207031 0)"/>
     <use xlink:href="#DejaVuSans-62" transform="translate(264.990234 0)"/>
     <use xlink:href="#DejaVuSans-75" transform="translate(328.466797 0)"/>
     <use xlink:href="#DejaVuSans-74" transform="translate(391.845703 0)"/>
     <use xlink:href="#DejaVuSans-69" transform="translate(431.054688 0)"/>
     <use xlink:href="#DejaVuSans-6f" transform="translate(458.837891 0)"/>
     <use xlink:href="#DejaVuSans-6e" transform="translate(520.019531 0)"/>
     <use xlink:href="#DejaVuSans-20" transform="translate(583.398438 0)"/>
     <use xlink:href="#DejaVuSans-6f" transform="translate(615.185547 0)"/>
     <use xlink:href="#DejaVuSans-66" transform="translate(676.367188 0)"/>
     <use xlink:href="#DejaVuSans-20" transform="translate(711.572266 0)"/>
     <use xlink:href="#DejaVuSans-54" transform="translate(743.359375 0)"/>
     <use xlink:href="#DejaVuSans-6f" transform="translate(787.443359 0)"/>
     <use xlink:href="#DejaVuSans-74" transform="translate(848.625 0)"/>
     <use xlink:href="#DejaVuSans-61" transform="translate(887.833984 0)"/>
     <use xlink:href="#DejaVuSans-6c" transform="translate(949.113281 0)"/>
     <use xlink:href="#DejaVuSans-20" transform="translate(976.896484 0)"/>
     <use xlink:href="#DejaVuSans-48" transform="translate(1008.683594 0)"/>
     <use xlink:href="#DejaVuSans-61" transform="translate(1083.878906 0)"/>
     <use xlink:href="#DejaVuSans-72" transform="translate(1145.158203 0)"/>
     <use xlink:href="#DejaVuSans-76" transform="translate(1186.271484 0)"/>
     <use xlink:href="#DejaVuSans-65" transform="translate(1245.451172 0)"/>
     <use xlink:href="#DejaVuSans-73" transform="translate(1306.974609 0)"/>
     <use xlink:href="#DejaVuSans-74" transform="translate(1359.074219 0)"/>
    </g>
   </g>
  </g>
 </g>
 <defs>
  <clipPath id="pea6de9559a">
   <rect x="46.945" y="21.7575" width="366.651212" height="356.58"/>
  </clipPath>
  <clipPath id="p931efdcc6f">
   <rect x="466.726212" y="21.7575" width="366.651212" height="356.58"/>
  </clipPath>
 </defs>
</svg>
