<?xml version="1.0" encoding="utf-8" standalone="no"?>
<!DOCTYPE svg PUBLIC "-//W3C//DTD SVG 1.1//EN"
  "http://www.w3.org/Graphics/SVG/1.1/DTD/svg11.dtd">
<svg xmlns:xlink="http://www.w3.org/1999/xlink" width="701.495pt" height="852.08875pt" viewBox="0 0 701.495 852.08875" xmlns="http://www.w3.org/2000/svg" version="1.1">
 <metadata>
  <rdf:RDF xmlns:dc="http://purl.org/dc/elements/1.1/" xmlns:cc="http://creativecommons.org/ns#" xmlns:rdf="http://www.w3.org/1999/02/22-rdf-syntax-ns#">
   <cc:Work>
    <dc:type rdf:resource="http://purl.org/dc/dcmitype/StillImage"/>
    <dc:date>2025-11-19T22:56:31.295128</dc:date>
    <dc:format>image/svg+xml</dc:format>
    <dc:creator>
     <cc:Agent>
      <dc:title>Matplotlib v3.10.3, https://matplotlib.org/</dc:title>
     </cc:Agent>
    </dc:creator>
   </cc:Work>
  </rdf:RDF>
 </metadata>
 <defs>
  <style type="text/css">*{stroke-linejoin: round; stroke-linecap: butt}</style>
 </defs>
 <g id="figure_1">
  <g id="patch_1">
   <path d="M 0 852.08875 
L 701.495 852.08875 
L 701.495 0 
L 0 0 
z
" style="fill: #ffffff"/>
  </g>
  <g id="axes_1">
   <g id="patch_2">
    <path d="M 57.125 263.49875 
L 697.895 263.49875 
L 697.895 9.67875 
L 57.125 9.67875 
z
" style="fill: #ffffff"/>
   </g>
   <g id="matplotlib.axis_1">
    <g id="xtick_1">
     <g id="line2d_1">
      <defs>
       <path id="md0156b847e" d="M 0 0 
L 0 -6 
" style="stroke: #000000"/>
      </defs>
      <g>
       <use xlink:href="#md0156b847e" x="86.250909" y="263.49875" style="stroke: #000000"/>
      </g>
     </g>
     <g id="line2d_2">
      <defs>
       <path id="m4672a2eca5" d="M 0 0 
L 0 6 
" style="stroke: #000000"/>
      </defs>
      <g>
       <use xlink:href="#m4672a2eca5" x="86.250909" y="9.67875" style="stroke: #000000"/>
      </g>
     </g>
    </g>
    <g id="xtick_2">
     <g id="line2d_3">
      <g>
       <use xlink:href="#md0156b847e" x="183.337273" y="263.49875" style="stroke: #000000"/>
      </g>
     </g>
     <g id="line2d_4">
      <g>
       <use xlink:href="#m4672a2eca5" x="183.337273" y="9.67875" style="stroke: #000000"/>
      </g>
     </g>
    </g>
    <g id="xtick_3">
     <g id="line2d_5">
      <g>
       <use xlink:href="#md0156b847e" x="280.423636" y="263.49875" style="stroke: #000000"/>
      </g>
     </g>
     <g id="line2d_6">
      <g>
       <use xlink:href="#m4672a2eca5" x="280.423636" y="9.67875" style="stroke: #000000"/>
      </g>
     </g>
    </g>
    <g id="xtick_4">
     <g id="line2d_7">
      <g>
       <use xlink:href="#md0156b847e" x="377.51" y="263.49875" style="stroke: #000000"/>
      </g>
     </g>
     <g id="line2d_8">
      <g>
       <use xlink:href="#m4672a2eca5" x="377.51" y="9.67875" style="stroke: #000000"/>
      </g>
     </g>
    </g>
    <g id="xtick_5">
     <g id="line2d_9">
      <g>
       <use xlink:href="#md0156b847e" x="474.596364" y="263.49875" style="stroke: #000000"/>
      </g>
     </g>
     <g id="line2d_10">
      <g>
       <use xlink:href="#m4672a2eca5" x="474.596364" y="9.67875" style="stroke: #000000"/>
      </g>
     </g>
    </g>
    <g id="xtick_6">
     <g id="line2d_11">
      <g>
       <use xlink:href="#md0156b847e" x="571.682727" y="263.49875" style="stroke: #000000"/>
      </g>
     </g>
     <g id="line2d_12">
      <g>
       <use xlink:href="#m4672a2eca5" x="571.682727" y="9.67875" style="stroke: #000000"/>
      </g>
     </g>
    </g>
    <g id="xtick_7">
     <g id="line2d_13">
      <g>
       <use xlink:href="#md0156b847e" x="668.769091" y="263.49875" style="stroke: #000000"/>
      </g>
     </g>
     <g id="line2d_14">
      <g>
       <use xlink:href="#m4672a2eca5" x="668.769091" y="9.67875" style="stroke: #000000"/>
      </g>
     </g>
    </g>
    <g id="xtick_8">
     <g id="line2d_15">
      <defs>
       <path id="m3996026305" d="M 0 0 
L 0 -3 
" style="stroke: #000000"/>
      </defs>
      <g>
       <use xlink:href="#m3996026305" x="61.979318" y="263.49875" style="stroke: #000000"/>
      </g>
     </g>
     <g id="line2d_16">
      <defs>
       <path id="m1b49f3a403" d="M 0 0 
L 0 3 
" style="stroke: #000000"/>
      </defs>
      <g>
       <use xlink:href="#m1b49f3a403" x="61.979318" y="9.67875" style="stroke: #000000"/>
      </g>
     </g>
    </g>
    <g id="xtick_9">
     <g id="line2d_17">
      <g>
       <use xlink:href="#m3996026305" x="110.5225" y="263.49875" style="stroke: #000000"/>
      </g>
     </g>
     <g id="line2d_18">
      <g>
       <use xlink:href="#m1b49f3a403" x="110.5225" y="9.67875" style="stroke: #000000"/>
      </g>
     </g>
    </g>
    <g id="xtick_10">
     <g id="line2d_19">
      <g>
       <use xlink:href="#m3996026305" x="134.794091" y="263.49875" style="stroke: #000000"/>
      </g>
     </g>
     <g id="line2d_20">
      <g>
       <use xlink:href="#m1b49f3a403" x="134.794091" y="9.67875" style="stroke: #000000"/>
      </g>
     </g>
    </g>
    <g id="xtick_11">
     <g id="line2d_21">
      <g>
       <use xlink:href="#m3996026305" x="159.065682" y="263.49875" style="stroke: #000000"/>
      </g>
     </g>
     <g id="line2d_22">
      <g>
       <use xlink:href="#m1b49f3a403" x="159.065682" y="9.67875" style="stroke: #000000"/>
      </g>
     </g>
    </g>
    <g id="xtick_12">
     <g id="line2d_23">
      <g>
       <use xlink:href="#m3996026305" x="207.608864" y="263.49875" style="stroke: #000000"/>
      </g>
     </g>
     <g id="line2d_24">
      <g>
       <use xlink:href="#m1b49f3a403" x="207.608864" y="9.67875" style="stroke: #000000"/>
      </g>
     </g>
    </g>
    <g id="xtick_13">
     <g id="line2d_25">
      <g>
       <use xlink:href="#m3996026305" x="231.880455" y="263.49875" style="stroke: #000000"/>
      </g>
     </g>
     <g id="line2d_26">
      <g>
       <use xlink:href="#m1b49f3a403" x="231.880455" y="9.67875" style="stroke: #000000"/>
      </g>
     </g>
    </g>
    <g id="xtick_14">
     <g id="line2d_27">
      <g>
       <use xlink:href="#m3996026305" x="256.152045" y="263.49875" style="stroke: #000000"/>
      </g>
     </g>
     <g id="line2d_28">
      <g>
       <use xlink:href="#m1b49f3a403" x="256.152045" y="9.67875" style="stroke: #000000"/>
      </g>
     </g>
    </g>
    <g id="xtick_15">
     <g id="line2d_29">
      <g>
       <use xlink:href="#m3996026305" x="304.695227" y="263.49875" style="stroke: #000000"/>
      </g>
     </g>
     <g id="line2d_30">
      <g>
       <use xlink:href="#m1b49f3a403" x="304.695227" y="9.67875" style="stroke: #000000"/>
      </g>
     </g>
    </g>
    <g id="xtick_16">
     <g id="line2d_31">
      <g>
       <use xlink:href="#m3996026305" x="328.966818" y="263.49875" style="stroke: #000000"/>
      </g>
     </g>
     <g id="line2d_32">
      <g>
       <use xlink:href="#m1b49f3a403" x="328.966818" y="9.67875" style="stroke: #000000"/>
      </g>
     </g>
    </g>
    <g id="xtick_17">
     <g id="line2d_33">
      <g>
       <use xlink:href="#m3996026305" x="353.238409" y="263.49875" style="stroke: #000000"/>
      </g>
     </g>
     <g id="line2d_34">
      <g>
       <use xlink:href="#m1b49f3a403" x="353.238409" y="9.67875" style="stroke: #000000"/>
      </g>
     </g>
    </g>
    <g id="xtick_18">
     <g id="line2d_35">
      <g>
       <use xlink:href="#m3996026305" x="401.781591" y="263.49875" style="stroke: #000000"/>
      </g>
     </g>
     <g id="line2d_36">
      <g>
       <use xlink:href="#m1b49f3a403" x="401.781591" y="9.67875" style="stroke: #000000"/>
      </g>
     </g>
    </g>
    <g id="xtick_19">
     <g id="line2d_37">
      <g>
       <use xlink:href="#m3996026305" x="426.053182" y="263.49875" style="stroke: #000000"/>
      </g>
     </g>
     <g id="line2d_38">
      <g>
       <use xlink:href="#m1b49f3a403" x="426.053182" y="9.67875" style="stroke: #000000"/>
      </g>
     </g>
    </g>
    <g id="xtick_20">
     <g id="line2d_39">
      <g>
       <use xlink:href="#m3996026305" x="450.324773" y="263.49875" style="stroke: #000000"/>
      </g>
     </g>
     <g id="line2d_40">
      <g>
       <use xlink:href="#m1b49f3a403" x="450.324773" y="9.67875" style="stroke: #000000"/>
      </g>
     </g>
    </g>
    <g id="xtick_21">
     <g id="line2d_41">
      <g>
       <use xlink:href="#m3996026305" x="498.867955" y="263.49875" style="stroke: #000000"/>
      </g>
     </g>
     <g id="line2d_42">
      <g>
       <use xlink:href="#m1b49f3a403" x="498.867955" y="9.67875" style="stroke: #000000"/>
      </g>
     </g>
    </g>
    <g id="xtick_22">
     <g id="line2d_43">
      <g>
       <use xlink:href="#m3996026305" x="523.139545" y="263.49875" style="stroke: #000000"/>
      </g>
     </g>
     <g id="line2d_44">
      <g>
       <use xlink:href="#m1b49f3a403" x="523.139545" y="9.67875" style="stroke: #000000"/>
      </g>
     </g>
    </g>
    <g id="xtick_23">
     <g id="line2d_45">
      <g>
       <use xlink:href="#m3996026305" x="547.411136" y="263.49875" style="stroke: #000000"/>
      </g>
     </g>
     <g id="line2d_46">
      <g>
       <use xlink:href="#m1b49f3a403" x="547.411136" y="9.67875" style="stroke: #000000"/>
      </g>
     </g>
    </g>
    <g id="xtick_24">
     <g id="line2d_47">
      <g>
       <use xlink:href="#m3996026305" x="595.954318" y="263.49875" style="stroke: #000000"/>
      </g>
     </g>
     <g id="line2d_48">
      <g>
       <use xlink:href="#m1b49f3a403" x="595.954318" y="9.67875" style="stroke: #000000"/>
      </g>
     </g>
    </g>
    <g id="xtick_25">
     <g id="line2d_49">
      <g>
       <use xlink:href="#m3996026305" x="620.225909" y="263.49875" style="stroke: #000000"/>
      </g>
     </g>
     <g id="line2d_50">
      <g>
       <use xlink:href="#m1b49f3a403" x="620.225909" y="9.67875" style="stroke: #000000"/>
      </g>
     </g>
    </g>
    <g id="xtick_26">
     <g id="line2d_51">
      <g>
       <use xlink:href="#m3996026305" x="644.4975" y="263.49875" style="stroke: #000000"/>
      </g>
     </g>
     <g id="line2d_52">
      <g>
       <use xlink:href="#m1b49f3a403" x="644.4975" y="9.67875" style="stroke: #000000"/>
      </g>
     </g>
    </g>
    <g id="xtick_27">
     <g id="line2d_53">
      <g>
       <use xlink:href="#m3996026305" x="693.040682" y="263.49875" style="stroke: #000000"/>
      </g>
     </g>
     <g id="line2d_54">
      <g>
       <use xlink:href="#m1b49f3a403" x="693.040682" y="9.67875" style="stroke: #000000"/>
      </g>
     </g>
    </g>
   </g>
   <g id="matplotlib.axis_2">
    <g id="ytick_1">
     <g id="line2d_55">
      <defs>
       <path id="m3ef0b659c9" d="M 0 0 
L 6 0 
" style="stroke: #000000"/>
      </defs>
      <g>
       <use xlink:href="#m3ef0b659c9" x="57.125" y="263.49875" style="stroke: #000000"/>
      </g>
     </g>
     <g id="line2d_56">
      <defs>
       <path id="m764da6e9e5" d="M 0 0 
L -6 0 
" style="stroke: #000000"/>
      </defs>
      <g>
       <use xlink:href="#m764da6e9e5" x="697.895" y="263.49875" style="stroke: #000000"/>
      </g>
     </g>
     <g id="text_1">
      <!-- 0 -->
      <g transform="translate(43.445 269.5775) scale(0.16 -0.16)">
       <defs>
        <path id="DejaVuSans-30" d="M 2034 4250 
Q 1547 4250 1301 3770 
Q 1056 3291 1056 2328 
Q 1056 1369 1301 889 
Q 1547 409 2034 409 
Q 2525 409 2770 889 
Q 3016 1369 3016 2328 
Q 3016 3291 2770 3770 
Q 2525 4250 2034 4250 
z
M 2034 4750 
Q 2819 4750 3233 4129 
Q 3647 3509 3647 2328 
Q 3647 1150 3233 529 
Q 2819 -91 2034 -91 
Q 1250 -91 836 529 
Q 422 1150 422 2328 
Q 422 3509 836 4129 
Q 1250 4750 2034 4750 
z
" transform="scale(0.015625)"/>
       </defs>
       <use xlink:href="#DejaVuSans-30"/>
      </g>
     </g>
    </g>
    <g id="ytick_2">
     <g id="line2d_57">
      <g>
       <use xlink:href="#m3ef0b659c9" x="57.125" y="212.73475" style="stroke: #000000"/>
      </g>
     </g>
     <g id="line2d_58">
      <g>
       <use xlink:href="#m764da6e9e5" x="697.895" y="212.73475" style="stroke: #000000"/>
      </g>
     </g>
     <g id="text_2">
      <!-- 20 -->
      <g transform="translate(33.265 218.8135) scale(0.16 -0.16)">
       <defs>
        <path id="DejaVuSans-32" d="M 1228 531 
L 3431 531 
L 3431 0 
L 469 0 
L 469 531 
Q 828 903 1448 1529 
Q 2069 2156 2228 2338 
Q 2531 2678 2651 2914 
Q 2772 3150 2772 3378 
Q 2772 3750 2511 3984 
Q 2250 4219 1831 4219 
Q 1534 4219 1204 4116 
Q 875 4013 500 3803 
L 500 4441 
Q 881 4594 1212 4672 
Q 1544 4750 1819 4750 
Q 2544 4750 2975 4387 
Q 3406 4025 3406 3419 
Q 3406 3131 3298 2873 
Q 3191 2616 2906 2266 
Q 2828 2175 2409 1742 
Q 1991 1309 1228 531 
z
" transform="scale(0.015625)"/>
       </defs>
       <use xlink:href="#DejaVuSans-32"/>
       <use xlink:href="#DejaVuSans-30" transform="translate(63.623047 0)"/>
      </g>
     </g>
    </g>
    <g id="ytick_3">
     <g id="line2d_59">
      <g>
       <use xlink:href="#m3ef0b659c9" x="57.125" y="161.97075" style="stroke: #000000"/>
      </g>
     </g>
     <g id="line2d_60">
      <g>
       <use xlink:href="#m764da6e9e5" x="697.895" y="161.97075" style="stroke: #000000"/>
      </g>
     </g>
     <g id="text_3">
      <!-- 40 -->
      <g transform="translate(33.265 168.0495) scale(0.16 -0.16)">
       <defs>
        <path id="DejaVuSans-34" d="M 2419 4116 
L 825 1625 
L 2419 1625 
L 2419 4116 
z
M 2253 4666 
L 3047 4666 
L 3047 1625 
L 3713 1625 
L 3713 1100 
L 3047 1100 
L 3047 0 
L 2419 0 
L 2419 1100 
L 313 1100 
L 313 1709 
L 2253 4666 
z
" transform="scale(0.015625)"/>
       </defs>
       <use xlink:href="#DejaVuSans-34"/>
       <use xlink:href="#DejaVuSans-30" transform="translate(63.623047 0)"/>
      </g>
     </g>
    </g>
    <g id="ytick_4">
     <g id="line2d_61">
      <g>
       <use xlink:href="#m3ef0b659c9" x="57.125" y="111.20675" style="stroke: #000000"/>
      </g>
     </g>
     <g id="line2d_62">
      <g>
       <use xlink:href="#m764da6e9e5" x="697.895" y="111.20675" style="stroke: #000000"/>
      </g>
     </g>
     <g id="text_4">
      <!-- 60 -->
      <g transform="translate(33.265 117.2855) scale(0.16 -0.16)">
       <defs>
        <path id="DejaVuSans-36" d="M 2113 2584 
Q 1688 2584 1439 2293 
Q 1191 2003 1191 1497 
Q 1191 994 1439 701 
Q 1688 409 2113 409 
Q 2538 409 2786 701 
Q 3034 994 3034 1497 
Q 3034 2003 2786 2293 
Q 2538 2584 2113 2584 
z
M 3366 4563 
L 3366 3988 
Q 3128 4100 2886 4159 
Q 2644 4219 2406 4219 
Q 1781 4219 1451 3797 
Q 1122 3375 1075 2522 
Q 1259 2794 1537 2939 
Q 1816 3084 2150 3084 
Q 2853 3084 3261 2657 
Q 3669 2231 3669 1497 
Q 3669 778 3244 343 
Q 2819 -91 2113 -91 
Q 1303 -91 875 529 
Q 447 1150 447 2328 
Q 447 3434 972 4092 
Q 1497 4750 2381 4750 
Q 2619 4750 2861 4703 
Q 3103 4656 3366 4563 
z
" transform="scale(0.015625)"/>
       </defs>
       <use xlink:href="#DejaVuSans-36"/>
       <use xlink:href="#DejaVuSans-30" transform="translate(63.623047 0)"/>
      </g>
     </g>
    </g>
    <g id="ytick_5">
     <g id="line2d_63">
      <g>
       <use xlink:href="#m3ef0b659c9" x="57.125" y="60.44275" style="stroke: #000000"/>
      </g>
     </g>
     <g id="line2d_64">
      <g>
       <use xlink:href="#m764da6e9e5" x="697.895" y="60.44275" style="stroke: #000000"/>
      </g>
     </g>
     <g id="text_5">
      <!-- 80 -->
      <g transform="translate(33.265 66.5215) scale(0.16 -0.16)">
       <defs>
        <path id="DejaVuSans-38" d="M 2034 2216 
Q 1584 2216 1326 1975 
Q 1069 1734 1069 1313 
Q 1069 891 1326 650 
Q 1584 409 2034 409 
Q 2484 409 2743 651 
Q 3003 894 3003 1313 
Q 3003 1734 2745 1975 
Q 2488 2216 2034 2216 
z
M 1403 2484 
Q 997 2584 770 2862 
Q 544 3141 544 3541 
Q 544 4100 942 4425 
Q 1341 4750 2034 4750 
Q 2731 4750 3128 4425 
Q 3525 4100 3525 3541 
Q 3525 3141 3298 2862 
Q 3072 2584 2669 2484 
Q 3125 2378 3379 2068 
Q 3634 1759 3634 1313 
Q 3634 634 3220 271 
Q 2806 -91 2034 -91 
Q 1263 -91 848 271 
Q 434 634 434 1313 
Q 434 1759 690 2068 
Q 947 2378 1403 2484 
z
M 1172 3481 
Q 1172 3119 1398 2916 
Q 1625 2713 2034 2713 
Q 2441 2713 2670 2916 
Q 2900 3119 2900 3481 
Q 2900 3844 2670 4047 
Q 2441 4250 2034 4250 
Q 1625 4250 1398 4047 
Q 1172 3844 1172 3481 
z
" transform="scale(0.015625)"/>
       </defs>
       <use xlink:href="#DejaVuSans-38"/>
       <use xlink:href="#DejaVuSans-30" transform="translate(63.623047 0)"/>
      </g>
     </g>
    </g>
    <g id="ytick_6">
     <g id="line2d_65">
      <g>
       <use xlink:href="#m3ef0b659c9" x="57.125" y="9.67875" style="stroke: #000000"/>
      </g>
     </g>
     <g id="line2d_66">
      <g>
       <use xlink:href="#m764da6e9e5" x="697.895" y="9.67875" style="stroke: #000000"/>
      </g>
     </g>
     <g id="text_6">
      <!-- 100 -->
      <g transform="translate(23.085 15.7575) scale(0.16 -0.16)">
       <defs>
        <path id="DejaVuSans-31" d="M 794 531 
L 1825 531 
L 1825 4091 
L 703 3866 
L 703 4441 
L 1819 4666 
L 2450 4666 
L 2450 531 
L 3481 531 
L 3481 0 
L 794 0 
L 794 531 
z
" transform="scale(0.015625)"/>
       </defs>
       <use xlink:href="#DejaVuSans-31"/>
       <use xlink:href="#DejaVuSans-30" transform="translate(63.623047 0)"/>
       <use xlink:href="#DejaVuSans-30" transform="translate(127.246094 0)"/>
      </g>
     </g>
    </g>
    <g id="ytick_7">
     <g id="line2d_67">
      <defs>
       <path id="m96f2f248ec" d="M 0 0 
L 3 0 
" style="stroke: #000000"/>
      </defs>
      <g>
       <use xlink:href="#m96f2f248ec" x="57.125" y="250.80775" style="stroke: #000000"/>
      </g>
     </g>
     <g id="line2d_68">
      <defs>
       <path id="m0c12b337a1" d="M 0 0 
L -3 0 
" style="stroke: #000000"/>
      </defs>
      <g>
       <use xlink:href="#m0c12b337a1" x="697.895" y="250.80775" style="stroke: #000000"/>
      </g>
     </g>
    </g>
    <g id="ytick_8">
     <g id="line2d_69">
      <g>
       <use xlink:href="#m96f2f248ec" x="57.125" y="238.11675" style="stroke: #000000"/>
      </g>
     </g>
     <g id="line2d_70">
      <g>
       <use xlink:href="#m0c12b337a1" x="697.895" y="238.11675" style="stroke: #000000"/>
      </g>
     </g>
    </g>
    <g id="ytick_9">
     <g id="line2d_71">
      <g>
       <use xlink:href="#m96f2f248ec" x="57.125" y="225.42575" style="stroke: #000000"/>
      </g>
     </g>
     <g id="line2d_72">
      <g>
       <use xlink:href="#m0c12b337a1" x="697.895" y="225.42575" style="stroke: #000000"/>
      </g>
     </g>
    </g>
    <g id="ytick_10">
     <g id="line2d_73">
      <g>
       <use xlink:href="#m96f2f248ec" x="57.125" y="200.04375" style="stroke: #000000"/>
      </g>
     </g>
     <g id="line2d_74">
      <g>
       <use xlink:href="#m0c12b337a1" x="697.895" y="200.04375" style="stroke: #000000"/>
      </g>
     </g>
    </g>
    <g id="ytick_11">
     <g id="line2d_75">
      <g>
       <use xlink:href="#m96f2f248ec" x="57.125" y="187.35275" style="stroke: #000000"/>
      </g>
     </g>
     <g id="line2d_76">
      <g>
       <use xlink:href="#m0c12b337a1" x="697.895" y="187.35275" style="stroke: #000000"/>
      </g>
     </g>
    </g>
    <g id="ytick_12">
     <g id="line2d_77">
      <g>
       <use xlink:href="#m96f2f248ec" x="57.125" y="174.66175" style="stroke: #000000"/>
      </g>
     </g>
     <g id="line2d_78">
      <g>
       <use xlink:href="#m0c12b337a1" x="697.895" y="174.66175" style="stroke: #000000"/>
      </g>
     </g>
    </g>
    <g id="ytick_13">
     <g id="line2d_79">
      <g>
       <use xlink:href="#m96f2f248ec" x="57.125" y="149.27975" style="stroke: #000000"/>
      </g>
     </g>
     <g id="line2d_80">
      <g>
       <use xlink:href="#m0c12b337a1" x="697.895" y="149.27975" style="stroke: #000000"/>
      </g>
     </g>
    </g>
    <g id="ytick_14">
     <g id="line2d_81">
      <g>
       <use xlink:href="#m96f2f248ec" x="57.125" y="136.58875" style="stroke: #000000"/>
      </g>
     </g>
     <g id="line2d_82">
      <g>
       <use xlink:href="#m0c12b337a1" x="697.895" y="136.58875" style="stroke: #000000"/>
      </g>
     </g>
    </g>
    <g id="ytick_15">
     <g id="line2d_83">
      <g>
       <use xlink:href="#m96f2f248ec" x="57.125" y="123.89775" style="stroke: #000000"/>
      </g>
     </g>
     <g id="line2d_84">
      <g>
       <use xlink:href="#m0c12b337a1" x="697.895" y="123.89775" style="stroke: #000000"/>
      </g>
     </g>
    </g>
    <g id="ytick_16">
     <g id="line2d_85">
      <g>
       <use xlink:href="#m96f2f248ec" x="57.125" y="98.51575" style="stroke: #000000"/>
      </g>
     </g>
     <g id="line2d_86">
      <g>
       <use xlink:href="#m0c12b337a1" x="697.895" y="98.51575" style="stroke: #000000"/>
      </g>
     </g>
    </g>
    <g id="ytick_17">
     <g id="line2d_87">
      <g>
       <use xlink:href="#m96f2f248ec" x="57.125" y="85.82475" style="stroke: #000000"/>
      </g>
     </g>
     <g id="line2d_88">
      <g>
       <use xlink:href="#m0c12b337a1" x="697.895" y="85.82475" style="stroke: #000000"/>
      </g>
     </g>
    </g>
    <g id="ytick_18">
     <g id="line2d_89">
      <g>
       <use xlink:href="#m96f2f248ec" x="57.125" y="73.13375" style="stroke: #000000"/>
      </g>
     </g>
     <g id="line2d_90">
      <g>
       <use xlink:href="#m0c12b337a1" x="697.895" y="73.13375" style="stroke: #000000"/>
      </g>
     </g>
    </g>
    <g id="ytick_19">
     <g id="line2d_91">
      <g>
       <use xlink:href="#m96f2f248ec" x="57.125" y="47.75175" style="stroke: #000000"/>
      </g>
     </g>
     <g id="line2d_92">
      <g>
       <use xlink:href="#m0c12b337a1" x="697.895" y="47.75175" style="stroke: #000000"/>
      </g>
     </g>
    </g>
    <g id="ytick_20">
     <g id="line2d_93">
      <g>
       <use xlink:href="#m96f2f248ec" x="57.125" y="35.06075" style="stroke: #000000"/>
      </g>
     </g>
     <g id="line2d_94">
      <g>
       <use xlink:href="#m0c12b337a1" x="697.895" y="35.06075" style="stroke: #000000"/>
      </g>
     </g>
    </g>
    <g id="ytick_21">
     <g id="line2d_95">
      <g>
       <use xlink:href="#m96f2f248ec" x="57.125" y="22.36975" style="stroke: #000000"/>
      </g>
     </g>
     <g id="line2d_96">
      <g>
       <use xlink:href="#m0c12b337a1" x="697.895" y="22.36975" style="stroke: #000000"/>
      </g>
     </g>
    </g>
    <g id="text_7">
     <!-- BIS -->
     <g transform="translate(15.7575 149.51625) rotate(-90) scale(0.16 -0.16)">
      <defs>
       <path id="DejaVuSans-42" d="M 1259 2228 
L 1259 519 
L 2272 519 
Q 2781 519 3026 730 
Q 3272 941 3272 1375 
Q 3272 1813 3026 2020 
Q 2781 2228 2272 2228 
L 1259 2228 
z
M 1259 4147 
L 1259 2741 
L 2194 2741 
Q 2656 2741 2882 2914 
Q 3109 3088 3109 3444 
Q 3109 3797 2882 3972 
Q 2656 4147 2194 4147 
L 1259 4147 
z
M 628 4666 
L 2241 4666 
Q 2963 4666 3353 4366 
Q 3744 4066 3744 3513 
Q 3744 3084 3544 2831 
Q 3344 2578 2956 2516 
Q 3422 2416 3680 2098 
Q 3938 1781 3938 1306 
Q 3938 681 3513 340 
Q 3088 0 2303 0 
L 628 0 
L 628 4666 
z
" transform="scale(0.015625)"/>
       <path id="DejaVuSans-49" d="M 628 4666 
L 1259 4666 
L 1259 0 
L 628 0 
L 628 4666 
z
" transform="scale(0.015625)"/>
       <path id="DejaVuSans-53" d="M 3425 4513 
L 3425 3897 
Q 3066 4069 2747 4153 
Q 2428 4238 2131 4238 
Q 1616 4238 1336 4038 
Q 1056 3838 1056 3469 
Q 1056 3159 1242 3001 
Q 1428 2844 1947 2747 
L 2328 2669 
Q 3034 2534 3370 2195 
Q 3706 1856 3706 1288 
Q 3706 609 3251 259 
Q 2797 -91 1919 -91 
Q 1588 -91 1214 -16 
Q 841 59 441 206 
L 441 856 
Q 825 641 1194 531 
Q 1563 422 1919 422 
Q 2459 422 2753 634 
Q 3047 847 3047 1241 
Q 3047 1584 2836 1778 
Q 2625 1972 2144 2069 
L 1759 2144 
Q 1053 2284 737 2584 
Q 422 2884 422 3419 
Q 422 4038 858 4394 
Q 1294 4750 2059 4750 
Q 2388 4750 2728 4690 
Q 3069 4631 3425 4513 
z
" transform="scale(0.015625)"/>
      </defs>
      <use xlink:href="#DejaVuSans-42"/>
      <use xlink:href="#DejaVuSans-49" transform="translate(68.603516 0)"/>
      <use xlink:href="#DejaVuSans-53" transform="translate(98.095703 0)"/>
     </g>
    </g>
   </g>
   <g id="line2d_97">
    <path d="M 86.250909 9.67875 
L 88.678068 11.047863 
L 91.105227 24.690027 
L 93.532386 57.112975 
L 95.959545 95.990874 
L 98.386705 129.060294 
L 100.813864 136.277378 
L 105.668182 136.214735 
L 108.095341 136.41624 
L 110.5225 136.126945 
L 117.803977 136.480638 
L 120.231136 135.714101 
L 122.658295 135.704475 
L 125.085455 136.671187 
L 129.939773 136.008491 
L 132.366932 136.324522 
L 134.794091 136.266084 
L 137.22125 136.542992 
L 139.648409 136.00523 
L 142.075568 136.262677 
L 144.502727 136.376733 
L 146.929886 135.776223 
L 149.357045 136.84851 
L 151.784205 136.110208 
L 154.211364 136.880133 
L 159.065682 136.595465 
L 163.92 135.722289 
L 166.347159 135.551332 
L 168.774318 136.208433 
L 171.201477 136.409027 
L 173.628636 136.147861 
L 176.055795 136.137812 
L 178.482955 135.994386 
L 180.910114 136.209688 
L 183.337273 136.100597 
L 185.764432 136.15941 
L 188.191591 136.58134 
L 190.61875 136.594648 
L 193.045909 136.301427 
L 195.473068 135.424964 
L 197.900227 136.006975 
L 200.327386 136.460829 
L 202.754545 136.142266 
L 205.181705 136.238139 
L 207.608864 136.554751 
L 210.036023 136.239175 
L 212.463182 136.323279 
L 214.890341 135.98281 
L 219.744659 136.219611 
L 222.171818 136.445944 
L 224.598977 136.302371 
L 227.026136 136.784998 
L 229.453295 135.644073 
L 231.880455 135.478559 
L 234.307614 136.171055 
L 236.734773 136.234083 
L 239.161932 136.666043 
L 246.443409 136.159829 
L 248.870568 136.561257 
L 251.297727 136.300749 
L 253.724886 136.344374 
L 256.152045 136.67302 
L 258.579205 136.075728 
L 261.006364 135.884436 
L 265.860682 136.49764 
L 270.715 135.880137 
L 273.142159 136.007751 
L 275.569318 136.258982 
L 280.423636 136.579018 
L 285.277955 136.804859 
L 287.705114 136.435329 
L 290.132273 135.664797 
L 292.559432 135.939023 
L 294.986591 135.86977 
L 297.41375 136.679888 
L 299.840909 136.503124 
L 302.268068 136.69281 
L 304.695227 136.621316 
L 307.122386 135.926326 
L 309.549545 135.82624 
L 311.976705 135.999087 
L 314.403864 136.573861 
L 316.831023 136.697688 
L 319.258182 136.312209 
L 321.685341 135.784868 
L 324.1125 136.214677 
L 326.539659 136.273764 
L 328.966818 136.155069 
L 331.393977 135.837707 
L 336.248295 136.585645 
L 338.675455 136.557747 
L 343.529773 135.915776 
L 345.956932 135.867822 
L 348.384091 136.262579 
L 353.238409 136.175655 
L 355.665568 136.427203 
L 358.092727 136.239233 
L 360.519886 136.286709 
L 362.947045 135.919971 
L 365.374205 135.964176 
L 367.801364 135.879783 
L 370.228523 136.016765 
L 372.655682 136.020091 
L 377.51 136.796726 
L 379.937159 136.815783 
L 384.791477 137.126668 
L 387.218636 136.642983 
L 389.645795 135.287652 
L 392.072955 135.900884 
L 394.500114 136.21983 
L 396.927273 136.027928 
L 399.354432 137.099563 
L 401.781591 136.281037 
L 404.20875 135.896626 
L 406.635909 136.140662 
L 409.063068 136.522039 
L 411.490227 136.060515 
L 418.771705 136.590711 
L 421.198864 136.28173 
L 428.480341 136.561078 
L 430.9075 136.501975 
L 433.334659 136.730779 
L 435.761818 136.245614 
L 438.188977 137.002431 
L 440.616136 136.544472 
L 443.043295 136.233884 
L 445.470455 136.334072 
L 447.897614 136.92812 
L 450.324773 137.135548 
L 452.751932 136.590738 
L 455.179091 136.357832 
L 457.60625 136.922074 
L 460.033409 136.011642 
L 462.460568 135.95541 
L 464.887727 136.595498 
L 467.314886 136.74593 
L 469.742045 136.295699 
L 472.169205 136.190425 
L 477.023523 136.522392 
L 479.450682 136.144379 
L 481.877841 135.91063 
L 484.305 136.287127 
L 491.586477 136.378688 
L 494.013636 136.503442 
L 496.440795 136.219047 
L 501.295114 136.471886 
L 503.722273 135.925778 
L 506.149432 136.484385 
L 508.576591 136.149873 
L 511.00375 136.20719 
L 513.430909 136.52449 
L 515.858068 136.294459 
L 518.285227 136.311208 
L 520.712386 136.011694 
L 523.139545 135.825648 
L 525.566705 135.844099 
L 527.993864 136.036708 
L 530.421023 136.022175 
L 532.848182 136.156083 
L 535.275341 136.512518 
L 537.7025 136.59026 
L 542.556818 135.970419 
L 544.983977 136.312125 
L 547.411136 136.254608 
L 549.838295 136.608444 
L 552.265455 136.51426 
L 554.692614 135.95317 
L 557.119773 136.018519 
L 559.546932 135.962172 
L 561.974091 136.61223 
L 564.40125 136.070175 
L 566.828409 136.766013 
L 569.255568 136.032547 
L 574.109886 135.704 
L 576.537045 135.779975 
L 578.964205 136.283677 
L 581.391364 136.158888 
L 583.818523 136.489486 
L 586.245682 136.69052 
L 588.672841 136.163874 
L 591.1 135.942238 
L 593.527159 136.386982 
L 598.381477 136.881294 
L 600.808636 136.910694 
L 603.235795 136.507096 
L 605.662955 136.242334 
L 608.090114 136.232814 
L 610.517273 135.970511 
L 612.944432 136.642982 
L 615.371591 136.278351 
L 617.79875 136.596269 
L 620.225909 136.589349 
L 622.653068 136.36115 
L 625.080227 136.571116 
L 627.507386 136.104218 
L 629.934545 136.138867 
L 632.361705 136.551332 
L 634.788864 136.624681 
L 637.216023 136.447639 
L 639.643182 136.599853 
L 642.070341 136.159914 
L 644.4975 136.062928 
L 646.924659 136.571165 
L 649.351818 136.555474 
L 651.778977 136.84529 
L 654.206136 136.189506 
L 656.633295 136.461852 
L 659.060455 136.075812 
L 661.487614 136.379751 
L 663.914773 135.88774 
L 666.341932 135.766736 
L 668.769091 135.766736 
L 668.769091 135.766736 
" clip-path="url(#pf6e797c754)" style="fill: none; stroke: #0c5da5; stroke-width: 2; stroke-linecap: square"/>
   </g>
   <g id="line2d_98">
    <path d="M 57.125 136.58875 
L 697.895 136.58875 
" clip-path="url(#pf6e797c754)" style="fill: none; stroke-dasharray: 7.4,3.2; stroke-dashoffset: 0; stroke: #ff0000; stroke-width: 2"/>
   </g>
   <g id="patch_3">
    <path d="M 57.125 263.49875 
L 57.125 9.67875 
" style="fill: none; stroke: #000000; stroke-linejoin: miter; stroke-linecap: square"/>
   </g>
   <g id="patch_4">
    <path d="M 697.895 263.49875 
L 697.895 9.67875 
" style="fill: none; stroke: #000000; stroke-linejoin: miter; stroke-linecap: square"/>
   </g>
   <g id="patch_5">
    <path d="M 57.125 263.49875 
L 697.895 263.49875 
" style="fill: none; stroke: #000000; stroke-linejoin: miter; stroke-linecap: square"/>
   </g>
   <g id="patch_6">
    <path d="M 57.125 9.67875 
L 697.895 9.67875 
" style="fill: none; stroke: #000000; stroke-linejoin: miter; stroke-linecap: square"/>
   </g>
  </g>
  <g id="axes_2">
   <g id="patch_7">
    <path d="M 57.125 536.75875 
L 697.895 536.75875 
L 697.895 282.93875 
L 57.125 282.93875 
z
" style="fill: #ffffff"/>
   </g>
   <g id="matplotlib.axis_3">
    <g id="xtick_28">
     <g id="line2d_99">
      <g>
       <use xlink:href="#md0156b847e" x="86.250909" y="536.75875" style="stroke: #000000"/>
      </g>
     </g>
     <g id="line2d_100">
      <g>
       <use xlink:href="#m4672a2eca5" x="86.250909" y="282.93875" style="stroke: #000000"/>
      </g>
     </g>
    </g>
    <g id="xtick_29">
     <g id="line2d_101">
      <g>
       <use xlink:href="#md0156b847e" x="183.337273" y="536.75875" style="stroke: #000000"/>
      </g>
     </g>
     <g id="line2d_102">
      <g>
       <use xlink:href="#m4672a2eca5" x="183.337273" y="282.93875" style="stroke: #000000"/>
      </g>
     </g>
    </g>
    <g id="xtick_30">
     <g id="line2d_103">
      <g>
       <use xlink:href="#md0156b847e" x="280.423636" y="536.75875" style="stroke: #000000"/>
      </g>
     </g>
     <g id="line2d_104">
      <g>
       <use xlink:href="#m4672a2eca5" x="280.423636" y="282.93875" style="stroke: #000000"/>
      </g>
     </g>
    </g>
    <g id="xtick_31">
     <g id="line2d_105">
      <g>
       <use xlink:href="#md0156b847e" x="377.51" y="536.75875" style="stroke: #000000"/>
      </g>
     </g>
     <g id="line2d_106">
      <g>
       <use xlink:href="#m4672a2eca5" x="377.51" y="282.93875" style="stroke: #000000"/>
      </g>
     </g>
    </g>
    <g id="xtick_32">
     <g id="line2d_107">
      <g>
       <use xlink:href="#md0156b847e" x="474.596364" y="536.75875" style="stroke: #000000"/>
      </g>
     </g>
     <g id="line2d_108">
      <g>
       <use xlink:href="#m4672a2eca5" x="474.596364" y="282.93875" style="stroke: #000000"/>
      </g>
     </g>
    </g>
    <g id="xtick_33">
     <g id="line2d_109">
      <g>
       <use xlink:href="#md0156b847e" x="571.682727" y="536.75875" style="stroke: #000000"/>
      </g>
     </g>
     <g id="line2d_110">
      <g>
       <use xlink:href="#m4672a2eca5" x="571.682727" y="282.93875" style="stroke: #000000"/>
      </g>
     </g>
    </g>
    <g id="xtick_34">
     <g id="line2d_111">
      <g>
       <use xlink:href="#md0156b847e" x="668.769091" y="536.75875" style="stroke: #000000"/>
      </g>
     </g>
     <g id="line2d_112">
      <g>
       <use xlink:href="#m4672a2eca5" x="668.769091" y="282.93875" style="stroke: #000000"/>
      </g>
     </g>
    </g>
    <g id="xtick_35">
     <g id="line2d_113">
      <g>
       <use xlink:href="#m3996026305" x="61.979318" y="536.75875" style="stroke: #000000"/>
      </g>
     </g>
     <g id="line2d_114">
      <g>
       <use xlink:href="#m1b49f3a403" x="61.979318" y="282.93875" style="stroke: #000000"/>
      </g>
     </g>
    </g>
    <g id="xtick_36">
     <g id="line2d_115">
      <g>
       <use xlink:href="#m3996026305" x="110.5225" y="536.75875" style="stroke: #000000"/>
      </g>
     </g>
     <g id="line2d_116">
      <g>
       <use xlink:href="#m1b49f3a403" x="110.5225" y="282.93875" style="stroke: #000000"/>
      </g>
     </g>
    </g>
    <g id="xtick_37">
     <g id="line2d_117">
      <g>
       <use xlink:href="#m3996026305" x="134.794091" y="536.75875" style="stroke: #000000"/>
      </g>
     </g>
     <g id="line2d_118">
      <g>
       <use xlink:href="#m1b49f3a403" x="134.794091" y="282.93875" style="stroke: #000000"/>
      </g>
     </g>
    </g>
    <g id="xtick_38">
     <g id="line2d_119">
      <g>
       <use xlink:href="#m3996026305" x="159.065682" y="536.75875" style="stroke: #000000"/>
      </g>
     </g>
     <g id="line2d_120">
      <g>
       <use xlink:href="#m1b49f3a403" x="159.065682" y="282.93875" style="stroke: #000000"/>
      </g>
     </g>
    </g>
    <g id="xtick_39">
     <g id="line2d_121">
      <g>
       <use xlink:href="#m3996026305" x="207.608864" y="536.75875" style="stroke: #000000"/>
      </g>
     </g>
     <g id="line2d_122">
      <g>
       <use xlink:href="#m1b49f3a403" x="207.608864" y="282.93875" style="stroke: #000000"/>
      </g>
     </g>
    </g>
    <g id="xtick_40">
     <g id="line2d_123">
      <g>
       <use xlink:href="#m3996026305" x="231.880455" y="536.75875" style="stroke: #000000"/>
      </g>
     </g>
     <g id="line2d_124">
      <g>
       <use xlink:href="#m1b49f3a403" x="231.880455" y="282.93875" style="stroke: #000000"/>
      </g>
     </g>
    </g>
    <g id="xtick_41">
     <g id="line2d_125">
      <g>
       <use xlink:href="#m3996026305" x="256.152045" y="536.75875" style="stroke: #000000"/>
      </g>
     </g>
     <g id="line2d_126">
      <g>
       <use xlink:href="#m1b49f3a403" x="256.152045" y="282.93875" style="stroke: #000000"/>
      </g>
     </g>
    </g>
    <g id="xtick_42">
     <g id="line2d_127">
      <g>
       <use xlink:href="#m3996026305" x="304.695227" y="536.75875" style="stroke: #000000"/>
      </g>
     </g>
     <g id="line2d_128">
      <g>
       <use xlink:href="#m1b49f3a403" x="304.695227" y="282.93875" style="stroke: #000000"/>
      </g>
     </g>
    </g>
    <g id="xtick_43">
     <g id="line2d_129">
      <g>
       <use xlink:href="#m3996026305" x="328.966818" y="536.75875" style="stroke: #000000"/>
      </g>
     </g>
     <g id="line2d_130">
      <g>
       <use xlink:href="#m1b49f3a403" x="328.966818" y="282.93875" style="stroke: #000000"/>
      </g>
     </g>
    </g>
    <g id="xtick_44">
     <g id="line2d_131">
      <g>
       <use xlink:href="#m3996026305" x="353.238409" y="536.75875" style="stroke: #000000"/>
      </g>
     </g>
     <g id="line2d_132">
      <g>
       <use xlink:href="#m1b49f3a403" x="353.238409" y="282.93875" style="stroke: #000000"/>
      </g>
     </g>
    </g>
    <g id="xtick_45">
     <g id="line2d_133">
      <g>
       <use xlink:href="#m3996026305" x="401.781591" y="536.75875" style="stroke: #000000"/>
      </g>
     </g>
     <g id="line2d_134">
      <g>
       <use xlink:href="#m1b49f3a403" x="401.781591" y="282.93875" style="stroke: #000000"/>
      </g>
     </g>
    </g>
    <g id="xtick_46">
     <g id="line2d_135">
      <g>
       <use xlink:href="#m3996026305" x="426.053182" y="536.75875" style="stroke: #000000"/>
      </g>
     </g>
     <g id="line2d_136">
      <g>
       <use xlink:href="#m1b49f3a403" x="426.053182" y="282.93875" style="stroke: #000000"/>
      </g>
     </g>
    </g>
    <g id="xtick_47">
     <g id="line2d_137">
      <g>
       <use xlink:href="#m3996026305" x="450.324773" y="536.75875" style="stroke: #000000"/>
      </g>
     </g>
     <g id="line2d_138">
      <g>
       <use xlink:href="#m1b49f3a403" x="450.324773" y="282.93875" style="stroke: #000000"/>
      </g>
     </g>
    </g>
    <g id="xtick_48">
     <g id="line2d_139">
      <g>
       <use xlink:href="#m3996026305" x="498.867955" y="536.75875" style="stroke: #000000"/>
      </g>
     </g>
     <g id="line2d_140">
      <g>
       <use xlink:href="#m1b49f3a403" x="498.867955" y="282.93875" style="stroke: #000000"/>
      </g>
     </g>
    </g>
    <g id="xtick_49">
     <g id="line2d_141">
      <g>
       <use xlink:href="#m3996026305" x="523.139545" y="536.75875" style="stroke: #000000"/>
      </g>
     </g>
     <g id="line2d_142">
      <g>
       <use xlink:href="#m1b49f3a403" x="523.139545" y="282.93875" style="stroke: #000000"/>
      </g>
     </g>
    </g>
    <g id="xtick_50">
     <g id="line2d_143">
      <g>
       <use xlink:href="#m3996026305" x="547.411136" y="536.75875" style="stroke: #000000"/>
      </g>
     </g>
     <g id="line2d_144">
      <g>
       <use xlink:href="#m1b49f3a403" x="547.411136" y="282.93875" style="stroke: #000000"/>
      </g>
     </g>
    </g>
    <g id="xtick_51">
     <g id="line2d_145">
      <g>
       <use xlink:href="#m3996026305" x="595.954318" y="536.75875" style="stroke: #000000"/>
      </g>
     </g>
     <g id="line2d_146">
      <g>
       <use xlink:href="#m1b49f3a403" x="595.954318" y="282.93875" style="stroke: #000000"/>
      </g>
     </g>
    </g>
    <g id="xtick_52">
     <g id="line2d_147">
      <g>
       <use xlink:href="#m3996026305" x="620.225909" y="536.75875" style="stroke: #000000"/>
      </g>
     </g>
     <g id="line2d_148">
      <g>
       <use xlink:href="#m1b49f3a403" x="620.225909" y="282.93875" style="stroke: #000000"/>
      </g>
     </g>
    </g>
    <g id="xtick_53">
     <g id="line2d_149">
      <g>
       <use xlink:href="#m3996026305" x="644.4975" y="536.75875" style="stroke: #000000"/>
      </g>
     </g>
     <g id="line2d_150">
      <g>
       <use xlink:href="#m1b49f3a403" x="644.4975" y="282.93875" style="stroke: #000000"/>
      </g>
     </g>
    </g>
    <g id="xtick_54">
     <g id="line2d_151">
      <g>
       <use xlink:href="#m3996026305" x="693.040682" y="536.75875" style="stroke: #000000"/>
      </g>
     </g>
     <g id="line2d_152">
      <g>
       <use xlink:href="#m1b49f3a403" x="693.040682" y="282.93875" style="stroke: #000000"/>
      </g>
     </g>
    </g>
   </g>
   <g id="matplotlib.axis_4">
    <g id="ytick_22">
     <g id="line2d_153">
      <g>
       <use xlink:href="#m3ef0b659c9" x="57.125" y="514.455864" style="stroke: #000000"/>
      </g>
     </g>
     <g id="line2d_154">
      <g>
       <use xlink:href="#m764da6e9e5" x="697.895" y="514.455864" style="stroke: #000000"/>
      </g>
     </g>
     <g id="text_8">
      <!-- 8 -->
      <g transform="translate(43.445 520.534614) scale(0.16 -0.16)">
       <use xlink:href="#DejaVuSans-38"/>
      </g>
     </g>
    </g>
    <g id="ytick_23">
     <g id="line2d_155">
      <g>
       <use xlink:href="#m3ef0b659c9" x="57.125" y="477.792557" style="stroke: #000000"/>
      </g>
     </g>
     <g id="line2d_156">
      <g>
       <use xlink:href="#m764da6e9e5" x="697.895" y="477.792557" style="stroke: #000000"/>
      </g>
     </g>
     <g id="text_9">
      <!-- 10 -->
      <g transform="translate(33.265 483.871307) scale(0.16 -0.16)">
       <use xlink:href="#DejaVuSans-31"/>
       <use xlink:href="#DejaVuSans-30" transform="translate(63.623047 0)"/>
      </g>
     </g>
    </g>
    <g id="ytick_24">
     <g id="line2d_157">
      <g>
       <use xlink:href="#m3ef0b659c9" x="57.125" y="441.12925" style="stroke: #000000"/>
      </g>
     </g>
     <g id="line2d_158">
      <g>
       <use xlink:href="#m764da6e9e5" x="697.895" y="441.12925" style="stroke: #000000"/>
      </g>
     </g>
     <g id="text_10">
      <!-- 12 -->
      <g transform="translate(33.265 447.208) scale(0.16 -0.16)">
       <use xlink:href="#DejaVuSans-31"/>
       <use xlink:href="#DejaVuSans-32" transform="translate(63.623047 0)"/>
      </g>
     </g>
    </g>
    <g id="ytick_25">
     <g id="line2d_159">
      <g>
       <use xlink:href="#m3ef0b659c9" x="57.125" y="404.465943" style="stroke: #000000"/>
      </g>
     </g>
     <g id="line2d_160">
      <g>
       <use xlink:href="#m764da6e9e5" x="697.895" y="404.465943" style="stroke: #000000"/>
      </g>
     </g>
     <g id="text_11">
      <!-- 14 -->
      <g transform="translate(33.265 410.544693) scale(0.16 -0.16)">
       <use xlink:href="#DejaVuSans-31"/>
       <use xlink:href="#DejaVuSans-34" transform="translate(63.623047 0)"/>
      </g>
     </g>
    </g>
    <g id="ytick_26">
     <g id="line2d_161">
      <g>
       <use xlink:href="#m3ef0b659c9" x="57.125" y="367.802637" style="stroke: #000000"/>
      </g>
     </g>
     <g id="line2d_162">
      <g>
       <use xlink:href="#m764da6e9e5" x="697.895" y="367.802637" style="stroke: #000000"/>
      </g>
     </g>
     <g id="text_12">
      <!-- 16 -->
      <g transform="translate(33.265 373.881387) scale(0.16 -0.16)">
       <use xlink:href="#DejaVuSans-31"/>
       <use xlink:href="#DejaVuSans-36" transform="translate(63.623047 0)"/>
      </g>
     </g>
    </g>
    <g id="ytick_27">
     <g id="line2d_163">
      <g>
       <use xlink:href="#m3ef0b659c9" x="57.125" y="331.13933" style="stroke: #000000"/>
      </g>
     </g>
     <g id="line2d_164">
      <g>
       <use xlink:href="#m764da6e9e5" x="697.895" y="331.13933" style="stroke: #000000"/>
      </g>
     </g>
     <g id="text_13">
      <!-- 18 -->
      <g transform="translate(33.265 337.21808) scale(0.16 -0.16)">
       <use xlink:href="#DejaVuSans-31"/>
       <use xlink:href="#DejaVuSans-38" transform="translate(63.623047 0)"/>
      </g>
     </g>
    </g>
    <g id="ytick_28">
     <g id="line2d_165">
      <g>
       <use xlink:href="#m3ef0b659c9" x="57.125" y="294.476023" style="stroke: #000000"/>
      </g>
     </g>
     <g id="line2d_166">
      <g>
       <use xlink:href="#m764da6e9e5" x="697.895" y="294.476023" style="stroke: #000000"/>
      </g>
     </g>
     <g id="text_14">
      <!-- 20 -->
      <g transform="translate(33.265 300.554773) scale(0.16 -0.16)">
       <use xlink:href="#DejaVuSans-32"/>
       <use xlink:href="#DejaVuSans-30" transform="translate(63.623047 0)"/>
      </g>
     </g>
    </g>
    <g id="ytick_29">
     <g id="line2d_167">
      <g>
       <use xlink:href="#m96f2f248ec" x="57.125" y="532.787518" style="stroke: #000000"/>
      </g>
     </g>
     <g id="line2d_168">
      <g>
       <use xlink:href="#m0c12b337a1" x="697.895" y="532.787518" style="stroke: #000000"/>
      </g>
     </g>
    </g>
    <g id="ytick_30">
     <g id="line2d_169">
      <g>
       <use xlink:href="#m96f2f248ec" x="57.125" y="523.621691" style="stroke: #000000"/>
      </g>
     </g>
     <g id="line2d_170">
      <g>
       <use xlink:href="#m0c12b337a1" x="697.895" y="523.621691" style="stroke: #000000"/>
      </g>
     </g>
    </g>
    <g id="ytick_31">
     <g id="line2d_171">
      <g>
       <use xlink:href="#m96f2f248ec" x="57.125" y="505.290038" style="stroke: #000000"/>
      </g>
     </g>
     <g id="line2d_172">
      <g>
       <use xlink:href="#m0c12b337a1" x="697.895" y="505.290038" style="stroke: #000000"/>
      </g>
     </g>
    </g>
    <g id="ytick_32">
     <g id="line2d_173">
      <g>
       <use xlink:href="#m96f2f248ec" x="57.125" y="496.124211" style="stroke: #000000"/>
      </g>
     </g>
     <g id="line2d_174">
      <g>
       <use xlink:href="#m0c12b337a1" x="697.895" y="496.124211" style="stroke: #000000"/>
      </g>
     </g>
    </g>
    <g id="ytick_33">
     <g id="line2d_175">
      <g>
       <use xlink:href="#m96f2f248ec" x="57.125" y="486.958384" style="stroke: #000000"/>
      </g>
     </g>
     <g id="line2d_176">
      <g>
       <use xlink:href="#m0c12b337a1" x="697.895" y="486.958384" style="stroke: #000000"/>
      </g>
     </g>
    </g>
    <g id="ytick_34">
     <g id="line2d_177">
      <g>
       <use xlink:href="#m96f2f248ec" x="57.125" y="468.626731" style="stroke: #000000"/>
      </g>
     </g>
     <g id="line2d_178">
      <g>
       <use xlink:href="#m0c12b337a1" x="697.895" y="468.626731" style="stroke: #000000"/>
      </g>
     </g>
    </g>
    <g id="ytick_35">
     <g id="line2d_179">
      <g>
       <use xlink:href="#m96f2f248ec" x="57.125" y="459.460904" style="stroke: #000000"/>
      </g>
     </g>
     <g id="line2d_180">
      <g>
       <use xlink:href="#m0c12b337a1" x="697.895" y="459.460904" style="stroke: #000000"/>
      </g>
     </g>
    </g>
    <g id="ytick_36">
     <g id="line2d_181">
      <g>
       <use xlink:href="#m96f2f248ec" x="57.125" y="450.295077" style="stroke: #000000"/>
      </g>
     </g>
     <g id="line2d_182">
      <g>
       <use xlink:href="#m0c12b337a1" x="697.895" y="450.295077" style="stroke: #000000"/>
      </g>
     </g>
    </g>
    <g id="ytick_37">
     <g id="line2d_183">
      <g>
       <use xlink:href="#m96f2f248ec" x="57.125" y="431.963424" style="stroke: #000000"/>
      </g>
     </g>
     <g id="line2d_184">
      <g>
       <use xlink:href="#m0c12b337a1" x="697.895" y="431.963424" style="stroke: #000000"/>
      </g>
     </g>
    </g>
    <g id="ytick_38">
     <g id="line2d_185">
      <g>
       <use xlink:href="#m96f2f248ec" x="57.125" y="422.797597" style="stroke: #000000"/>
      </g>
     </g>
     <g id="line2d_186">
      <g>
       <use xlink:href="#m0c12b337a1" x="697.895" y="422.797597" style="stroke: #000000"/>
      </g>
     </g>
    </g>
    <g id="ytick_39">
     <g id="line2d_187">
      <g>
       <use xlink:href="#m96f2f248ec" x="57.125" y="413.63177" style="stroke: #000000"/>
      </g>
     </g>
     <g id="line2d_188">
      <g>
       <use xlink:href="#m0c12b337a1" x="697.895" y="413.63177" style="stroke: #000000"/>
      </g>
     </g>
    </g>
    <g id="ytick_40">
     <g id="line2d_189">
      <g>
       <use xlink:href="#m96f2f248ec" x="57.125" y="395.300117" style="stroke: #000000"/>
      </g>
     </g>
     <g id="line2d_190">
      <g>
       <use xlink:href="#m0c12b337a1" x="697.895" y="395.300117" style="stroke: #000000"/>
      </g>
     </g>
    </g>
    <g id="ytick_41">
     <g id="line2d_191">
      <g>
       <use xlink:href="#m96f2f248ec" x="57.125" y="386.13429" style="stroke: #000000"/>
      </g>
     </g>
     <g id="line2d_192">
      <g>
       <use xlink:href="#m0c12b337a1" x="697.895" y="386.13429" style="stroke: #000000"/>
      </g>
     </g>
    </g>
    <g id="ytick_42">
     <g id="line2d_193">
      <g>
       <use xlink:href="#m96f2f248ec" x="57.125" y="376.968463" style="stroke: #000000"/>
      </g>
     </g>
     <g id="line2d_194">
      <g>
       <use xlink:href="#m0c12b337a1" x="697.895" y="376.968463" style="stroke: #000000"/>
      </g>
     </g>
    </g>
    <g id="ytick_43">
     <g id="line2d_195">
      <g>
       <use xlink:href="#m96f2f248ec" x="57.125" y="358.63681" style="stroke: #000000"/>
      </g>
     </g>
     <g id="line2d_196">
      <g>
       <use xlink:href="#m0c12b337a1" x="697.895" y="358.63681" style="stroke: #000000"/>
      </g>
     </g>
    </g>
    <g id="ytick_44">
     <g id="line2d_197">
      <g>
       <use xlink:href="#m96f2f248ec" x="57.125" y="349.470983" style="stroke: #000000"/>
      </g>
     </g>
     <g id="line2d_198">
      <g>
       <use xlink:href="#m0c12b337a1" x="697.895" y="349.470983" style="stroke: #000000"/>
      </g>
     </g>
    </g>
    <g id="ytick_45">
     <g id="line2d_199">
      <g>
       <use xlink:href="#m96f2f248ec" x="57.125" y="340.305156" style="stroke: #000000"/>
      </g>
     </g>
     <g id="line2d_200">
      <g>
       <use xlink:href="#m0c12b337a1" x="697.895" y="340.305156" style="stroke: #000000"/>
      </g>
     </g>
    </g>
    <g id="ytick_46">
     <g id="line2d_201">
      <g>
       <use xlink:href="#m96f2f248ec" x="57.125" y="321.973503" style="stroke: #000000"/>
      </g>
     </g>
     <g id="line2d_202">
      <g>
       <use xlink:href="#m0c12b337a1" x="697.895" y="321.973503" style="stroke: #000000"/>
      </g>
     </g>
    </g>
    <g id="ytick_47">
     <g id="line2d_203">
      <g>
       <use xlink:href="#m96f2f248ec" x="57.125" y="312.807676" style="stroke: #000000"/>
      </g>
     </g>
     <g id="line2d_204">
      <g>
       <use xlink:href="#m0c12b337a1" x="697.895" y="312.807676" style="stroke: #000000"/>
      </g>
     </g>
    </g>
    <g id="ytick_48">
     <g id="line2d_205">
      <g>
       <use xlink:href="#m96f2f248ec" x="57.125" y="303.641849" style="stroke: #000000"/>
      </g>
     </g>
     <g id="line2d_206">
      <g>
       <use xlink:href="#m0c12b337a1" x="697.895" y="303.641849" style="stroke: #000000"/>
      </g>
     </g>
    </g>
    <g id="ytick_49">
     <g id="line2d_207">
      <g>
       <use xlink:href="#m96f2f248ec" x="57.125" y="285.310196" style="stroke: #000000"/>
      </g>
     </g>
     <g id="line2d_208">
      <g>
       <use xlink:href="#m0c12b337a1" x="697.895" y="285.310196" style="stroke: #000000"/>
      </g>
     </g>
    </g>
    <g id="text_15">
     <!-- Infusion Rate (mg/kg/h) -->
     <g transform="translate(25.9375 504.23) rotate(-90) scale(0.16 -0.16)">
      <defs>
       <path id="DejaVuSans-6e" d="M 3513 2113 
L 3513 0 
L 2938 0 
L 2938 2094 
Q 2938 2591 2744 2837 
Q 2550 3084 2163 3084 
Q 1697 3084 1428 2787 
Q 1159 2491 1159 1978 
L 1159 0 
L 581 0 
L 581 3500 
L 1159 3500 
L 1159 2956 
Q 1366 3272 1645 3428 
Q 1925 3584 2291 3584 
Q 2894 3584 3203 3211 
Q 3513 2838 3513 2113 
z
" transform="scale(0.015625)"/>
       <path id="DejaVuSans-66" d="M 2375 4863 
L 2375 4384 
L 1825 4384 
Q 1516 4384 1395 4259 
Q 1275 4134 1275 3809 
L 1275 3500 
L 2222 3500 
L 2222 3053 
L 1275 3053 
L 1275 0 
L 697 0 
L 697 3053 
L 147 3053 
L 147 3500 
L 697 3500 
L 697 3744 
Q 697 4328 969 4595 
Q 1241 4863 1831 4863 
L 2375 4863 
z
" transform="scale(0.015625)"/>
       <path id="DejaVuSans-75" d="M 544 1381 
L 544 3500 
L 1119 3500 
L 1119 1403 
Q 1119 906 1312 657 
Q 1506 409 1894 409 
Q 2359 409 2629 706 
Q 2900 1003 2900 1516 
L 2900 3500 
L 3475 3500 
L 3475 0 
L 2900 0 
L 2900 538 
Q 2691 219 2414 64 
Q 2138 -91 1772 -91 
Q 1169 -91 856 284 
Q 544 659 544 1381 
z
M 1991 3584 
L 1991 3584 
z
" transform="scale(0.015625)"/>
       <path id="DejaVuSans-73" d="M 2834 3397 
L 2834 2853 
Q 2591 2978 2328 3040 
Q 2066 3103 1784 3103 
Q 1356 3103 1142 2972 
Q 928 2841 928 2578 
Q 928 2378 1081 2264 
Q 1234 2150 1697 2047 
L 1894 2003 
Q 2506 1872 2764 1633 
Q 3022 1394 3022 966 
Q 3022 478 2636 193 
Q 2250 -91 1575 -91 
Q 1294 -91 989 -36 
Q 684 19 347 128 
L 347 722 
Q 666 556 975 473 
Q 1284 391 1588 391 
Q 1994 391 2212 530 
Q 2431 669 2431 922 
Q 2431 1156 2273 1281 
Q 2116 1406 1581 1522 
L 1381 1569 
Q 847 1681 609 1914 
Q 372 2147 372 2553 
Q 372 3047 722 3315 
Q 1072 3584 1716 3584 
Q 2034 3584 2315 3537 
Q 2597 3491 2834 3397 
z
" transform="scale(0.015625)"/>
       <path id="DejaVuSans-69" d="M 603 3500 
L 1178 3500 
L 1178 0 
L 603 0 
L 603 3500 
z
M 603 4863 
L 1178 4863 
L 1178 4134 
L 603 4134 
L 603 4863 
z
" transform="scale(0.015625)"/>
       <path id="DejaVuSans-6f" d="M 1959 3097 
Q 1497 3097 1228 2736 
Q 959 2375 959 1747 
Q 959 1119 1226 758 
Q 1494 397 1959 397 
Q 2419 397 2687 759 
Q 2956 1122 2956 1747 
Q 2956 2369 2687 2733 
Q 2419 3097 1959 3097 
z
M 1959 3584 
Q 2709 3584 3137 3096 
Q 3566 2609 3566 1747 
Q 3566 888 3137 398 
Q 2709 -91 1959 -91 
Q 1206 -91 779 398 
Q 353 888 353 1747 
Q 353 2609 779 3096 
Q 1206 3584 1959 3584 
z
" transform="scale(0.015625)"/>
       <path id="DejaVuSans-20" transform="scale(0.015625)"/>
       <path id="DejaVuSans-52" d="M 2841 2188 
Q 3044 2119 3236 1894 
Q 3428 1669 3622 1275 
L 4263 0 
L 3584 0 
L 2988 1197 
Q 2756 1666 2539 1819 
Q 2322 1972 1947 1972 
L 1259 1972 
L 1259 0 
L 628 0 
L 628 4666 
L 2053 4666 
Q 2853 4666 3247 4331 
Q 3641 3997 3641 3322 
Q 3641 2881 3436 2590 
Q 3231 2300 2841 2188 
z
M 1259 4147 
L 1259 2491 
L 2053 2491 
Q 2509 2491 2742 2702 
Q 2975 2913 2975 3322 
Q 2975 3731 2742 3939 
Q 2509 4147 2053 4147 
L 1259 4147 
z
" transform="scale(0.015625)"/>
       <path id="DejaVuSans-61" d="M 2194 1759 
Q 1497 1759 1228 1600 
Q 959 1441 959 1056 
Q 959 750 1161 570 
Q 1363 391 1709 391 
Q 2188 391 2477 730 
Q 2766 1069 2766 1631 
L 2766 1759 
L 2194 1759 
z
M 3341 1997 
L 3341 0 
L 2766 0 
L 2766 531 
Q 2569 213 2275 61 
Q 1981 -91 1556 -91 
Q 1019 -91 701 211 
Q 384 513 384 1019 
Q 384 1609 779 1909 
Q 1175 2209 1959 2209 
L 2766 2209 
L 2766 2266 
Q 2766 2663 2505 2880 
Q 2244 3097 1772 3097 
Q 1472 3097 1187 3025 
Q 903 2953 641 2809 
L 641 3341 
Q 956 3463 1253 3523 
Q 1550 3584 1831 3584 
Q 2591 3584 2966 3190 
Q 3341 2797 3341 1997 
z
" transform="scale(0.015625)"/>
       <path id="DejaVuSans-74" d="M 1172 4494 
L 1172 3500 
L 2356 3500 
L 2356 3053 
L 1172 3053 
L 1172 1153 
Q 1172 725 1289 603 
Q 1406 481 1766 481 
L 2356 481 
L 2356 0 
L 1766 0 
Q 1100 0 847 248 
Q 594 497 594 1153 
L 594 3053 
L 172 3053 
L 172 3500 
L 594 3500 
L 594 4494 
L 1172 4494 
z
" transform="scale(0.015625)"/>
       <path id="DejaVuSans-65" d="M 3597 1894 
L 3597 1613 
L 953 1613 
Q 991 1019 1311 708 
Q 1631 397 2203 397 
Q 2534 397 2845 478 
Q 3156 559 3463 722 
L 3463 178 
Q 3153 47 2828 -22 
Q 2503 -91 2169 -91 
Q 1331 -91 842 396 
Q 353 884 353 1716 
Q 353 2575 817 3079 
Q 1281 3584 2069 3584 
Q 2775 3584 3186 3129 
Q 3597 2675 3597 1894 
z
M 3022 2063 
Q 3016 2534 2758 2815 
Q 2500 3097 2075 3097 
Q 1594 3097 1305 2825 
Q 1016 2553 972 2059 
L 3022 2063 
z
" transform="scale(0.015625)"/>
       <path id="DejaVuSans-28" d="M 1984 4856 
Q 1566 4138 1362 3434 
Q 1159 2731 1159 2009 
Q 1159 1288 1364 580 
Q 1569 -128 1984 -844 
L 1484 -844 
Q 1016 -109 783 600 
Q 550 1309 550 2009 
Q 550 2706 781 3412 
Q 1013 4119 1484 4856 
L 1984 4856 
z
" transform="scale(0.015625)"/>
       <path id="DejaVuSans-6d" d="M 3328 2828 
Q 3544 3216 3844 3400 
Q 4144 3584 4550 3584 
Q 5097 3584 5394 3201 
Q 5691 2819 5691 2113 
L 5691 0 
L 5113 0 
L 5113 2094 
Q 5113 2597 4934 2840 
Q 4756 3084 4391 3084 
Q 3944 3084 3684 2787 
Q 3425 2491 3425 1978 
L 3425 0 
L 2847 0 
L 2847 2094 
Q 2847 2600 2669 2842 
Q 2491 3084 2119 3084 
Q 1678 3084 1418 2786 
Q 1159 2488 1159 1978 
L 1159 0 
L 581 0 
L 581 3500 
L 1159 3500 
L 1159 2956 
Q 1356 3278 1631 3431 
Q 1906 3584 2284 3584 
Q 2666 3584 2933 3390 
Q 3200 3197 3328 2828 
z
" transform="scale(0.015625)"/>
       <path id="DejaVuSans-67" d="M 2906 1791 
Q 2906 2416 2648 2759 
Q 2391 3103 1925 3103 
Q 1463 3103 1205 2759 
Q 947 2416 947 1791 
Q 947 1169 1205 825 
Q 1463 481 1925 481 
Q 2391 481 2648 825 
Q 2906 1169 2906 1791 
z
M 3481 434 
Q 3481 -459 3084 -895 
Q 2688 -1331 1869 -1331 
Q 1566 -1331 1297 -1286 
Q 1028 -1241 775 -1147 
L 775 -588 
Q 1028 -725 1275 -790 
Q 1522 -856 1778 -856 
Q 2344 -856 2625 -561 
Q 2906 -266 2906 331 
L 2906 616 
Q 2728 306 2450 153 
Q 2172 0 1784 0 
Q 1141 0 747 490 
Q 353 981 353 1791 
Q 353 2603 747 3093 
Q 1141 3584 1784 3584 
Q 2172 3584 2450 3431 
Q 2728 3278 2906 2969 
L 2906 3500 
L 3481 3500 
L 3481 434 
z
" transform="scale(0.015625)"/>
       <path id="DejaVuSans-2f" d="M 1625 4666 
L 2156 4666 
L 531 -594 
L 0 -594 
L 1625 4666 
z
" transform="scale(0.015625)"/>
       <path id="DejaVuSans-6b" d="M 581 4863 
L 1159 4863 
L 1159 1991 
L 2875 3500 
L 3609 3500 
L 1753 1863 
L 3688 0 
L 2938 0 
L 1159 1709 
L 1159 0 
L 581 0 
L 581 4863 
z
" transform="scale(0.015625)"/>
       <path id="DejaVuSans-68" d="M 3513 2113 
L 3513 0 
L 2938 0 
L 2938 2094 
Q 2938 2591 2744 2837 
Q 2550 3084 2163 3084 
Q 1697 3084 1428 2787 
Q 1159 2491 1159 1978 
L 1159 0 
L 581 0 
L 581 4863 
L 1159 4863 
L 1159 2956 
Q 1366 3272 1645 3428 
Q 1925 3584 2291 3584 
Q 2894 3584 3203 3211 
Q 3513 2838 3513 2113 
z
" transform="scale(0.015625)"/>
       <path id="DejaVuSans-29" d="M 513 4856 
L 1013 4856 
Q 1481 4119 1714 3412 
Q 1947 2706 1947 2009 
Q 1947 1309 1714 600 
Q 1481 -109 1013 -844 
L 513 -844 
Q 928 -128 1133 580 
Q 1338 1288 1338 2009 
Q 1338 2731 1133 3434 
Q 928 4138 513 4856 
z
" transform="scale(0.015625)"/>
      </defs>
      <use xlink:href="#DejaVuSans-49"/>
      <use xlink:href="#DejaVuSans-6e" transform="translate(29.492188 0)"/>
      <use xlink:href="#DejaVuSans-66" transform="translate(92.871094 0)"/>
      <use xlink:href="#DejaVuSans-75" transform="translate(128.076172 0)"/>
      <use xlink:href="#DejaVuSans-73" transform="translate(191.455078 0)"/>
      <use xlink:href="#DejaVuSans-69" transform="translate(243.554688 0)"/>
      <use xlink:href="#DejaVuSans-6f" transform="translate(271.337891 0)"/>
      <use xlink:href="#DejaVuSans-6e" transform="translate(332.519531 0)"/>
      <use xlink:href="#DejaVuSans-20" transform="translate(395.898438 0)"/>
      <use xlink:href="#DejaVuSans-52" transform="translate(427.685547 0)"/>
      <use xlink:href="#DejaVuSans-61" transform="translate(494.917969 0)"/>
      <use xlink:href="#DejaVuSans-74" transform="translate(556.197266 0)"/>
      <use xlink:href="#DejaVuSans-65" transform="translate(595.40625 0)"/>
      <use xlink:href="#DejaVuSans-20" transform="translate(656.929688 0)"/>
      <use xlink:href="#DejaVuSans-28" transform="translate(688.716797 0)"/>
      <use xlink:href="#DejaVuSans-6d" transform="translate(727.730469 0)"/>
      <use xlink:href="#DejaVuSans-67" transform="translate(825.142578 0)"/>
      <use xlink:href="#DejaVuSans-2f" transform="translate(888.619141 0)"/>
      <use xlink:href="#DejaVuSans-6b" transform="translate(922.310547 0)"/>
      <use xlink:href="#DejaVuSans-67" transform="translate(980.220703 0)"/>
      <use xlink:href="#DejaVuSans-2f" transform="translate(1043.697266 0)"/>
      <use xlink:href="#DejaVuSans-68" transform="translate(1077.388672 0)"/>
      <use xlink:href="#DejaVuSans-29" transform="translate(1140.767578 0)"/>
     </g>
    </g>
   </g>
   <g id="line2d_209">
    <path d="M 86.250909 294.476023 
L 95.959545 294.476023 
L 98.386705 492.020605 
L 100.813864 469.174147 
L 103.241023 441.538811 
L 105.668182 442.323947 
L 108.095341 450.589356 
L 110.5225 446.625081 
L 112.949659 450.658162 
L 115.376818 452.361826 
L 117.803977 463.994567 
L 120.231136 454.972386 
L 122.658295 449.254371 
L 125.085455 468.044597 
L 127.512614 464.921332 
L 129.939773 459.863368 
L 132.366932 467.822568 
L 134.794091 464.225684 
L 137.22125 475.654524 
L 139.648409 465.694881 
L 142.075568 471.559353 
L 144.502727 479.961231 
L 146.929886 460.727728 
L 149.357045 487.299017 
L 151.784205 465.43945 
L 154.211364 482.257016 
L 156.638523 478.744375 
L 159.065682 483.486557 
L 161.492841 484.648184 
L 163.92 482.501748 
L 166.347159 475.836453 
L 168.774318 484.283436 
L 171.201477 488.094089 
L 173.628636 484.604156 
L 176.055795 487.896486 
L 178.482955 484.369472 
L 180.910114 489.858098 
L 183.337273 487.54181 
L 185.764432 484.865404 
L 188.191591 490.976584 
L 190.61875 493.29215 
L 193.045909 499.374162 
L 195.473068 482.727914 
L 197.900227 489.91934 
L 200.327386 497.857159 
L 202.754545 491.087744 
L 205.181705 490.761787 
L 207.608864 498.703613 
L 210.036023 492.609306 
L 212.463182 499.250804 
L 214.890341 493.708465 
L 217.3175 495.079241 
L 219.744659 494.741676 
L 222.171818 499.234978 
L 224.598977 491.430325 
L 227.026136 511.561252 
L 229.453295 495.999864 
L 231.880455 491.166692 
L 234.307614 501.034079 
L 236.734773 494.682627 
L 239.161932 502.690023 
L 241.589091 500.334693 
L 244.01625 501.394083 
L 246.443409 495.348954 
L 248.870568 504.787001 
L 251.297727 499.346011 
L 253.724886 497.683192 
L 256.152045 508.855986 
L 258.579205 501.600579 
L 261.006364 498.290421 
L 263.433523 500.19051 
L 265.860682 506.628005 
L 268.287841 505.064815 
L 270.715 500.634338 
L 273.142159 501.175177 
L 275.569318 503.167559 
L 277.996477 501.471335 
L 280.423636 502.911486 
L 282.850795 502.66585 
L 285.277955 507.93861 
L 287.705114 510.990999 
L 290.132273 499.052917 
L 292.559432 506.90175 
L 294.986591 496.128465 
L 297.41375 509.708529 
L 299.840909 502.040945 
L 302.268068 506.338628 
L 304.695227 512.340668 
L 307.122386 504.277657 
L 309.549545 503.993374 
L 311.976705 500.635485 
L 314.403864 506.658228 
L 316.831023 510.39365 
L 319.258182 510.460894 
L 321.685341 500.196052 
L 324.1125 507.760494 
L 326.539659 508.251601 
L 328.966818 509.966646 
L 331.393977 501.867856 
L 333.821136 504.891271 
L 336.248295 508.572358 
L 338.675455 510.44336 
L 341.102614 509.621197 
L 343.529773 507.233414 
L 345.956932 503.654631 
L 348.384091 510.111501 
L 350.81125 507.970077 
L 353.238409 505.275792 
L 355.665568 511.010621 
L 358.092727 506.97314 
L 360.519886 512.512777 
L 362.947045 506.875183 
L 365.374205 510.001954 
L 367.801364 507.257636 
L 370.228523 509.55059 
L 372.655682 504.439762 
L 375.082841 506.637867 
L 377.51 509.590986 
L 379.937159 506.2234 
L 382.364318 508.068122 
L 384.791477 514.012072 
L 387.218636 521.807544 
L 389.645795 498.494375 
L 392.072955 509.059912 
L 394.500114 513.149145 
L 396.927273 497.539045 
L 399.354432 522.220896 
L 401.781591 510.798625 
L 404.20875 506.261861 
L 406.635909 507.105328 
L 409.063068 516.517536 
L 411.490227 506.545152 
L 413.917386 510.255923 
L 416.344545 507.983061 
L 418.771705 514.570637 
L 421.198864 508.005178 
L 423.626023 509.780529 
L 428.480341 511.340673 
L 430.9075 507.938113 
L 433.334659 516.746715 
L 435.761818 500.883651 
L 438.188977 518.451988 
L 440.616136 512.496023 
L 443.043295 509.06084 
L 445.470455 505.277988 
L 447.897614 510.893117 
L 450.324773 517.405869 
L 452.751932 511.63981 
L 455.179091 504.542101 
L 457.60625 523.358048 
L 460.033409 509.147274 
L 462.460568 505.158878 
L 464.887727 512.654274 
L 467.314886 517.133013 
L 469.742045 511.51627 
L 472.169205 509.673326 
L 474.596364 511.748375 
L 477.023523 516.783105 
L 479.450682 513.687836 
L 481.877841 507.957908 
L 484.305 513.999856 
L 486.732159 512.583774 
L 491.586477 511.617602 
L 494.013636 516.28458 
L 496.440795 511.102961 
L 498.867955 511.401654 
L 501.295114 519.614006 
L 503.722273 505.297777 
L 506.149432 518.972626 
L 508.576591 511.510223 
L 511.00375 510.261678 
L 513.430909 517.002138 
L 515.858068 512.411272 
L 518.285227 516.927573 
L 520.712386 514.821743 
L 523.139545 513.339987 
L 525.566705 512.309694 
L 527.993864 515.11218 
L 530.421023 512.725681 
L 532.848182 510.795967 
L 535.275341 514.391609 
L 537.7025 517.07713 
L 540.129659 516.835911 
L 542.556818 509.499745 
L 544.983977 516.326123 
L 547.411136 510.32714 
L 549.838295 516.555828 
L 552.265455 520.015381 
L 554.692614 512.001873 
L 557.119773 515.872946 
L 559.546932 507.775608 
L 561.974091 522.987371 
L 564.40125 505.284887 
L 566.828409 525.221477 
L 569.255568 513.63082 
L 571.682727 517.274458 
L 574.109886 514.145749 
L 576.537045 510.587863 
L 578.964205 518.655245 
L 581.391364 511.321309 
L 583.818523 514.261905 
L 586.245682 521.530582 
L 591.1 510.207706 
L 593.527159 514.472062 
L 595.954318 513.737632 
L 598.381477 515.676369 
L 600.808636 519.622164 
L 603.235795 516.881832 
L 605.662955 515.043637 
L 608.090114 518.924686 
L 610.517273 508.041927 
L 612.944432 522.462357 
L 615.371591 511.254099 
L 617.79875 517.282069 
L 620.225909 518.452787 
L 622.653068 513.089608 
L 625.080227 522.10262 
L 627.507386 514.474342 
L 629.934545 512.404335 
L 632.361705 517.221448 
L 634.788864 518.556167 
L 637.216023 514.203327 
L 639.643182 521.915098 
L 642.070341 516.333211 
L 644.4975 511.287477 
L 646.924659 518.939314 
L 649.351818 513.53032 
L 651.778977 524.859805 
L 654.206136 511.683057 
L 656.633295 522.414774 
L 659.060455 512.701795 
L 661.487614 523.91641 
L 663.914773 517.260232 
L 666.341932 513.120119 
L 666.341932 513.120119 
" clip-path="url(#p8dadeb8bec)" style="fill: none; stroke: #0c5da5; stroke-width: 2; stroke-linecap: square"/>
   </g>
   <g id="patch_8">
    <path d="M 57.125 536.75875 
L 57.125 282.93875 
" style="fill: none; stroke: #000000; stroke-linejoin: miter; stroke-linecap: square"/>
   </g>
   <g id="patch_9">
    <path d="M 697.895 536.75875 
L 697.895 282.93875 
" style="fill: none; stroke: #000000; stroke-linejoin: miter; stroke-linecap: square"/>
   </g>
   <g id="patch_10">
    <path d="M 57.125 536.75875 
L 697.895 536.75875 
" style="fill: none; stroke: #000000; stroke-linejoin: miter; stroke-linecap: square"/>
   </g>
   <g id="patch_11">
    <path d="M 57.125 282.93875 
L 697.895 282.93875 
" style="fill: none; stroke: #000000; stroke-linejoin: miter; stroke-linecap: square"/>
   </g>
  </g>
  <g id="axes_3">
   <g id="patch_12">
    <path d="M 57.125 810.01875 
L 697.895 810.01875 
L 697.895 556.19875 
L 57.125 556.19875 
z
" style="fill: #ffffff"/>
   </g>
   <g id="matplotlib.axis_5">
    <g id="xtick_55">
     <g id="line2d_210">
      <g>
       <use xlink:href="#md0156b847e" x="86.250909" y="810.01875" style="stroke: #000000"/>
      </g>
     </g>
     <g id="line2d_211">
      <g>
       <use xlink:href="#m4672a2eca5" x="86.250909" y="556.19875" style="stroke: #000000"/>
      </g>
     </g>
     <g id="text_16">
      <!-- 0 -->
      <g transform="translate(81.160909 825.67625) scale(0.16 -0.16)">
       <use xlink:href="#DejaVuSans-30"/>
      </g>
     </g>
    </g>
    <g id="xtick_56">
     <g id="line2d_212">
      <g>
       <use xlink:href="#md0156b847e" x="183.337273" y="810.01875" style="stroke: #000000"/>
      </g>
     </g>
     <g id="line2d_213">
      <g>
       <use xlink:href="#m4672a2eca5" x="183.337273" y="556.19875" style="stroke: #000000"/>
      </g>
     </g>
     <g id="text_17">
      <!-- 20 -->
      <g transform="translate(173.157273 825.67625) scale(0.16 -0.16)">
       <use xlink:href="#DejaVuSans-32"/>
       <use xlink:href="#DejaVuSans-30" transform="translate(63.623047 0)"/>
      </g>
     </g>
    </g>
    <g id="xtick_57">
     <g id="line2d_214">
      <g>
       <use xlink:href="#md0156b847e" x="280.423636" y="810.01875" style="stroke: #000000"/>
      </g>
     </g>
     <g id="line2d_215">
      <g>
       <use xlink:href="#m4672a2eca5" x="280.423636" y="556.19875" style="stroke: #000000"/>
      </g>
     </g>
     <g id="text_18">
      <!-- 40 -->
      <g transform="translate(270.243636 825.67625) scale(0.16 -0.16)">
       <use xlink:href="#DejaVuSans-34"/>
       <use xlink:href="#DejaVuSans-30" transform="translate(63.623047 0)"/>
      </g>
     </g>
    </g>
    <g id="xtick_58">
     <g id="line2d_216">
      <g>
       <use xlink:href="#md0156b847e" x="377.51" y="810.01875" style="stroke: #000000"/>
      </g>
     </g>
     <g id="line2d_217">
      <g>
       <use xlink:href="#m4672a2eca5" x="377.51" y="556.19875" style="stroke: #000000"/>
      </g>
     </g>
     <g id="text_19">
      <!-- 60 -->
      <g transform="translate(367.33 825.67625) scale(0.16 -0.16)">
       <use xlink:href="#DejaVuSans-36"/>
       <use xlink:href="#DejaVuSans-30" transform="translate(63.623047 0)"/>
      </g>
     </g>
    </g>
    <g id="xtick_59">
     <g id="line2d_218">
      <g>
       <use xlink:href="#md0156b847e" x="474.596364" y="810.01875" style="stroke: #000000"/>
      </g>
     </g>
     <g id="line2d_219">
      <g>
       <use xlink:href="#m4672a2eca5" x="474.596364" y="556.19875" style="stroke: #000000"/>
      </g>
     </g>
     <g id="text_20">
      <!-- 80 -->
      <g transform="translate(464.416364 825.67625) scale(0.16 -0.16)">
       <use xlink:href="#DejaVuSans-38"/>
       <use xlink:href="#DejaVuSans-30" transform="translate(63.623047 0)"/>
      </g>
     </g>
    </g>
    <g id="xtick_60">
     <g id="line2d_220">
      <g>
       <use xlink:href="#md0156b847e" x="571.682727" y="810.01875" style="stroke: #000000"/>
      </g>
     </g>
     <g id="line2d_221">
      <g>
       <use xlink:href="#m4672a2eca5" x="571.682727" y="556.19875" style="stroke: #000000"/>
      </g>
     </g>
     <g id="text_21">
      <!-- 100 -->
      <g transform="translate(556.412727 825.67625) scale(0.16 -0.16)">
       <use xlink:href="#DejaVuSans-31"/>
       <use xlink:href="#DejaVuSans-30" transform="translate(63.623047 0)"/>
       <use xlink:href="#DejaVuSans-30" transform="translate(127.246094 0)"/>
      </g>
     </g>
    </g>
    <g id="xtick_61">
     <g id="line2d_222">
      <g>
       <use xlink:href="#md0156b847e" x="668.769091" y="810.01875" style="stroke: #000000"/>
      </g>
     </g>
     <g id="line2d_223">
      <g>
       <use xlink:href="#m4672a2eca5" x="668.769091" y="556.19875" style="stroke: #000000"/>
      </g>
     </g>
     <g id="text_22">
      <!-- 120 -->
      <g transform="translate(653.499091 825.67625) scale(0.16 -0.16)">
       <use xlink:href="#DejaVuSans-31"/>
       <use xlink:href="#DejaVuSans-32" transform="translate(63.623047 0)"/>
       <use xlink:href="#DejaVuSans-30" transform="translate(127.246094 0)"/>
      </g>
     </g>
    </g>
    <g id="xtick_62">
     <g id="line2d_224">
      <g>
       <use xlink:href="#m3996026305" x="61.979318" y="810.01875" style="stroke: #000000"/>
      </g>
     </g>
     <g id="line2d_225">
      <g>
       <use xlink:href="#m1b49f3a403" x="61.979318" y="556.19875" style="stroke: #000000"/>
      </g>
     </g>
    </g>
    <g id="xtick_63">
     <g id="line2d_226">
      <g>
       <use xlink:href="#m3996026305" x="110.5225" y="810.01875" style="stroke: #000000"/>
      </g>
     </g>
     <g id="line2d_227">
      <g>
       <use xlink:href="#m1b49f3a403" x="110.5225" y="556.19875" style="stroke: #000000"/>
      </g>
     </g>
    </g>
    <g id="xtick_64">
     <g id="line2d_228">
      <g>
       <use xlink:href="#m3996026305" x="134.794091" y="810.01875" style="stroke: #000000"/>
      </g>
     </g>
     <g id="line2d_229">
      <g>
       <use xlink:href="#m1b49f3a403" x="134.794091" y="556.19875" style="stroke: #000000"/>
      </g>
     </g>
    </g>
    <g id="xtick_65">
     <g id="line2d_230">
      <g>
       <use xlink:href="#m3996026305" x="159.065682" y="810.01875" style="stroke: #000000"/>
      </g>
     </g>
     <g id="line2d_231">
      <g>
       <use xlink:href="#m1b49f3a403" x="159.065682" y="556.19875" style="stroke: #000000"/>
      </g>
     </g>
    </g>
    <g id="xtick_66">
     <g id="line2d_232">
      <g>
       <use xlink:href="#m3996026305" x="207.608864" y="810.01875" style="stroke: #000000"/>
      </g>
     </g>
     <g id="line2d_233">
      <g>
       <use xlink:href="#m1b49f3a403" x="207.608864" y="556.19875" style="stroke: #000000"/>
      </g>
     </g>
    </g>
    <g id="xtick_67">
     <g id="line2d_234">
      <g>
       <use xlink:href="#m3996026305" x="231.880455" y="810.01875" style="stroke: #000000"/>
      </g>
     </g>
     <g id="line2d_235">
      <g>
       <use xlink:href="#m1b49f3a403" x="231.880455" y="556.19875" style="stroke: #000000"/>
      </g>
     </g>
    </g>
    <g id="xtick_68">
     <g id="line2d_236">
      <g>
       <use xlink:href="#m3996026305" x="256.152045" y="810.01875" style="stroke: #000000"/>
      </g>
     </g>
     <g id="line2d_237">
      <g>
       <use xlink:href="#m1b49f3a403" x="256.152045" y="556.19875" style="stroke: #000000"/>
      </g>
     </g>
    </g>
    <g id="xtick_69">
     <g id="line2d_238">
      <g>
       <use xlink:href="#m3996026305" x="304.695227" y="810.01875" style="stroke: #000000"/>
      </g>
     </g>
     <g id="line2d_239">
      <g>
       <use xlink:href="#m1b49f3a403" x="304.695227" y="556.19875" style="stroke: #000000"/>
      </g>
     </g>
    </g>
    <g id="xtick_70">
     <g id="line2d_240">
      <g>
       <use xlink:href="#m3996026305" x="328.966818" y="810.01875" style="stroke: #000000"/>
      </g>
     </g>
     <g id="line2d_241">
      <g>
       <use xlink:href="#m1b49f3a403" x="328.966818" y="556.19875" style="stroke: #000000"/>
      </g>
     </g>
    </g>
    <g id="xtick_71">
     <g id="line2d_242">
      <g>
       <use xlink:href="#m3996026305" x="353.238409" y="810.01875" style="stroke: #000000"/>
      </g>
     </g>
     <g id="line2d_243">
      <g>
       <use xlink:href="#m1b49f3a403" x="353.238409" y="556.19875" style="stroke: #000000"/>
      </g>
     </g>
    </g>
    <g id="xtick_72">
     <g id="line2d_244">
      <g>
       <use xlink:href="#m3996026305" x="401.781591" y="810.01875" style="stroke: #000000"/>
      </g>
     </g>
     <g id="line2d_245">
      <g>
       <use xlink:href="#m1b49f3a403" x="401.781591" y="556.19875" style="stroke: #000000"/>
      </g>
     </g>
    </g>
    <g id="xtick_73">
     <g id="line2d_246">
      <g>
       <use xlink:href="#m3996026305" x="426.053182" y="810.01875" style="stroke: #000000"/>
      </g>
     </g>
     <g id="line2d_247">
      <g>
       <use xlink:href="#m1b49f3a403" x="426.053182" y="556.19875" style="stroke: #000000"/>
      </g>
     </g>
    </g>
    <g id="xtick_74">
     <g id="line2d_248">
      <g>
       <use xlink:href="#m3996026305" x="450.324773" y="810.01875" style="stroke: #000000"/>
      </g>
     </g>
     <g id="line2d_249">
      <g>
       <use xlink:href="#m1b49f3a403" x="450.324773" y="556.19875" style="stroke: #000000"/>
      </g>
     </g>
    </g>
    <g id="xtick_75">
     <g id="line2d_250">
      <g>
       <use xlink:href="#m3996026305" x="498.867955" y="810.01875" style="stroke: #000000"/>
      </g>
     </g>
     <g id="line2d_251">
      <g>
       <use xlink:href="#m1b49f3a403" x="498.867955" y="556.19875" style="stroke: #000000"/>
      </g>
     </g>
    </g>
    <g id="xtick_76">
     <g id="line2d_252">
      <g>
       <use xlink:href="#m3996026305" x="523.139545" y="810.01875" style="stroke: #000000"/>
      </g>
     </g>
     <g id="line2d_253">
      <g>
       <use xlink:href="#m1b49f3a403" x="523.139545" y="556.19875" style="stroke: #000000"/>
      </g>
     </g>
    </g>
    <g id="xtick_77">
     <g id="line2d_254">
      <g>
       <use xlink:href="#m3996026305" x="547.411136" y="810.01875" style="stroke: #000000"/>
      </g>
     </g>
     <g id="line2d_255">
      <g>
       <use xlink:href="#m1b49f3a403" x="547.411136" y="556.19875" style="stroke: #000000"/>
      </g>
     </g>
    </g>
    <g id="xtick_78">
     <g id="line2d_256">
      <g>
       <use xlink:href="#m3996026305" x="595.954318" y="810.01875" style="stroke: #000000"/>
      </g>
     </g>
     <g id="line2d_257">
      <g>
       <use xlink:href="#m1b49f3a403" x="595.954318" y="556.19875" style="stroke: #000000"/>
      </g>
     </g>
    </g>
    <g id="xtick_79">
     <g id="line2d_258">
      <g>
       <use xlink:href="#m3996026305" x="620.225909" y="810.01875" style="stroke: #000000"/>
      </g>
     </g>
     <g id="line2d_259">
      <g>
       <use xlink:href="#m1b49f3a403" x="620.225909" y="556.19875" style="stroke: #000000"/>
      </g>
     </g>
    </g>
    <g id="xtick_80">
     <g id="line2d_260">
      <g>
       <use xlink:href="#m3996026305" x="644.4975" y="810.01875" style="stroke: #000000"/>
      </g>
     </g>
     <g id="line2d_261">
      <g>
       <use xlink:href="#m1b49f3a403" x="644.4975" y="556.19875" style="stroke: #000000"/>
      </g>
     </g>
    </g>
    <g id="xtick_81">
     <g id="line2d_262">
      <g>
       <use xlink:href="#m3996026305" x="693.040682" y="810.01875" style="stroke: #000000"/>
      </g>
     </g>
     <g id="line2d_263">
      <g>
       <use xlink:href="#m1b49f3a403" x="693.040682" y="556.19875" style="stroke: #000000"/>
      </g>
     </g>
    </g>
    <g id="text_23">
     <!-- Time (min) -->
     <g transform="translate(334.06625 845.16125) scale(0.16 -0.16)">
      <defs>
       <path id="DejaVuSans-54" d="M -19 4666 
L 3928 4666 
L 3928 4134 
L 2272 4134 
L 2272 0 
L 1638 0 
L 1638 4134 
L -19 4134 
L -19 4666 
z
" transform="scale(0.015625)"/>
      </defs>
      <use xlink:href="#DejaVuSans-54"/>
      <use xlink:href="#DejaVuSans-69" transform="translate(57.958984 0)"/>
      <use xlink:href="#DejaVuSans-6d" transform="translate(85.742188 0)"/>
      <use xlink:href="#DejaVuSans-65" transform="translate(183.154297 0)"/>
      <use xlink:href="#DejaVuSans-20" transform="translate(244.677734 0)"/>
      <use xlink:href="#DejaVuSans-28" transform="translate(276.464844 0)"/>
      <use xlink:href="#DejaVuSans-6d" transform="translate(315.478516 0)"/>
      <use xlink:href="#DejaVuSans-69" transform="translate(412.890625 0)"/>
      <use xlink:href="#DejaVuSans-6e" transform="translate(440.673828 0)"/>
      <use xlink:href="#DejaVuSans-29" transform="translate(504.052734 0)"/>
     </g>
    </g>
   </g>
   <g id="matplotlib.axis_6">
    <g id="ytick_50">
     <g id="line2d_264">
      <g>
       <use xlink:href="#m3ef0b659c9" x="57.125" y="798.481477" style="stroke: #000000"/>
      </g>
     </g>
     <g id="line2d_265">
      <g>
       <use xlink:href="#m764da6e9e5" x="697.895" y="798.481477" style="stroke: #000000"/>
      </g>
     </g>
     <g id="text_24">
      <!-- 0 -->
      <g transform="translate(43.445 804.560227) scale(0.16 -0.16)">
       <use xlink:href="#DejaVuSans-30"/>
      </g>
     </g>
    </g>
    <g id="ytick_51">
     <g id="line2d_266">
      <g>
       <use xlink:href="#m3ef0b659c9" x="57.125" y="730.809825" style="stroke: #000000"/>
      </g>
     </g>
     <g id="line2d_267">
      <g>
       <use xlink:href="#m764da6e9e5" x="697.895" y="730.809825" style="stroke: #000000"/>
      </g>
     </g>
     <g id="text_25">
      <!-- 1 -->
      <g transform="translate(43.445 736.888575) scale(0.16 -0.16)">
       <use xlink:href="#DejaVuSans-31"/>
      </g>
     </g>
    </g>
    <g id="ytick_52">
     <g id="line2d_268">
      <g>
       <use xlink:href="#m3ef0b659c9" x="57.125" y="663.138174" style="stroke: #000000"/>
      </g>
     </g>
     <g id="line2d_269">
      <g>
       <use xlink:href="#m764da6e9e5" x="697.895" y="663.138174" style="stroke: #000000"/>
      </g>
     </g>
     <g id="text_26">
      <!-- 2 -->
      <g transform="translate(43.445 669.216924) scale(0.16 -0.16)">
       <use xlink:href="#DejaVuSans-32"/>
      </g>
     </g>
    </g>
    <g id="ytick_53">
     <g id="line2d_270">
      <g>
       <use xlink:href="#m3ef0b659c9" x="57.125" y="595.466522" style="stroke: #000000"/>
      </g>
     </g>
     <g id="line2d_271">
      <g>
       <use xlink:href="#m764da6e9e5" x="697.895" y="595.466522" style="stroke: #000000"/>
      </g>
     </g>
     <g id="text_27">
      <!-- 3 -->
      <g transform="translate(43.445 601.545272) scale(0.16 -0.16)">
       <defs>
        <path id="DejaVuSans-33" d="M 2597 2516 
Q 3050 2419 3304 2112 
Q 3559 1806 3559 1356 
Q 3559 666 3084 287 
Q 2609 -91 1734 -91 
Q 1441 -91 1130 -33 
Q 819 25 488 141 
L 488 750 
Q 750 597 1062 519 
Q 1375 441 1716 441 
Q 2309 441 2620 675 
Q 2931 909 2931 1356 
Q 2931 1769 2642 2001 
Q 2353 2234 1838 2234 
L 1294 2234 
L 1294 2753 
L 1863 2753 
Q 2328 2753 2575 2939 
Q 2822 3125 2822 3475 
Q 2822 3834 2567 4026 
Q 2313 4219 1838 4219 
Q 1578 4219 1281 4162 
Q 984 4106 628 3988 
L 628 4550 
Q 988 4650 1302 4700 
Q 1616 4750 1894 4750 
Q 2613 4750 3031 4423 
Q 3450 4097 3450 3541 
Q 3450 3153 3228 2886 
Q 3006 2619 2597 2516 
z
" transform="scale(0.015625)"/>
       </defs>
       <use xlink:href="#DejaVuSans-33"/>
      </g>
     </g>
    </g>
    <g id="ytick_54">
     <g id="line2d_272">
      <g>
       <use xlink:href="#m96f2f248ec" x="57.125" y="784.947147" style="stroke: #000000"/>
      </g>
     </g>
     <g id="line2d_273">
      <g>
       <use xlink:href="#m0c12b337a1" x="697.895" y="784.947147" style="stroke: #000000"/>
      </g>
     </g>
    </g>
    <g id="ytick_55">
     <g id="line2d_274">
      <g>
       <use xlink:href="#m96f2f248ec" x="57.125" y="771.412817" style="stroke: #000000"/>
      </g>
     </g>
     <g id="line2d_275">
      <g>
       <use xlink:href="#m0c12b337a1" x="697.895" y="771.412817" style="stroke: #000000"/>
      </g>
     </g>
    </g>
    <g id="ytick_56">
     <g id="line2d_276">
      <g>
       <use xlink:href="#m96f2f248ec" x="57.125" y="757.878486" style="stroke: #000000"/>
      </g>
     </g>
     <g id="line2d_277">
      <g>
       <use xlink:href="#m0c12b337a1" x="697.895" y="757.878486" style="stroke: #000000"/>
      </g>
     </g>
    </g>
    <g id="ytick_57">
     <g id="line2d_278">
      <g>
       <use xlink:href="#m96f2f248ec" x="57.125" y="744.344156" style="stroke: #000000"/>
      </g>
     </g>
     <g id="line2d_279">
      <g>
       <use xlink:href="#m0c12b337a1" x="697.895" y="744.344156" style="stroke: #000000"/>
      </g>
     </g>
    </g>
    <g id="ytick_58">
     <g id="line2d_280">
      <g>
       <use xlink:href="#m96f2f248ec" x="57.125" y="717.275495" style="stroke: #000000"/>
      </g>
     </g>
     <g id="line2d_281">
      <g>
       <use xlink:href="#m0c12b337a1" x="697.895" y="717.275495" style="stroke: #000000"/>
      </g>
     </g>
    </g>
    <g id="ytick_59">
     <g id="line2d_282">
      <g>
       <use xlink:href="#m96f2f248ec" x="57.125" y="703.741165" style="stroke: #000000"/>
      </g>
     </g>
     <g id="line2d_283">
      <g>
       <use xlink:href="#m0c12b337a1" x="697.895" y="703.741165" style="stroke: #000000"/>
      </g>
     </g>
    </g>
    <g id="ytick_60">
     <g id="line2d_284">
      <g>
       <use xlink:href="#m96f2f248ec" x="57.125" y="690.206834" style="stroke: #000000"/>
      </g>
     </g>
     <g id="line2d_285">
      <g>
       <use xlink:href="#m0c12b337a1" x="697.895" y="690.206834" style="stroke: #000000"/>
      </g>
     </g>
    </g>
    <g id="ytick_61">
     <g id="line2d_286">
      <g>
       <use xlink:href="#m96f2f248ec" x="57.125" y="676.672504" style="stroke: #000000"/>
      </g>
     </g>
     <g id="line2d_287">
      <g>
       <use xlink:href="#m0c12b337a1" x="697.895" y="676.672504" style="stroke: #000000"/>
      </g>
     </g>
    </g>
    <g id="ytick_62">
     <g id="line2d_288">
      <g>
       <use xlink:href="#m96f2f248ec" x="57.125" y="649.603843" style="stroke: #000000"/>
      </g>
     </g>
     <g id="line2d_289">
      <g>
       <use xlink:href="#m0c12b337a1" x="697.895" y="649.603843" style="stroke: #000000"/>
      </g>
     </g>
    </g>
    <g id="ytick_63">
     <g id="line2d_290">
      <g>
       <use xlink:href="#m96f2f248ec" x="57.125" y="636.069513" style="stroke: #000000"/>
      </g>
     </g>
     <g id="line2d_291">
      <g>
       <use xlink:href="#m0c12b337a1" x="697.895" y="636.069513" style="stroke: #000000"/>
      </g>
     </g>
    </g>
    <g id="ytick_64">
     <g id="line2d_292">
      <g>
       <use xlink:href="#m96f2f248ec" x="57.125" y="622.535183" style="stroke: #000000"/>
      </g>
     </g>
     <g id="line2d_293">
      <g>
       <use xlink:href="#m0c12b337a1" x="697.895" y="622.535183" style="stroke: #000000"/>
      </g>
     </g>
    </g>
    <g id="ytick_65">
     <g id="line2d_294">
      <g>
       <use xlink:href="#m96f2f248ec" x="57.125" y="609.000852" style="stroke: #000000"/>
      </g>
     </g>
     <g id="line2d_295">
      <g>
       <use xlink:href="#m0c12b337a1" x="697.895" y="609.000852" style="stroke: #000000"/>
      </g>
     </g>
    </g>
    <g id="ytick_66">
     <g id="line2d_296">
      <g>
       <use xlink:href="#m96f2f248ec" x="57.125" y="581.932192" style="stroke: #000000"/>
      </g>
     </g>
     <g id="line2d_297">
      <g>
       <use xlink:href="#m0c12b337a1" x="697.895" y="581.932192" style="stroke: #000000"/>
      </g>
     </g>
    </g>
    <g id="ytick_67">
     <g id="line2d_298">
      <g>
       <use xlink:href="#m96f2f248ec" x="57.125" y="568.397861" style="stroke: #000000"/>
      </g>
     </g>
     <g id="line2d_299">
      <g>
       <use xlink:href="#m0c12b337a1" x="697.895" y="568.397861" style="stroke: #000000"/>
      </g>
     </g>
    </g>
    <g id="text_28">
     <!-- Effect-site Concentration (g/mL) -->
     <g transform="translate(36.1175 816.62375) rotate(-90) scale(0.16 -0.16)">
      <defs>
       <path id="DejaVuSans-45" d="M 628 4666 
L 3578 4666 
L 3578 4134 
L 1259 4134 
L 1259 2753 
L 3481 2753 
L 3481 2222 
L 1259 2222 
L 1259 531 
L 3634 531 
L 3634 0 
L 628 0 
L 628 4666 
z
" transform="scale(0.015625)"/>
       <path id="DejaVuSans-63" d="M 3122 3366 
L 3122 2828 
Q 2878 2963 2633 3030 
Q 2388 3097 2138 3097 
Q 1578 3097 1268 2742 
Q 959 2388 959 1747 
Q 959 1106 1268 751 
Q 1578 397 2138 397 
Q 2388 397 2633 464 
Q 2878 531 3122 666 
L 3122 134 
Q 2881 22 2623 -34 
Q 2366 -91 2075 -91 
Q 1284 -91 818 406 
Q 353 903 353 1747 
Q 353 2603 823 3093 
Q 1294 3584 2113 3584 
Q 2378 3584 2631 3529 
Q 2884 3475 3122 3366 
z
" transform="scale(0.015625)"/>
       <path id="DejaVuSans-2d" d="M 313 2009 
L 1997 2009 
L 1997 1497 
L 313 1497 
L 313 2009 
z
" transform="scale(0.015625)"/>
       <path id="DejaVuSans-43" d="M 4122 4306 
L 4122 3641 
Q 3803 3938 3442 4084 
Q 3081 4231 2675 4231 
Q 1875 4231 1450 3742 
Q 1025 3253 1025 2328 
Q 1025 1406 1450 917 
Q 1875 428 2675 428 
Q 3081 428 3442 575 
Q 3803 722 4122 1019 
L 4122 359 
Q 3791 134 3420 21 
Q 3050 -91 2638 -91 
Q 1578 -91 968 557 
Q 359 1206 359 2328 
Q 359 3453 968 4101 
Q 1578 4750 2638 4750 
Q 3056 4750 3426 4639 
Q 3797 4528 4122 4306 
z
" transform="scale(0.015625)"/>
       <path id="DejaVuSans-72" d="M 2631 2963 
Q 2534 3019 2420 3045 
Q 2306 3072 2169 3072 
Q 1681 3072 1420 2755 
Q 1159 2438 1159 1844 
L 1159 0 
L 581 0 
L 581 3500 
L 1159 3500 
L 1159 2956 
Q 1341 3275 1631 3429 
Q 1922 3584 2338 3584 
Q 2397 3584 2469 3576 
Q 2541 3569 2628 3553 
L 2631 2963 
z
" transform="scale(0.015625)"/>
       <path id="DejaVuSans-b5" d="M 544 -1331 
L 544 3500 
L 1119 3500 
L 1119 1325 
Q 1119 872 1334 640 
Q 1550 409 1972 409 
Q 2434 409 2667 671 
Q 2900 934 2900 1459 
L 2900 3500 
L 3475 3500 
L 3475 806 
Q 3475 619 3529 530 
Q 3584 441 3700 441 
Q 3728 441 3778 458 
Q 3828 475 3916 513 
L 3916 50 
Q 3788 -22 3673 -56 
Q 3559 -91 3450 -91 
Q 3234 -91 3106 31 
Q 2978 153 2931 403 
Q 2775 156 2548 32 
Q 2322 -91 2016 -91 
Q 1697 -91 1473 31 
Q 1250 153 1119 397 
L 1119 -1331 
L 544 -1331 
z
" transform="scale(0.015625)"/>
       <path id="DejaVuSans-4c" d="M 628 4666 
L 1259 4666 
L 1259 531 
L 3531 531 
L 3531 0 
L 628 0 
L 628 4666 
z
" transform="scale(0.015625)"/>
      </defs>
      <use xlink:href="#DejaVuSans-45"/>
      <use xlink:href="#DejaVuSans-66" transform="translate(63.183594 0)"/>
      <use xlink:href="#DejaVuSans-66" transform="translate(98.388672 0)"/>
      <use xlink:href="#DejaVuSans-65" transform="translate(133.59375 0)"/>
      <use xlink:href="#DejaVuSans-63" transform="translate(195.117188 0)"/>
      <use xlink:href="#DejaVuSans-74" transform="translate(250.097656 0)"/>
      <use xlink:href="#DejaVuSans-2d" transform="translate(289.306641 0)"/>
      <use xlink:href="#DejaVuSans-73" transform="translate(325.390625 0)"/>
      <use xlink:href="#DejaVuSans-69" transform="translate(377.490234 0)"/>
      <use xlink:href="#DejaVuSans-74" transform="translate(405.273438 0)"/>
      <use xlink:href="#DejaVuSans-65" transform="translate(444.482422 0)"/>
      <use xlink:href="#DejaVuSans-20" transform="translate(506.005859 0)"/>
      <use xlink:href="#DejaVuSans-43" transform="translate(537.792969 0)"/>
      <use xlink:href="#DejaVuSans-6f" transform="translate(607.617188 0)"/>
      <use xlink:href="#DejaVuSans-6e" transform="translate(668.798828 0)"/>
      <use xlink:href="#DejaVuSans-63" transform="translate(732.177734 0)"/>
      <use xlink:href="#DejaVuSans-65" transform="translate(787.158203 0)"/>
      <use xlink:href="#DejaVuSans-6e" transform="translate(848.681641 0)"/>
      <use xlink:href="#DejaVuSans-74" transform="translate(912.060547 0)"/>
      <use xlink:href="#DejaVuSans-72" transform="translate(951.269531 0)"/>
      <use xlink:href="#DejaVuSans-61" transform="translate(992.382812 0)"/>
      <use xlink:href="#DejaVuSans-74" transform="translate(1053.662109 0)"/>
      <use xlink:href="#DejaVuSans-69" transform="translate(1092.871094 0)"/>
      <use xlink:href="#DejaVuSans-6f" transform="translate(1120.654297 0)"/>
      <use xlink:href="#DejaVuSans-6e" transform="translate(1181.835938 0)"/>
      <use xlink:href="#DejaVuSans-20" transform="translate(1245.214844 0)"/>
      <use xlink:href="#DejaVuSans-28" transform="translate(1277.001953 0)"/>
      <use xlink:href="#DejaVuSans-b5" transform="translate(1316.015625 0)"/>
      <use xlink:href="#DejaVuSans-67" transform="translate(1379.638672 0)"/>
      <use xlink:href="#DejaVuSans-2f" transform="translate(1443.115234 0)"/>
      <use xlink:href="#DejaVuSans-6d" transform="translate(1476.806641 0)"/>
      <use xlink:href="#DejaVuSans-4c" transform="translate(1574.21875 0)"/>
      <use xlink:href="#DejaVuSans-29" transform="translate(1629.931641 0)"/>
     </g>
    </g>
   </g>
   <g id="line2d_300">
    <path d="M 86.250909 798.481477 
L 88.678068 798.481477 
L 91.105227 758.057424 
L 95.959545 657.54512 
L 98.386705 614.023312 
L 100.813864 577.329793 
L 103.241023 568.773892 
L 108.095341 568.84947 
L 110.5225 568.60627 
L 112.949659 568.955345 
L 120.231136 568.528493 
L 122.658295 569.452592 
L 125.085455 569.464174 
L 127.512614 568.298203 
L 132.366932 569.098126 
L 134.794091 568.716998 
L 137.22125 568.787521 
L 139.648409 568.45316 
L 142.075568 569.102055 
L 144.502727 568.791631 
L 146.929886 568.653972 
L 149.357045 569.377838 
L 151.784205 568.083689 
L 154.211364 568.975525 
L 156.638523 568.045412 
L 161.492841 568.389746 
L 166.347159 569.442741 
L 168.774318 569.648348 
L 171.201477 568.857072 
L 173.628636 568.61498 
L 176.055795 568.930124 
L 178.482955 568.942242 
L 180.910114 569.115121 
L 183.337273 568.855558 
L 185.764432 568.987111 
L 188.191591 568.916198 
L 190.61875 568.406817 
L 193.045909 568.390732 
L 195.473068 568.744871 
L 197.900227 569.800213 
L 200.327386 569.099952 
L 202.754545 568.552421 
L 205.181705 568.936872 
L 207.608864 568.821236 
L 210.036023 568.438951 
L 212.463182 568.819986 
L 214.890341 568.718498 
L 217.3175 569.129068 
L 222.171818 568.843588 
L 224.598977 568.570398 
L 227.026136 568.743732 
L 229.453295 568.160544 
L 231.880455 569.536833 
L 234.307614 569.735816 
L 236.734773 568.902154 
L 239.161932 568.82613 
L 241.589091 568.304423 
L 248.870568 568.915693 
L 251.297727 568.431088 
L 253.724886 568.74569 
L 256.152045 568.693036 
L 258.579205 568.295986 
L 261.006364 569.017091 
L 263.433523 569.247563 
L 268.287841 568.507955 
L 273.142159 569.25274 
L 275.569318 569.099017 
L 277.996477 568.79609 
L 280.423636 568.667907 
L 282.850795 568.409623 
L 287.705114 568.136513 
L 290.132273 568.583218 
L 292.559432 569.511906 
L 294.986591 569.181819 
L 297.41375 569.265223 
L 299.840909 568.287682 
L 302.268068 568.501329 
L 304.695227 568.272055 
L 307.122386 568.358497 
L 309.549545 569.197113 
L 311.976705 569.317632 
L 314.403864 569.109456 
L 316.831023 568.415856 
L 319.258182 568.266156 
L 321.685341 568.731859 
L 324.1125 569.367433 
L 326.539659 568.849539 
L 328.966818 568.778253 
L 331.393977 568.921432 
L 333.821136 569.303828 
L 338.675455 568.401614 
L 341.102614 568.435329 
L 345.956932 569.209819 
L 348.384091 569.267568 
L 350.81125 568.79175 
L 355.665568 568.896606 
L 358.092727 568.593032 
L 360.519886 568.819916 
L 362.947045 568.762633 
L 365.374205 569.204766 
L 367.801364 569.151519 
L 370.228523 569.253165 
L 372.655682 569.088155 
L 375.082841 569.084147 
L 379.937159 568.146355 
L 382.364318 568.123295 
L 384.791477 567.868285 
L 387.218636 567.746787 
L 389.645795 568.332304 
L 392.072955 569.965119 
L 394.500114 569.227754 
L 396.927273 568.843324 
L 399.354432 569.074703 
L 401.781591 567.779638 
L 404.20875 568.769477 
L 406.635909 569.232882 
L 409.063068 568.938805 
L 411.490227 568.478477 
L 413.917386 569.035428 
L 416.344545 568.801504 
L 418.771705 568.698289 
L 421.198864 568.395491 
L 423.626023 568.768641 
L 430.9075 568.431304 
L 433.334659 568.502718 
L 435.761818 568.226135 
L 438.188977 568.812219 
L 440.616136 567.897323 
L 443.043295 568.451371 
L 445.470455 568.826369 
L 447.897614 568.70547 
L 450.324773 567.987316 
L 452.751932 567.736023 
L 455.179091 568.395459 
L 457.60625 568.676791 
L 460.033409 567.994638 
L 462.460568 569.094328 
L 464.887727 569.162078 
L 467.314886 568.389705 
L 469.742045 568.207808 
L 472.169205 568.751783 
L 474.596364 568.878792 
L 479.450682 568.478051 
L 481.877841 568.934324 
L 484.305 569.216016 
L 486.732159 568.762129 
L 494.013636 568.651612 
L 496.440795 568.500945 
L 498.867955 568.844268 
L 501.295114 568.75483 
L 503.722273 568.539065 
L 506.149432 569.197773 
L 508.576591 568.523966 
L 511.00375 568.927699 
L 513.430909 568.858571 
L 515.858068 568.475516 
L 518.285227 568.753281 
L 520.712386 568.733067 
L 523.139545 569.094265 
L 525.566705 569.318345 
L 527.993864 569.296132 
L 530.421023 569.064121 
L 532.848182 569.081636 
L 535.275341 568.920211 
L 537.7025 568.48998 
L 540.129659 568.396036 
L 544.983977 569.143996 
L 547.411136 568.73196 
L 549.838295 568.801367 
L 552.265455 568.374057 
L 554.692614 568.487875 
L 557.119773 569.164778 
L 559.546932 569.086041 
L 561.974091 569.153933 
L 564.40125 568.36948 
L 566.828409 569.023784 
L 569.255568 568.183514 
L 571.682727 569.069137 
L 576.537045 569.464746 
L 578.964205 569.373322 
L 581.391364 568.766292 
L 583.818523 568.916827 
L 586.245682 568.517805 
L 588.672841 568.274824 
L 591.1 568.910814 
L 593.527159 569.177946 
L 595.954318 568.641598 
L 600.808636 568.044008 
L 603.235795 568.008415 
L 605.662955 568.496531 
L 608.090114 568.816175 
L 610.517273 568.827661 
L 612.944432 569.143887 
L 615.371591 568.332305 
L 617.79875 568.772719 
L 620.225909 568.388774 
L 622.653068 568.397137 
L 625.080227 568.672785 
L 627.507386 568.419173 
L 629.934545 568.982746 
L 632.361705 568.940971 
L 634.788864 568.443082 
L 637.216023 568.354429 
L 639.643182 568.568351 
L 642.070341 568.384442 
L 644.4975 568.91559 
L 646.924659 569.032519 
L 649.351818 568.419115 
L 651.778977 568.438077 
L 654.206136 568.087587 
L 656.633295 568.879901 
L 659.060455 568.551185 
L 661.487614 569.01699 
L 663.914773 568.650328 
L 666.341932 569.243583 
L 668.769091 569.389256 
L 668.769091 569.389256 
" clip-path="url(#p3c6b43fec4)" style="fill: none; stroke: #0c5da5; stroke-width: 2; stroke-linecap: square"/>
   </g>
   <g id="patch_13">
    <path d="M 57.125 810.01875 
L 57.125 556.19875 
" style="fill: none; stroke: #000000; stroke-linejoin: miter; stroke-linecap: square"/>
   </g>
   <g id="patch_14">
    <path d="M 697.895 810.01875 
L 697.895 556.19875 
" style="fill: none; stroke: #000000; stroke-linejoin: miter; stroke-linecap: square"/>
   </g>
   <g id="patch_15">
    <path d="M 57.125 810.01875 
L 697.895 810.01875 
" style="fill: none; stroke: #000000; stroke-linejoin: miter; stroke-linecap: square"/>
   </g>
   <g id="patch_16">
    <path d="M 57.125 556.19875 
L 697.895 556.19875 
" style="fill: none; stroke: #000000; stroke-linejoin: miter; stroke-linecap: square"/>
   </g>
  </g>
 </g>
 <defs>
  <clipPath id="pf6e797c754">
   <rect x="57.125" y="9.67875" width="640.77" height="253.82"/>
  </clipPath>
  <clipPath id="p8dadeb8bec">
   <rect x="57.125" y="282.93875" width="640.77" height="253.82"/>
  </clipPath>
  <clipPath id="p3c6b43fec4">
   <rect x="57.125" y="556.19875" width="640.77" height="253.82"/>
  </clipPath>
 </defs>
</svg>
