<?xml version="1.0" encoding="utf-8" standalone="no"?>
<!DOCTYPE svg PUBLIC "-//W3C//DTD SVG 1.1//EN"
  "http://www.w3.org/Graphics/SVG/1.1/DTD/svg11.dtd">
<svg xmlns:xlink="http://www.w3.org/1999/xlink" width="475.2pt" height="360pt" viewBox="0 0 475.2 360" xmlns="http://www.w3.org/2000/svg" version="1.1">
 <metadata>
  <rdf:RDF xmlns:dc="http://purl.org/dc/elements/1.1/" xmlns:cc="http://creativecommons.org/ns#" xmlns:rdf="http://www.w3.org/1999/02/22-rdf-syntax-ns#">
   <cc:Work>
    <dc:type rdf:resource="http://purl.org/dc/dcmitype/StillImage"/>
    <dc:format>image/svg+xml</dc:format>
    <dc:creator>
     <cc:Agent>
      <dc:title>Matplotlib v3.10.3, https://matplotlib.org/</dc:title>
     </cc:Agent>
    </dc:creator>
   </cc:Work>
  </rdf:RDF>
 </metadata>
 <defs>
  <style type="text/css">*{stroke-linejoin: round; stroke-linecap: butt}</style>
 </defs>
 <g id="figure_1">
  <g id="patch_1">
   <path d="M 0 360 
L 475.2 360 
L 475.2 0 
L 0 0 
z
" style="fill: #ffffff"/>
  </g>
  <g id="axes_1">
   <g id="patch_2">
    <path d="M 57.024 182.408027 
L 460.944 182.408027 
L 460.944 36 
L 57.024 36 
z
" style="fill: #ffffff"/>
   </g>
   <g id="line2d_1">
    <path d="M 258.984 182.408027 
L 258.984 36 
" clip-path="url(#p0adec5672e)" style="fill: none; stroke-dasharray: 1,1.65; stroke-dashoffset: 0; stroke: #d55e00; stroke-opacity: 0.7"/>
   </g>
   <g id="matplotlib.axis_1">
    <g id="xtick_1">
     <g id="line2d_2">
      <defs>
       <path id="mce6e8c3d6d" d="M 0 0 
L 0 3 
" style="stroke: #9ba2a9; stroke-width: 0.8"/>
      </defs>
      <g>
       <use xlink:href="#mce6e8c3d6d" x="66.641143" y="182.408027" style="fill: #9ba2a9; stroke: #9ba2a9; stroke-width: 0.8"/>
      </g>
     </g>
    </g>
    <g id="xtick_2">
     <g id="line2d_3">
      <g>
       <use xlink:href="#mce6e8c3d6d" x="258.984" y="182.408027" style="fill: #9ba2a9; stroke: #9ba2a9; stroke-width: 0.8"/>
      </g>
     </g>
    </g>
    <g id="xtick_3">
     <g id="line2d_4">
      <g>
       <use xlink:href="#mce6e8c3d6d" x="451.326857" y="182.408027" style="fill: #9ba2a9; stroke: #9ba2a9; stroke-width: 0.8"/>
      </g>
     </g>
    </g>
   </g>
   <g id="matplotlib.axis_2">
    <g id="ytick_1">
     <g id="line2d_5">
      <defs>
       <path id="m0e0f1074fd" d="M 0 0 
L -3 0 
" style="stroke: #9ba2a9; stroke-width: 0.8"/>
      </defs>
      <g>
       <use xlink:href="#m0e0f1074fd" x="57.024" y="169.435164" style="fill: #9ba2a9; stroke: #9ba2a9; stroke-width: 0.8"/>
      </g>
     </g>
     <g id="text_1">
      <!-- 1 -->
      <g transform="translate(44.1615 173.234382) scale(0.1 -0.1)">
       <defs>
        <path id="DejaVuSerif-31" d="M 909 0 
L 909 331 
L 1722 331 
L 1722 4213 
L 781 3603 
L 781 4013 
L 1919 4750 
L 2350 4750 
L 2350 331 
L 3163 331 
L 3163 0 
L 909 0 
z
" transform="scale(0.015625)"/>
       </defs>
       <use xlink:href="#DejaVuSerif-31"/>
      </g>
     </g>
    </g>
    <g id="ytick_2">
     <g id="line2d_6">
      <g>
       <use xlink:href="#m0e0f1074fd" x="57.024" y="132.36984" style="fill: #9ba2a9; stroke: #9ba2a9; stroke-width: 0.8"/>
      </g>
     </g>
     <g id="text_2">
      <!-- 2 -->
      <g transform="translate(44.1615 136.169059) scale(0.1 -0.1)">
       <defs>
        <path id="DejaVuSerif-32" d="M 819 3553 
L 469 3553 
L 469 4384 
Q 803 4563 1142 4656 
Q 1481 4750 1806 4750 
Q 2534 4750 2956 4397 
Q 3378 4044 3378 3438 
Q 3378 2753 2422 1800 
Q 2347 1728 2309 1691 
L 1131 513 
L 3078 513 
L 3078 1088 
L 3444 1088 
L 3444 0 
L 434 0 
L 434 341 
L 1850 1753 
Q 2319 2222 2519 2614 
Q 2719 3006 2719 3438 
Q 2719 3909 2473 4175 
Q 2228 4441 1797 4441 
Q 1350 4441 1106 4219 
Q 863 3997 819 3553 
z
" transform="scale(0.015625)"/>
       </defs>
       <use xlink:href="#DejaVuSerif-32"/>
      </g>
     </g>
    </g>
    <g id="ytick_3">
     <g id="line2d_7">
      <g>
       <use xlink:href="#m0e0f1074fd" x="57.024" y="95.304517" style="fill: #9ba2a9; stroke: #9ba2a9; stroke-width: 0.8"/>
      </g>
     </g>
     <g id="text_3">
      <!-- 3 -->
      <g transform="translate(44.1615 99.103736) scale(0.1 -0.1)">
       <defs>
        <path id="DejaVuSerif-33" d="M 622 4469 
Q 988 4606 1323 4678 
Q 1659 4750 1953 4750 
Q 2638 4750 3022 4454 
Q 3406 4159 3406 3634 
Q 3406 3213 3140 2930 
Q 2875 2647 2388 2547 
Q 2963 2466 3280 2130 
Q 3597 1794 3597 1259 
Q 3597 606 3158 257 
Q 2719 -91 1894 -91 
Q 1528 -91 1179 -12 
Q 831 66 488 225 
L 488 1131 
L 838 1131 
Q 869 681 1141 450 
Q 1413 219 1906 219 
Q 2384 219 2661 495 
Q 2938 772 2938 1253 
Q 2938 1803 2653 2086 
Q 2369 2369 1819 2369 
L 1522 2369 
L 1522 2688 
L 1678 2688 
Q 2225 2688 2498 2914 
Q 2772 3141 2772 3597 
Q 2772 4006 2547 4223 
Q 2322 4441 1900 4441 
Q 1478 4441 1245 4241 
Q 1013 4041 972 3647 
L 622 3647 
L 622 4469 
z
" transform="scale(0.015625)"/>
       </defs>
       <use xlink:href="#DejaVuSerif-33"/>
      </g>
     </g>
    </g>
    <g id="ytick_4">
     <g id="line2d_8">
      <g>
       <use xlink:href="#m0e0f1074fd" x="57.024" y="58.239194" style="fill: #9ba2a9; stroke: #9ba2a9; stroke-width: 0.8"/>
      </g>
     </g>
     <g id="text_4">
      <!-- 4 -->
      <g transform="translate(44.1615 62.038413) scale(0.1 -0.1)">
       <defs>
        <path id="DejaVuSerif-34" d="M 2234 1581 
L 2234 4063 
L 641 1581 
L 2234 1581 
z
M 3609 0 
L 1484 0 
L 1484 331 
L 2234 331 
L 2234 1247 
L 197 1247 
L 197 1588 
L 2241 4750 
L 2859 4750 
L 2859 1581 
L 3750 1581 
L 3750 1247 
L 2859 1247 
L 2859 331 
L 3609 331 
L 3609 0 
z
" transform="scale(0.015625)"/>
       </defs>
       <use xlink:href="#DejaVuSerif-34"/>
      </g>
     </g>
    </g>
    <g id="text_5">
     <!-- state $x_h(t)$ -->
     <g transform="translate(37.873844 134.559013) rotate(-90) scale(0.11 -0.11)">
      <defs>
       <path id="DejaVuSerif-73" d="M 359 184 
L 359 959 
L 691 959 
Q 703 588 923 403 
Q 1144 219 1575 219 
Q 1963 219 2166 364 
Q 2369 509 2369 788 
Q 2369 1006 2220 1140 
Q 2072 1275 1594 1428 
L 1178 1569 
Q 750 1706 558 1912 
Q 366 2119 366 2438 
Q 366 2894 700 3153 
Q 1034 3413 1625 3413 
Q 1888 3413 2178 3344 
Q 2469 3275 2778 3144 
L 2778 2419 
L 2447 2419 
Q 2434 2741 2221 2922 
Q 2009 3103 1644 3103 
Q 1281 3103 1095 2975 
Q 909 2847 909 2591 
Q 909 2381 1050 2254 
Q 1191 2128 1613 1997 
L 2069 1856 
Q 2541 1709 2748 1489 
Q 2956 1269 2956 922 
Q 2956 450 2595 179 
Q 2234 -91 1600 -91 
Q 1278 -91 972 -22 
Q 666 47 359 184 
z
" transform="scale(0.015625)"/>
       <path id="DejaVuSerif-74" d="M 691 2988 
L 184 2988 
L 184 3322 
L 691 3322 
L 691 4353 
L 1269 4353 
L 1269 3322 
L 2350 3322 
L 2350 2988 
L 1269 2988 
L 1269 878 
Q 1269 456 1350 337 
Q 1431 219 1650 219 
Q 1875 219 1978 351 
Q 2081 484 2088 781 
L 2522 781 
Q 2497 328 2275 118 
Q 2053 -91 1600 -91 
Q 1103 -91 897 129 
Q 691 350 691 878 
L 691 2988 
z
" transform="scale(0.015625)"/>
       <path id="DejaVuSerif-61" d="M 2547 1044 
L 2547 1747 
L 1806 1747 
Q 1378 1747 1168 1562 
Q 959 1378 959 997 
Q 959 650 1171 447 
Q 1384 244 1747 244 
Q 2106 244 2326 466 
Q 2547 688 2547 1044 
z
M 3122 2075 
L 3122 331 
L 3634 331 
L 3634 0 
L 2547 0 
L 2547 359 
Q 2356 128 2106 18 
Q 1856 -91 1522 -91 
Q 969 -91 644 203 
Q 319 497 319 997 
Q 319 1513 691 1797 
Q 1063 2081 1741 2081 
L 2547 2081 
L 2547 2309 
Q 2547 2688 2317 2895 
Q 2088 3103 1672 3103 
Q 1328 3103 1125 2947 
Q 922 2791 872 2484 
L 575 2484 
L 575 3156 
Q 875 3284 1158 3348 
Q 1441 3413 1709 3413 
Q 2400 3413 2761 3070 
Q 3122 2728 3122 2075 
z
" transform="scale(0.015625)"/>
       <path id="DejaVuSerif-65" d="M 3469 1600 
L 991 1600 
L 991 1575 
Q 991 903 1244 561 
Q 1497 219 1991 219 
Q 2369 219 2611 417 
Q 2853 616 2950 1006 
L 3413 1006 
Q 3275 459 2904 184 
Q 2534 -91 1931 -91 
Q 1203 -91 761 389 
Q 319 869 319 1663 
Q 319 2450 753 2931 
Q 1188 3413 1894 3413 
Q 2647 3413 3050 2948 
Q 3453 2484 3469 1600 
z
M 2791 1931 
Q 2772 2513 2545 2808 
Q 2319 3103 1894 3103 
Q 1497 3103 1269 2806 
Q 1041 2509 991 1931 
L 2791 1931 
z
" transform="scale(0.015625)"/>
       <path id="DejaVuSerif-20" transform="scale(0.015625)"/>
       <path id="STIXGeneral-Italic-78" d="M 1555 2272 
L 1632 1907 
Q 1971 2426 2179 2624 
Q 2387 2822 2598 2822 
Q 2714 2822 2787 2755 
Q 2861 2688 2861 2585 
Q 2861 2483 2800 2419 
Q 2739 2355 2643 2355 
Q 2586 2355 2490 2409 
Q 2394 2464 2310 2464 
Q 2125 2464 1683 1690 
Q 1683 1606 1734 1402 
L 1939 544 
Q 2003 282 2131 282 
Q 2234 282 2432 538 
Q 2451 563 2476 598 
Q 2502 634 2521 662 
Q 2541 691 2566 717 
L 2662 659 
Q 2387 230 2227 80 
Q 2067 -70 1882 -70 
Q 1728 -70 1645 26 
Q 1562 122 1504 365 
L 1318 1126 
L 755 365 
Q 557 96 432 13 
Q 307 -70 147 -70 
Q 0 -70 -86 0 
Q -173 70 -173 198 
Q -173 294 -112 361 
Q -51 429 45 429 
Q 122 429 250 358 
Q 346 301 416 301 
Q 525 301 742 614 
L 1267 1357 
L 1088 2150 
Q 1024 2432 969 2509 
Q 915 2586 794 2586 
Q 717 2586 544 2541 
L 429 2509 
L 410 2611 
L 480 2637 
Q 992 2822 1229 2822 
Q 1350 2822 1420 2707 
Q 1491 2592 1555 2272 
z
" transform="scale(0.015625)"/>
       <path id="STIXGeneral-Italic-68" d="M 2976 755 
L 3059 672 
Q 2765 256 2566 99 
Q 2368 -58 2125 -58 
Q 1997 -58 1920 16 
Q 1843 90 1843 211 
Q 1843 320 1971 800 
L 2323 2125 
Q 2368 2304 2368 2336 
Q 2368 2496 2189 2496 
Q 2016 2496 1744 2240 
Q 1472 1984 1216 1600 
Q 1018 1293 902 1001 
Q 787 710 602 0 
L 122 0 
L 1056 3546 
Q 1139 3866 1139 3942 
Q 1139 4019 1056 4060 
Q 973 4102 877 4102 
L 704 4102 
L 704 4198 
Q 1190 4256 1709 4371 
L 1754 4333 
L 979 1472 
Q 1811 2822 2451 2822 
Q 2662 2822 2764 2704 
Q 2867 2586 2867 2394 
Q 2867 2118 2560 1158 
Q 2349 512 2349 358 
Q 2349 243 2451 243 
Q 2528 243 2621 336 
Q 2714 429 2976 755 
z
" transform="scale(0.015625)"/>
       <path id="STIXGeneral-Regular-28" d="M 1946 -1030 
L 1869 -1133 
Q 1126 -710 716 32 
Q 307 774 307 1613 
Q 307 3386 1888 4326 
L 1946 4224 
Q 1293 3667 1075 3126 
Q 858 2586 858 1632 
Q 858 685 1082 96 
Q 1306 -493 1946 -1030 
z
" transform="scale(0.015625)"/>
       <path id="STIXGeneral-Italic-74" d="M 1894 2739 
L 1862 2534 
L 1325 2534 
L 768 435 
Q 755 384 755 346 
Q 755 243 851 243 
Q 928 243 1030 342 
Q 1133 442 1370 749 
L 1453 704 
Q 1158 256 969 93 
Q 781 -70 538 -70 
Q 243 -70 243 166 
Q 243 230 346 640 
L 845 2534 
L 365 2534 
L 358 2573 
Q 358 2688 570 2733 
Q 730 2771 992 2979 
Q 1254 3187 1421 3437 
Q 1459 3494 1510 3494 
Q 1568 3494 1568 3443 
Q 1568 3411 1562 3398 
L 1382 2739 
L 1894 2739 
z
" transform="scale(0.015625)"/>
       <path id="STIXGeneral-Regular-29" d="M 186 4224 
L 262 4326 
Q 992 3891 1408 3148 
Q 1824 2406 1824 1581 
Q 1824 -166 243 -1133 
L 186 -1030 
Q 845 -486 1059 54 
Q 1274 595 1274 1562 
Q 1274 2534 1059 3120 
Q 845 3706 186 4224 
z
" transform="scale(0.015625)"/>
      </defs>
      <use xlink:href="#DejaVuSerif-73" transform="translate(0 0.984375)"/>
      <use xlink:href="#DejaVuSerif-74" transform="translate(51.318359 0.984375)"/>
      <use xlink:href="#DejaVuSerif-61" transform="translate(91.503906 0.984375)"/>
      <use xlink:href="#DejaVuSerif-74" transform="translate(151.123047 0.984375)"/>
      <use xlink:href="#DejaVuSerif-65" transform="translate(191.308594 0.984375)"/>
      <use xlink:href="#DejaVuSerif-20" transform="translate(250.488281 0.984375)"/>
      <use xlink:href="#STIXGeneral-Italic-78" transform="translate(282.275391 0.984375)"/>
      <use xlink:href="#STIXGeneral-Italic-68" transform="translate(326.675385 -12.24375) scale(0.7)"/>
      <use xlink:href="#STIXGeneral-Regular-28" transform="translate(366.084749 0.984375)"/>
      <use xlink:href="#STIXGeneral-Italic-74" transform="translate(399.384737 0.984375)"/>
      <use xlink:href="#STIXGeneral-Regular-29" transform="translate(427.184724 0.984375)"/>
     </g>
    </g>
   </g>
   <g id="line2d_9">
    <path d="M 66.641143 169.435164 
L 82.028571 167.833942 
L 97.416 165.995502 
L 112.803429 163.919844 
L 128.190857 161.606967 
L 143.578286 159.056873 
L 158.965714 156.269561 
L 174.353143 153.24503 
L 189.740571 149.983282 
L 205.128 146.484315 
L 220.515429 142.748131 
L 235.902857 138.774728 
L 251.290286 134.564108 
L 266.677714 130.116269 
L 282.065143 125.431212 
L 297.452571 120.508937 
L 312.84 115.349444 
L 328.227429 109.952733 
L 343.614857 104.318804 
L 359.002286 98.447657 
L 374.389714 92.339291 
L 389.777143 85.993708 
L 405.164571 79.410907 
L 420.552 72.590887 
L 435.939429 65.53365 
L 451.326857 58.239194 
L 451.326857 58.239194 
" clip-path="url(#p0adec5672e)" style="fill: none; stroke: #0072b2; stroke-width: 2.5; stroke-linecap: square"/>
   </g>
   <g id="line2d_10">
    <path d="M 182.046857 154.609034 
L 335.921143 110.130646 
" clip-path="url(#p0adec5672e)" style="fill: none; stroke-dasharray: 7.4,3.2; stroke-dashoffset: 0; stroke: #d55e00; stroke-width: 2"/>
   </g>
   <g id="patch_3">
    <path d="M 57.024 182.408027 
L 57.024 36 
" style="fill: none; stroke: #9ba2a9; stroke-width: 0.8; stroke-linejoin: miter; stroke-linecap: square"/>
   </g>
   <g id="patch_4">
    <path d="M 57.024 182.408027 
L 460.944 182.408027 
" style="fill: none; stroke: #9ba2a9; stroke-width: 0.8; stroke-linejoin: miter; stroke-linecap: square"/>
   </g>
   <g id="patch_5">
    <path d="M 143.191425 120.900174 
Q 200.092973 126.536475 255.881933 132.06257 
" style="fill: none; stroke: #d55e00; stroke-linecap: round"/>
    <path d="M 251.720217 129.43957 
L 255.881933 132.06257 
L 251.286504 133.818142 
" style="fill: none; stroke: #d55e00; stroke-linecap: round"/>
   </g>
   <g id="text_6">
    <!-- $x_{k,j}=2$ -->
    <g style="fill: #d55e00" transform="translate(108.956571 121.250243) scale(0.11 -0.11)">
     <defs>
      <path id="STIXGeneral-Italic-6b" d="M 2950 2739 
L 2950 2637 
Q 2720 2624 2464 2448 
Q 2208 2272 1510 1651 
L 1747 1088 
Q 2099 262 2266 262 
Q 2400 262 2554 531 
Q 2586 582 2650 698 
L 2746 627 
Q 2522 224 2374 77 
Q 2227 -70 2035 -70 
Q 1894 -70 1782 42 
Q 1670 154 1517 454 
Q 1325 826 1133 1357 
L 877 1152 
L 570 0 
L 90 0 
L 992 3379 
Q 1082 3699 1107 3942 
Q 1088 4096 781 4096 
L 666 4096 
L 666 4198 
Q 1146 4256 1670 4371 
L 1709 4333 
L 941 1414 
L 1216 1626 
Q 2131 2330 2131 2522 
Q 2131 2637 1894 2637 
L 1805 2637 
L 1805 2739 
L 2950 2739 
z
" transform="scale(0.015625)"/>
      <path id="STIXGeneral-Regular-2c" d="M 531 -902 
L 467 -781 
Q 998 -422 998 -96 
Q 998 -13 909 -13 
Q 883 -13 822 -25 
Q 762 -38 723 -38 
Q 352 -38 352 288 
Q 352 454 457 553 
Q 563 653 736 653 
Q 954 653 1101 496 
Q 1248 339 1248 96 
Q 1248 -198 1053 -473 
Q 858 -749 531 -902 
z
" transform="scale(0.015625)"/>
      <path id="STIXGeneral-Italic-6a" d="M 1786 3827 
Q 1786 3699 1690 3603 
Q 1594 3507 1466 3507 
Q 1318 3507 1219 3600 
Q 1120 3693 1120 3840 
Q 1120 3981 1222 4077 
Q 1325 4173 1459 4173 
Q 1587 4173 1686 4067 
Q 1786 3962 1786 3827 
z
M 1574 2803 
L 909 179 
Q 710 -595 419 -960 
Q 128 -1325 -288 -1325 
Q -512 -1325 -653 -1216 
Q -794 -1107 -794 -934 
Q -794 -819 -717 -736 
Q -640 -653 -531 -653 
Q -282 -653 -282 -890 
Q -282 -966 -320 -1014 
Q -358 -1062 -358 -1107 
Q -358 -1184 -243 -1184 
Q -51 -1184 80 -934 
Q 211 -685 378 -19 
L 838 1850 
Q 941 2266 941 2362 
Q 941 2470 873 2515 
Q 806 2560 634 2560 
L 467 2560 
L 467 2662 
Q 755 2682 1549 2822 
L 1574 2803 
z
" transform="scale(0.015625)"/>
      <path id="STIXGeneral-Regular-3d" d="M 4077 2048 
L 307 2048 
L 307 2470 
L 4077 2470 
L 4077 2048 
z
M 4077 768 
L 307 768 
L 307 1190 
L 4077 1190 
L 4077 768 
z
" transform="scale(0.015625)"/>
      <path id="STIXGeneral-Regular-32" d="M 3034 877 
L 2688 0 
L 186 0 
L 186 77 
L 1325 1286 
Q 1773 1754 1965 2144 
Q 2157 2534 2157 2950 
Q 2157 3379 1920 3616 
Q 1683 3853 1267 3853 
Q 922 3853 720 3673 
Q 518 3494 326 3021 
L 192 3053 
Q 301 3648 630 3987 
Q 960 4326 1523 4326 
Q 2054 4326 2380 4006 
Q 2707 3686 2707 3200 
Q 2707 2477 1888 1613 
L 832 486 
L 2330 486 
Q 2541 486 2665 569 
Q 2790 653 2944 915 
L 3034 877 
z
" transform="scale(0.015625)"/>
     </defs>
     <use xlink:href="#STIXGeneral-Italic-78" transform="translate(0 0.40625)"/>
     <use xlink:href="#STIXGeneral-Italic-6b" transform="translate(44.399994 -12.821875) scale(0.7)"/>
     <use xlink:href="#STIXGeneral-Regular-2c" transform="translate(75.47999 -12.821875) scale(0.7)"/>
     <use xlink:href="#STIXGeneral-Italic-6a" transform="translate(103.087976 -12.821875) scale(0.7)"/>
     <use xlink:href="#STIXGeneral-Regular-3d" transform="translate(141.397339 0.40625)"/>
     <use xlink:href="#STIXGeneral-Regular-32" transform="translate(224.33732 0.40625)"/>
    </g>
   </g>
   <g id="patch_6">
    <path d="M 340.342265 142.243901 
Q 333.754117 128.477778 327.64861 115.720146 
" style="fill: none; stroke: #d55e00; stroke-linecap: round"/>
    <path d="M 327.571313 120.191614 
L 327.64861 115.720146 
L 331.179406 118.464865 
" style="fill: none; stroke: #d55e00; stroke-linecap: round"/>
   </g>
   <g id="text_7">
    <!-- tangent slope -->
    <g style="fill: #d55e00" transform="translate(312.84 153.647325) scale(0.1 -0.1)">
     <defs>
      <path id="DejaVuSerif-6e" d="M 263 0 
L 263 331 
L 781 331 
L 781 2988 
L 231 2988 
L 231 3322 
L 1356 3322 
L 1356 2731 
Q 1516 3069 1770 3241 
Q 2025 3413 2363 3413 
Q 2913 3413 3172 3097 
Q 3431 2781 3431 2113 
L 3431 331 
L 3944 331 
L 3944 0 
L 2356 0 
L 2356 331 
L 2853 331 
L 2853 1931 
Q 2853 2541 2703 2767 
Q 2553 2994 2175 2994 
Q 1775 2994 1565 2701 
Q 1356 2409 1356 1850 
L 1356 331 
L 1856 331 
L 1856 0 
L 263 0 
z
" transform="scale(0.015625)"/>
      <path id="DejaVuSerif-67" d="M 3359 2988 
L 3359 72 
Q 3359 -644 2965 -1033 
Q 2572 -1422 1844 -1422 
Q 1516 -1422 1216 -1362 
Q 916 -1303 641 -1184 
L 641 -488 
L 941 -488 
Q 997 -813 1206 -963 
Q 1416 -1113 1806 -1113 
Q 2313 -1113 2548 -827 
Q 2784 -541 2784 72 
L 2784 519 
Q 2616 206 2355 57 
Q 2094 -91 1709 -91 
Q 1097 -91 708 395 
Q 319 881 319 1663 
Q 319 2444 706 2928 
Q 1094 3413 1709 3413 
Q 2094 3413 2355 3264 
Q 2616 3116 2784 2803 
L 2784 3322 
L 3909 3322 
L 3909 2988 
L 3359 2988 
z
M 2784 1825 
Q 2784 2422 2554 2737 
Q 2325 3053 1888 3053 
Q 1444 3053 1217 2703 
Q 991 2353 991 1663 
Q 991 975 1217 622 
Q 1444 269 1888 269 
Q 2325 269 2554 583 
Q 2784 897 2784 1497 
L 2784 1825 
z
" transform="scale(0.015625)"/>
      <path id="DejaVuSerif-6c" d="M 1313 331 
L 1856 331 
L 1856 0 
L 184 0 
L 184 331 
L 738 331 
L 738 4531 
L 184 4531 
L 184 4863 
L 1313 4863 
L 1313 331 
z
" transform="scale(0.015625)"/>
      <path id="DejaVuSerif-6f" d="M 1925 219 
Q 2388 219 2623 584 
Q 2859 950 2859 1663 
Q 2859 2375 2623 2739 
Q 2388 3103 1925 3103 
Q 1463 3103 1227 2739 
Q 991 2375 991 1663 
Q 991 950 1228 584 
Q 1466 219 1925 219 
z
M 1925 -91 
Q 1200 -91 759 389 
Q 319 869 319 1663 
Q 319 2456 758 2934 
Q 1197 3413 1925 3413 
Q 2653 3413 3092 2934 
Q 3531 2456 3531 1663 
Q 3531 869 3092 389 
Q 2653 -91 1925 -91 
z
" transform="scale(0.015625)"/>
      <path id="DejaVuSerif-70" d="M 1313 1825 
L 1313 1497 
Q 1313 897 1542 583 
Q 1772 269 2209 269 
Q 2650 269 2876 622 
Q 3103 975 3103 1663 
Q 3103 2353 2876 2703 
Q 2650 3053 2209 3053 
Q 1772 3053 1542 2737 
Q 1313 2422 1313 1825 
z
M 738 2988 
L 184 2988 
L 184 3322 
L 1313 3322 
L 1313 2803 
Q 1481 3116 1742 3264 
Q 2003 3413 2388 3413 
Q 3000 3413 3387 2928 
Q 3775 2444 3775 1663 
Q 3775 881 3387 395 
Q 3000 -91 2388 -91 
Q 2003 -91 1742 57 
Q 1481 206 1313 519 
L 1313 -997 
L 1856 -997 
L 1856 -1331 
L 184 -1331 
L 184 -997 
L 738 -997 
L 738 2988 
z
" transform="scale(0.015625)"/>
     </defs>
     <use xlink:href="#DejaVuSerif-74"/>
     <use xlink:href="#DejaVuSerif-61" transform="translate(40.185547 0)"/>
     <use xlink:href="#DejaVuSerif-6e" transform="translate(99.804688 0)"/>
     <use xlink:href="#DejaVuSerif-67" transform="translate(164.208984 0)"/>
     <use xlink:href="#DejaVuSerif-65" transform="translate(228.222656 0)"/>
     <use xlink:href="#DejaVuSerif-6e" transform="translate(287.402344 0)"/>
     <use xlink:href="#DejaVuSerif-74" transform="translate(351.806641 0)"/>
     <use xlink:href="#DejaVuSerif-20" transform="translate(391.992188 0)"/>
     <use xlink:href="#DejaVuSerif-73" transform="translate(423.779297 0)"/>
     <use xlink:href="#DejaVuSerif-6c" transform="translate(475.097656 0)"/>
     <use xlink:href="#DejaVuSerif-6f" transform="translate(507.080078 0)"/>
     <use xlink:href="#DejaVuSerif-70" transform="translate(567.285156 0)"/>
     <use xlink:href="#DejaVuSerif-65" transform="translate(631.298828 0)"/>
    </g>
    <!-- $f_{k,j}=u_{k,j}=3/2$ -->
    <g style="fill: #d55e00" transform="translate(312.84 164.987325) scale(0.1 -0.1)">
     <defs>
      <path id="STIXGeneral-Italic-66" d="M 262 2739 
L 858 2739 
Q 1107 3546 1318 3846 
Q 1664 4339 2163 4339 
Q 2400 4339 2557 4227 
Q 2714 4115 2714 3942 
Q 2714 3834 2634 3750 
Q 2554 3667 2445 3667 
Q 2355 3667 2281 3737 
Q 2208 3808 2208 3917 
Q 2208 3981 2240 4038 
Q 2272 4096 2272 4115 
Q 2272 4198 2131 4198 
Q 1862 4198 1676 3849 
Q 1491 3501 1350 2739 
L 2035 2739 
L 1997 2534 
L 1306 2534 
L 845 486 
Q 435 -1325 -435 -1325 
Q -653 -1325 -797 -1213 
Q -941 -1101 -941 -934 
Q -941 -826 -870 -746 
Q -800 -666 -698 -666 
Q -589 -666 -521 -733 
Q -454 -800 -454 -902 
Q -454 -947 -483 -1001 
Q -512 -1056 -512 -1088 
Q -512 -1190 -384 -1190 
Q 13 -1190 237 -154 
L 800 2534 
L 218 2534 
L 262 2739 
z
" transform="scale(0.015625)"/>
      <path id="STIXGeneral-Italic-75" d="M 2950 762 
L 3040 704 
Q 2733 237 2560 89 
Q 2387 -58 2157 -58 
Q 1850 -58 1850 250 
Q 1850 538 2138 1510 
Q 1568 576 1257 253 
Q 947 -70 608 -70 
Q 269 -70 269 269 
Q 269 384 442 1088 
L 666 1978 
Q 755 2349 755 2406 
Q 755 2483 684 2521 
Q 614 2560 365 2560 
L 365 2650 
Q 806 2701 1325 2822 
L 1350 2803 
L 781 531 
Q 762 474 762 429 
Q 762 269 890 269 
Q 1178 269 1798 1210 
Q 2010 1530 2128 1795 
Q 2246 2061 2502 2765 
L 2976 2765 
L 2470 851 
Q 2349 390 2349 352 
Q 2349 243 2419 243 
Q 2496 243 2605 345 
Q 2714 448 2950 762 
z
" transform="scale(0.015625)"/>
      <path id="STIXGeneral-Regular-33" d="M 390 3264 
L 288 3290 
Q 435 3770 748 4048 
Q 1062 4326 1542 4326 
Q 1990 4326 2265 4083 
Q 2541 3840 2541 3450 
Q 2541 2925 1946 2566 
Q 2298 2413 2477 2227 
Q 2758 1914 2758 1402 
Q 2758 890 2464 506 
Q 2246 211 1840 60 
Q 1434 -90 979 -90 
Q 262 -90 262 275 
Q 262 378 339 442 
Q 416 506 525 506 
Q 685 506 915 339 
Q 1197 141 1466 141 
Q 1818 141 2058 425 
Q 2298 710 2298 1120 
Q 2298 1856 1632 2048 
Q 1434 2112 979 2112 
L 979 2202 
Q 1338 2323 1517 2432 
Q 2035 2726 2035 3290 
Q 2035 3610 1852 3776 
Q 1670 3942 1344 3942 
Q 768 3942 390 3264 
z
" transform="scale(0.015625)"/>
      <path id="STIXGeneral-Regular-2f" d="M 1837 4326 
L 378 -90 
L -58 -90 
L 1408 4326 
L 1837 4326 
z
" transform="scale(0.015625)"/>
     </defs>
     <use xlink:href="#STIXGeneral-Italic-66" transform="translate(0 0.203125)"/>
     <use xlink:href="#STIXGeneral-Italic-6b" transform="translate(27.799988 -13.025) scale(0.7)"/>
     <use xlink:href="#STIXGeneral-Regular-2c" transform="translate(58.879984 -13.025) scale(0.7)"/>
     <use xlink:href="#STIXGeneral-Italic-6a" transform="translate(86.48797 -13.025) scale(0.7)"/>
     <use xlink:href="#STIXGeneral-Regular-3d" transform="translate(124.797333 0.203125)"/>
     <use xlink:href="#STIXGeneral-Italic-75" transform="translate(207.737314 0.203125)"/>
     <use xlink:href="#STIXGeneral-Italic-6b" transform="translate(257.737299 -13.025) scale(0.7)"/>
     <use xlink:href="#STIXGeneral-Regular-2c" transform="translate(288.817295 -13.025) scale(0.7)"/>
     <use xlink:href="#STIXGeneral-Italic-6a" transform="translate(316.425281 -13.025) scale(0.7)"/>
     <use xlink:href="#STIXGeneral-Regular-3d" transform="translate(354.734644 0.203125)"/>
     <use xlink:href="#STIXGeneral-Regular-33" transform="translate(437.674625 0.203125)"/>
     <use xlink:href="#STIXGeneral-Regular-2f" transform="translate(487.67461 0.203125)"/>
     <use xlink:href="#STIXGeneral-Regular-32" transform="translate(515.474598 0.203125)"/>
    </g>
   </g>
   <g id="text_8">
    <!-- $x_k=1$ -->
    <g style="fill: #303840" transform="translate(82.028571 174.994962) scale(0.11 -0.11)">
     <defs>
      <path id="STIXGeneral-Regular-31" d="M 2522 0 
L 755 0 
L 755 96 
Q 1107 115 1235 227 
Q 1363 339 1363 608 
L 1363 3482 
Q 1363 3795 1171 3795 
Q 1082 3795 883 3718 
L 710 3654 
L 710 3744 
L 1856 4326 
L 1914 4307 
L 1914 486 
Q 1914 275 2042 185 
Q 2170 96 2522 96 
L 2522 0 
z
" transform="scale(0.015625)"/>
     </defs>
     <use xlink:href="#STIXGeneral-Italic-78" transform="translate(0 0.40625)"/>
     <use xlink:href="#STIXGeneral-Italic-6b" transform="translate(44.399994 -12.821875) scale(0.7)"/>
     <use xlink:href="#STIXGeneral-Regular-3d" transform="translate(94.329361 0.40625)"/>
     <use xlink:href="#STIXGeneral-Regular-31" transform="translate(177.269342 0.40625)"/>
    </g>
   </g>
   <g id="text_9">
    <!-- $x_{k+1}=4$ -->
    <g style="fill: #303840" transform="translate(372.466286 54.532662) scale(0.11 -0.11)">
     <defs>
      <path id="STIXGeneral-Regular-2b" d="M 4070 1408 
L 2400 1408 
L 2400 -262 
L 1978 -262 
L 1978 1408 
L 307 1408 
L 307 1830 
L 1978 1830 
L 1978 3501 
L 2400 3501 
L 2400 1830 
L 4070 1830 
L 4070 1408 
z
" transform="scale(0.015625)"/>
      <path id="STIXGeneral-Regular-34" d="M 3027 1069 
L 2368 1069 
L 2368 0 
L 1869 0 
L 1869 1069 
L 77 1069 
L 77 1478 
L 2086 4326 
L 2368 4326 
L 2368 1478 
L 3027 1478 
L 3027 1069 
z
M 1869 1478 
L 1869 3674 
L 333 1478 
L 1869 1478 
z
" transform="scale(0.015625)"/>
     </defs>
     <use xlink:href="#STIXGeneral-Italic-78" transform="translate(0 0.40625)"/>
     <use xlink:href="#STIXGeneral-Italic-6b" transform="translate(44.399994 -12.821875) scale(0.7)"/>
     <use xlink:href="#STIXGeneral-Regular-2b" transform="translate(85.587987 -12.821875) scale(0.7)"/>
     <use xlink:href="#STIXGeneral-Regular-31" transform="translate(143.645974 -12.821875) scale(0.7)"/>
     <use xlink:href="#STIXGeneral-Regular-3d" transform="translate(197.495334 0.40625)"/>
     <use xlink:href="#STIXGeneral-Regular-34" transform="translate(280.435316 0.40625)"/>
    </g>
   </g>
   <g id="text_10">
    <!-- One stage on interval $k$: $\dot x=u$, $h_k=2$ -->
    <g transform="translate(57.024 20) scale(0.12 -0.12)">
     <defs>
      <path id="DejaVuSerif-4f" d="M 2625 244 
Q 3391 244 3781 770 
Q 4172 1297 4172 2328 
Q 4172 3363 3781 3889 
Q 3391 4416 2625 4416 
Q 1856 4416 1465 3889 
Q 1075 3363 1075 2328 
Q 1075 1297 1465 770 
Q 1856 244 2625 244 
z
M 2625 -91 
Q 2150 -91 1751 65 
Q 1353 222 1050 525 
Q 700 875 529 1319 
Q 359 1763 359 2328 
Q 359 2894 529 3339 
Q 700 3784 1050 4134 
Q 1356 4441 1750 4595 
Q 2144 4750 2625 4750 
Q 3641 4750 4266 4084 
Q 4891 3419 4891 2328 
Q 4891 1769 4719 1320 
Q 4547 872 4197 525 
Q 3891 219 3497 64 
Q 3103 -91 2625 -91 
z
" transform="scale(0.015625)"/>
      <path id="DejaVuSerif-69" d="M 622 4353 
Q 622 4497 726 4603 
Q 831 4709 978 4709 
Q 1122 4709 1226 4603 
Q 1331 4497 1331 4353 
Q 1331 4206 1228 4103 
Q 1125 4000 978 4000 
Q 831 4000 726 4103 
Q 622 4206 622 4353 
z
M 1356 331 
L 1900 331 
L 1900 0 
L 231 0 
L 231 331 
L 781 331 
L 781 2988 
L 231 2988 
L 231 3322 
L 1356 3322 
L 1356 331 
z
" transform="scale(0.015625)"/>
      <path id="DejaVuSerif-72" d="M 3059 3328 
L 3059 2497 
L 2728 2497 
Q 2713 2744 2591 2866 
Q 2469 2988 2234 2988 
Q 1809 2988 1582 2694 
Q 1356 2400 1356 1850 
L 1356 331 
L 2022 331 
L 2022 0 
L 263 0 
L 263 331 
L 781 331 
L 781 2994 
L 231 2994 
L 231 3322 
L 1356 3322 
L 1356 2731 
Q 1525 3078 1790 3245 
Q 2056 3413 2438 3413 
Q 2578 3413 2733 3391 
Q 2888 3369 3059 3328 
z
" transform="scale(0.015625)"/>
      <path id="DejaVuSerif-76" d="M 1581 0 
L 359 2988 
L -19 2988 
L -19 3322 
L 1509 3322 
L 1509 2988 
L 978 2988 
L 1913 703 
L 2847 2988 
L 2350 2988 
L 2350 3322 
L 3597 3322 
L 3597 2988 
L 3225 2988 
L 2003 0 
L 1581 0 
z
" transform="scale(0.015625)"/>
      <path id="DejaVuSerif-3a" d="M 666 325 
Q 666 500 786 622 
Q 906 744 1081 744 
Q 1256 744 1376 622 
Q 1497 500 1497 325 
Q 1497 150 1378 29 
Q 1259 -91 1081 -91 
Q 903 -91 784 29 
Q 666 150 666 325 
z
M 666 2363 
Q 666 2538 786 2658 
Q 906 2778 1081 2778 
Q 1259 2778 1378 2659 
Q 1497 2541 1497 2363 
Q 1497 2184 1378 2065 
Q 1259 1947 1081 1947 
Q 906 1947 786 2067 
Q 666 2188 666 2363 
z
" transform="scale(0.015625)"/>
      <path id="STIXGeneral-Regular-307" d="M -1158 3661 
Q -1158 3526 -1251 3436 
Q -1344 3347 -1478 3347 
Q -1606 3347 -1699 3440 
Q -1792 3533 -1792 3661 
Q -1792 3795 -1705 3888 
Q -1619 3981 -1478 3981 
Q -1331 3981 -1244 3891 
Q -1158 3802 -1158 3661 
z
" transform="scale(0.015625)"/>
      <path id="DejaVuSerif-2c" d="M 231 -622 
Q 525 -406 662 -114 
Q 800 178 800 594 
L 800 709 
L 1416 709 
Q 1391 175 1164 -208 
Q 938 -591 481 -872 
L 231 -622 
z
" transform="scale(0.015625)"/>
     </defs>
     <use xlink:href="#DejaVuSerif-4f" transform="translate(0 0.015625)"/>
     <use xlink:href="#DejaVuSerif-6e" transform="translate(81.982422 0.015625)"/>
     <use xlink:href="#DejaVuSerif-65" transform="translate(146.386719 0.015625)"/>
     <use xlink:href="#DejaVuSerif-20" transform="translate(205.566406 0.015625)"/>
     <use xlink:href="#DejaVuSerif-73" transform="translate(237.353516 0.015625)"/>
     <use xlink:href="#DejaVuSerif-74" transform="translate(288.671875 0.015625)"/>
     <use xlink:href="#DejaVuSerif-61" transform="translate(328.857422 0.015625)"/>
     <use xlink:href="#DejaVuSerif-67" transform="translate(388.476562 0.015625)"/>
     <use xlink:href="#DejaVuSerif-65" transform="translate(452.490234 0.015625)"/>
     <use xlink:href="#DejaVuSerif-20" transform="translate(511.669922 0.015625)"/>
     <use xlink:href="#DejaVuSerif-6f" transform="translate(543.457031 0.015625)"/>
     <use xlink:href="#DejaVuSerif-6e" transform="translate(603.662109 0.015625)"/>
     <use xlink:href="#DejaVuSerif-20" transform="translate(668.066406 0.015625)"/>
     <use xlink:href="#DejaVuSerif-69" transform="translate(699.853516 0.015625)"/>
     <use xlink:href="#DejaVuSerif-6e" transform="translate(731.835938 0.015625)"/>
     <use xlink:href="#DejaVuSerif-74" transform="translate(796.240234 0.015625)"/>
     <use xlink:href="#DejaVuSerif-65" transform="translate(836.425781 0.015625)"/>
     <use xlink:href="#DejaVuSerif-72" transform="translate(895.605469 0.015625)"/>
     <use xlink:href="#DejaVuSerif-76" transform="translate(943.408203 0.015625)"/>
     <use xlink:href="#DejaVuSerif-61" transform="translate(999.902344 0.015625)"/>
     <use xlink:href="#DejaVuSerif-6c" transform="translate(1059.521484 0.015625)"/>
     <use xlink:href="#DejaVuSerif-20" transform="translate(1091.503906 0.015625)"/>
     <use xlink:href="#STIXGeneral-Italic-6b" transform="translate(1123.291016 0.015625)"/>
     <use xlink:href="#DejaVuSerif-3a" transform="translate(1167.69101 0.015625)"/>
     <use xlink:href="#DejaVuSerif-20" transform="translate(1201.382416 0.015625)"/>
     <use xlink:href="#STIXGeneral-Regular-307" transform="translate(1286.017181 4.3125)"/>
     <use xlink:href="#STIXGeneral-Italic-78" transform="translate(1233.169525 0.015625)"/>
     <use xlink:href="#STIXGeneral-Regular-3d" transform="translate(1295.000146 0.015625)"/>
     <use xlink:href="#STIXGeneral-Italic-75" transform="translate(1377.940128 0.015625)"/>
     <use xlink:href="#DejaVuSerif-2c" transform="translate(1427.940112 0.015625)"/>
     <use xlink:href="#DejaVuSerif-20" transform="translate(1459.727222 0.015625)"/>
     <use xlink:href="#STIXGeneral-Italic-68" transform="translate(1491.514331 0.015625)"/>
     <use xlink:href="#STIXGeneral-Italic-6b" transform="translate(1541.514316 -13.2125) scale(0.7)"/>
     <use xlink:href="#STIXGeneral-Regular-3d" transform="translate(1591.443683 0.015625)"/>
     <use xlink:href="#STIXGeneral-Regular-32" transform="translate(1674.383664 0.015625)"/>
    </g>
   </g>
   <g id="PathCollection_1">
    <defs>
     <path id="m43bf27a0ae" d="M -2.5 2.5 
L 2.5 2.5 
L 2.5 -2.5 
L -2.5 -2.5 
z
" style="stroke: #303840"/>
    </defs>
    <g clip-path="url(#p0adec5672e)">
     <use xlink:href="#m43bf27a0ae" x="66.641143" y="169.435164" style="fill: #303840; stroke: #303840"/>
     <use xlink:href="#m43bf27a0ae" x="451.326857" y="58.239194" style="fill: #303840; stroke: #303840"/>
    </g>
   </g>
   <g id="PathCollection_2">
    <defs>
     <path id="m23c764953a" d="M 0 3.162278 
C 0.838646 3.162278 1.643056 2.82908 2.236068 2.236068 
C 2.82908 1.643056 3.162278 0.838646 3.162278 0 
C 3.162278 -0.838646 2.82908 -1.643056 2.236068 -2.236068 
C 1.643056 -2.82908 0.838646 -3.162278 0 -3.162278 
C -0.838646 -3.162278 -1.643056 -2.82908 -2.236068 -2.236068 
C -2.82908 -1.643056 -3.162278 -0.838646 -3.162278 0 
C -3.162278 0.838646 -2.82908 1.643056 -2.236068 2.236068 
C -1.643056 2.82908 -0.838646 3.162278 0 3.162278 
z
" style="stroke: #d55e00"/>
    </defs>
    <g clip-path="url(#p0adec5672e)">
     <use xlink:href="#m23c764953a" x="258.984" y="132.36984" style="fill: #d55e00; stroke: #d55e00"/>
    </g>
   </g>
  </g>
  <g id="axes_2">
   <g id="patch_7">
    <path d="M 57.024 309.6 
L 460.944 309.6 
L 460.944 218.094983 
L 57.024 218.094983 
z
" style="fill: #ffffff"/>
   </g>
   <g id="line2d_11">
    <path d="M 258.984 309.6 
L 258.984 218.094983 
" clip-path="url(#p5b06da1510)" style="fill: none; stroke-dasharray: 1,1.65; stroke-dashoffset: 0; stroke: #d55e00; stroke-opacity: 0.7"/>
   </g>
   <g id="matplotlib.axis_3">
    <g id="xtick_4">
     <g id="line2d_12">
      <g>
       <use xlink:href="#mce6e8c3d6d" x="66.641143" y="309.6" style="fill: #9ba2a9; stroke: #9ba2a9; stroke-width: 0.8"/>
      </g>
     </g>
     <g id="text_11">
      <!-- $t_k=2$ -->
      <g transform="translate(56.091143 323.698438) scale(0.1 -0.1)">
       <use xlink:href="#STIXGeneral-Italic-74" transform="translate(0 0.40625)"/>
       <use xlink:href="#STIXGeneral-Italic-6b" transform="translate(27.799988 -12.821875) scale(0.7)"/>
       <use xlink:href="#STIXGeneral-Regular-3d" transform="translate(77.729355 0.40625)"/>
       <use xlink:href="#STIXGeneral-Regular-32" transform="translate(160.669336 0.40625)"/>
      </g>
     </g>
    </g>
    <g id="xtick_5">
     <g id="line2d_13">
      <g>
       <use xlink:href="#mce6e8c3d6d" x="258.984" y="309.6" style="fill: #9ba2a9; stroke: #9ba2a9; stroke-width: 0.8"/>
      </g>
     </g>
     <g id="text_12">
      <!-- $t_k+h_k\tau_j=3$ -->
      <g transform="translate(236.034 323) scale(0.1 -0.1)">
       <defs>
        <path id="STIXGeneral-Italic-3c4" d="M 2726 2739 
L 2592 2266 
L 1741 2266 
Q 1293 1248 1293 742 
Q 1293 416 1523 416 
Q 1638 416 1779 547 
Q 1920 678 2003 858 
L 2106 858 
Q 1990 467 1731 198 
Q 1472 -70 1178 -70 
Q 768 -70 768 384 
Q 768 890 1395 2266 
L 1005 2266 
Q 493 2266 179 1702 
L 77 1702 
Q 237 2093 569 2416 
Q 902 2739 1331 2739 
L 2726 2739 
z
" transform="scale(0.015625)"/>
       </defs>
       <use xlink:href="#STIXGeneral-Italic-74" transform="translate(0 0.703125)"/>
       <use xlink:href="#STIXGeneral-Italic-6b" transform="translate(27.799988 -12.525) scale(0.7)"/>
       <use xlink:href="#STIXGeneral-Regular-2b" transform="translate(77.729355 0.703125)"/>
       <use xlink:href="#STIXGeneral-Italic-68" transform="translate(160.669336 0.703125)"/>
       <use xlink:href="#STIXGeneral-Italic-6b" transform="translate(210.669321 -12.525) scale(0.7)"/>
       <use xlink:href="#STIXGeneral-Italic-3c4" transform="translate(246.158691 0.703125)"/>
       <use xlink:href="#STIXGeneral-Italic-6a" transform="translate(287.158676 -12.525) scale(0.7)"/>
       <use xlink:href="#STIXGeneral-Regular-3d" transform="translate(325.468039 0.703125)"/>
       <use xlink:href="#STIXGeneral-Regular-33" transform="translate(408.40802 0.703125)"/>
      </g>
     </g>
    </g>
    <g id="xtick_6">
     <g id="line2d_14">
      <g>
       <use xlink:href="#mce6e8c3d6d" x="451.326857" y="309.6" style="fill: #9ba2a9; stroke: #9ba2a9; stroke-width: 0.8"/>
      </g>
     </g>
     <g id="text_13">
      <!-- $t_{k+1}=4$ -->
      <g transform="translate(435.626857 323.698438) scale(0.1 -0.1)">
       <use xlink:href="#STIXGeneral-Italic-74" transform="translate(0 0.40625)"/>
       <use xlink:href="#STIXGeneral-Italic-6b" transform="translate(27.799988 -12.821875) scale(0.7)"/>
       <use xlink:href="#STIXGeneral-Regular-2b" transform="translate(68.987981 -12.821875) scale(0.7)"/>
       <use xlink:href="#STIXGeneral-Regular-31" transform="translate(127.045968 -12.821875) scale(0.7)"/>
       <use xlink:href="#STIXGeneral-Regular-3d" transform="translate(180.895328 0.40625)"/>
       <use xlink:href="#STIXGeneral-Regular-34" transform="translate(263.835309 0.40625)"/>
      </g>
     </g>
    </g>
    <g id="text_14">
     <!-- physical time $t$ -->
     <g transform="translate(218.614 341.16) scale(0.11 -0.11)">
      <defs>
       <path id="DejaVuSerif-68" d="M 263 0 
L 263 331 
L 781 331 
L 781 4531 
L 231 4531 
L 231 4863 
L 1356 4863 
L 1356 2731 
Q 1516 3069 1770 3241 
Q 2025 3413 2363 3413 
Q 2913 3413 3172 3097 
Q 3431 2781 3431 2113 
L 3431 331 
L 3944 331 
L 3944 0 
L 2356 0 
L 2356 331 
L 2853 331 
L 2853 1931 
Q 2853 2541 2704 2764 
Q 2556 2988 2175 2988 
Q 1775 2988 1565 2697 
Q 1356 2406 1356 1850 
L 1356 331 
L 1856 331 
L 1856 0 
L 263 0 
z
" transform="scale(0.015625)"/>
       <path id="DejaVuSerif-79" d="M 1381 -609 
L 1600 -56 
L 359 2988 
L -19 2988 
L -19 3322 
L 1509 3322 
L 1509 2988 
L 978 2988 
L 1913 703 
L 2847 2988 
L 2350 2988 
L 2350 3322 
L 3597 3322 
L 3597 2988 
L 3225 2988 
L 1703 -750 
Q 1547 -1138 1356 -1280 
Q 1166 -1422 819 -1422 
Q 672 -1422 517 -1397 
Q 363 -1372 206 -1325 
L 206 -691 
L 500 -691 
Q 519 -903 608 -995 
Q 697 -1088 884 -1088 
Q 1056 -1088 1161 -992 
Q 1266 -897 1381 -609 
z
" transform="scale(0.015625)"/>
       <path id="DejaVuSerif-63" d="M 3291 997 
Q 3169 466 2822 187 
Q 2475 -91 1925 -91 
Q 1200 -91 759 389 
Q 319 869 319 1663 
Q 319 2459 759 2936 
Q 1200 3413 1925 3413 
Q 2241 3413 2553 3339 
Q 2866 3266 3181 3116 
L 3181 2266 
L 2847 2266 
Q 2781 2703 2561 2903 
Q 2341 3103 1931 3103 
Q 1466 3103 1228 2742 
Q 991 2381 991 1663 
Q 991 944 1227 581 
Q 1463 219 1931 219 
Q 2303 219 2525 412 
Q 2747 606 2828 997 
L 3291 997 
z
" transform="scale(0.015625)"/>
       <path id="DejaVuSerif-6d" d="M 3316 2675 
Q 3481 3041 3739 3227 
Q 3997 3413 4341 3413 
Q 4863 3413 5119 3089 
Q 5375 2766 5375 2113 
L 5375 331 
L 5894 331 
L 5894 0 
L 4300 0 
L 4300 331 
L 4800 331 
L 4800 2047 
Q 4800 2556 4650 2772 
Q 4500 2988 4153 2988 
Q 3769 2988 3567 2697 
Q 3366 2406 3366 1850 
L 3366 331 
L 3866 331 
L 3866 0 
L 2291 0 
L 2291 331 
L 2791 331 
L 2791 2069 
Q 2791 2566 2641 2777 
Q 2491 2988 2144 2988 
Q 1759 2988 1557 2697 
Q 1356 2406 1356 1850 
L 1356 331 
L 1856 331 
L 1856 0 
L 263 0 
L 263 331 
L 781 331 
L 781 2994 
L 231 2994 
L 231 3322 
L 1356 3322 
L 1356 2731 
Q 1516 3063 1762 3238 
Q 2009 3413 2322 3413 
Q 2709 3413 2968 3220 
Q 3228 3028 3316 2675 
z
" transform="scale(0.015625)"/>
      </defs>
      <use xlink:href="#DejaVuSerif-70" transform="translate(0 0.015625)"/>
      <use xlink:href="#DejaVuSerif-68" transform="translate(64.013672 0.015625)"/>
      <use xlink:href="#DejaVuSerif-79" transform="translate(128.417969 0.015625)"/>
      <use xlink:href="#DejaVuSerif-73" transform="translate(184.912109 0.015625)"/>
      <use xlink:href="#DejaVuSerif-69" transform="translate(236.230469 0.015625)"/>
      <use xlink:href="#DejaVuSerif-63" transform="translate(268.212891 0.015625)"/>
      <use xlink:href="#DejaVuSerif-61" transform="translate(324.21875 0.015625)"/>
      <use xlink:href="#DejaVuSerif-6c" transform="translate(383.837891 0.015625)"/>
      <use xlink:href="#DejaVuSerif-20" transform="translate(415.820312 0.015625)"/>
      <use xlink:href="#DejaVuSerif-74" transform="translate(447.607422 0.015625)"/>
      <use xlink:href="#DejaVuSerif-69" transform="translate(487.792969 0.015625)"/>
      <use xlink:href="#DejaVuSerif-6d" transform="translate(519.775391 0.015625)"/>
      <use xlink:href="#DejaVuSerif-65" transform="translate(614.599609 0.015625)"/>
      <use xlink:href="#DejaVuSerif-20" transform="translate(673.779297 0.015625)"/>
      <use xlink:href="#STIXGeneral-Italic-74" transform="translate(705.566406 0.015625)"/>
     </g>
    </g>
   </g>
   <g id="matplotlib.axis_4">
    <g id="ytick_5">
     <g id="line2d_15">
      <g>
       <use xlink:href="#m0e0f1074fd" x="57.024" y="299.432776" style="fill: #9ba2a9; stroke: #9ba2a9; stroke-width: 0.8"/>
      </g>
     </g>
     <g id="text_15">
      <!-- 0.5 -->
      <g transform="translate(34.620875 303.231995) scale(0.1 -0.1)">
       <defs>
        <path id="DejaVuSerif-30" d="M 2034 219 
Q 2513 219 2750 744 
Q 2988 1269 2988 2328 
Q 2988 3391 2750 3916 
Q 2513 4441 2034 4441 
Q 1556 4441 1318 3916 
Q 1081 3391 1081 2328 
Q 1081 1269 1318 744 
Q 1556 219 2034 219 
z
M 2034 -91 
Q 1275 -91 848 546 
Q 422 1184 422 2328 
Q 422 3475 848 4112 
Q 1275 4750 2034 4750 
Q 2797 4750 3222 4112 
Q 3647 3475 3647 2328 
Q 3647 1184 3222 546 
Q 2797 -91 2034 -91 
z
" transform="scale(0.015625)"/>
        <path id="DejaVuSerif-2e" d="M 603 325 
Q 603 500 722 622 
Q 841 744 1019 744 
Q 1191 744 1312 622 
Q 1434 500 1434 325 
Q 1434 153 1312 31 
Q 1191 -91 1019 -91 
Q 841 -91 722 29 
Q 603 150 603 325 
z
" transform="scale(0.015625)"/>
        <path id="DejaVuSerif-35" d="M 3219 4666 
L 3219 4153 
L 1081 4153 
L 1081 2816 
Q 1244 2928 1461 2984 
Q 1678 3041 1947 3041 
Q 2703 3041 3140 2622 
Q 3578 2203 3578 1478 
Q 3578 738 3136 323 
Q 2694 -91 1894 -91 
Q 1572 -91 1234 -12 
Q 897 66 544 225 
L 544 1131 
L 897 1131 
Q 925 688 1179 453 
Q 1434 219 1894 219 
Q 2388 219 2653 544 
Q 2919 869 2919 1478 
Q 2919 2084 2655 2407 
Q 2391 2731 1894 2731 
Q 1613 2731 1398 2631 
Q 1184 2531 1019 2322 
L 750 2322 
L 750 4666 
L 3219 4666 
z
" transform="scale(0.015625)"/>
       </defs>
       <use xlink:href="#DejaVuSerif-30"/>
       <use xlink:href="#DejaVuSerif-2e" transform="translate(63.623047 0)"/>
       <use xlink:href="#DejaVuSerif-35" transform="translate(95.410156 0)"/>
      </g>
     </g>
    </g>
    <g id="ytick_6">
     <g id="line2d_16">
      <g>
       <use xlink:href="#m0e0f1074fd" x="57.024" y="265.542029" style="fill: #9ba2a9; stroke: #9ba2a9; stroke-width: 0.8"/>
      </g>
     </g>
     <g id="text_16">
      <!-- 1.5 -->
      <g transform="translate(34.620875 269.341248) scale(0.1 -0.1)">
       <use xlink:href="#DejaVuSerif-31"/>
       <use xlink:href="#DejaVuSerif-2e" transform="translate(63.623047 0)"/>
       <use xlink:href="#DejaVuSerif-35" transform="translate(95.410156 0)"/>
      </g>
     </g>
    </g>
    <g id="ytick_7">
     <g id="line2d_17">
      <g>
       <use xlink:href="#m0e0f1074fd" x="57.024" y="231.651282" style="fill: #9ba2a9; stroke: #9ba2a9; stroke-width: 0.8"/>
      </g>
     </g>
     <g id="text_17">
      <!-- 2.5 -->
      <g transform="translate(34.620875 235.450501) scale(0.1 -0.1)">
       <use xlink:href="#DejaVuSerif-32"/>
       <use xlink:href="#DejaVuSerif-2e" transform="translate(63.623047 0)"/>
       <use xlink:href="#DejaVuSerif-35" transform="translate(95.410156 0)"/>
      </g>
     </g>
    </g>
    <g id="text_18">
     <!-- control $u_h(t)$ -->
     <g transform="translate(28.333219 295.582492) rotate(-90) scale(0.11 -0.11)">
      <use xlink:href="#DejaVuSerif-63" transform="translate(0 0.015625)"/>
      <use xlink:href="#DejaVuSerif-6f" transform="translate(56.005859 0.015625)"/>
      <use xlink:href="#DejaVuSerif-6e" transform="translate(116.210938 0.015625)"/>
      <use xlink:href="#DejaVuSerif-74" transform="translate(180.615234 0.015625)"/>
      <use xlink:href="#DejaVuSerif-72" transform="translate(220.800781 0.015625)"/>
      <use xlink:href="#DejaVuSerif-6f" transform="translate(268.603516 0.015625)"/>
      <use xlink:href="#DejaVuSerif-6c" transform="translate(328.808594 0.015625)"/>
      <use xlink:href="#DejaVuSerif-20" transform="translate(360.791016 0.015625)"/>
      <use xlink:href="#STIXGeneral-Italic-75" transform="translate(392.578125 0.015625)"/>
      <use xlink:href="#STIXGeneral-Italic-68" transform="translate(442.57811 -13.2125) scale(0.7)"/>
      <use xlink:href="#STIXGeneral-Regular-28" transform="translate(481.987474 0.015625)"/>
      <use xlink:href="#STIXGeneral-Italic-74" transform="translate(515.287462 0.015625)"/>
      <use xlink:href="#STIXGeneral-Regular-29" transform="translate(543.08745 0.015625)"/>
     </g>
    </g>
   </g>
   <g id="line2d_18">
    <path d="M 66.641143 299.432776 
L 451.326857 231.651282 
L 451.326857 231.651282 
" clip-path="url(#p5b06da1510)" style="fill: none; stroke: #0072b2; stroke-width: 2.5; stroke-linecap: square"/>
   </g>
   <g id="patch_8">
    <path d="M 57.024 309.6 
L 57.024 218.094983 
" style="fill: none; stroke: #9ba2a9; stroke-width: 0.8; stroke-linejoin: miter; stroke-linecap: square"/>
   </g>
   <g id="patch_9">
    <path d="M 57.024 309.6 
L 460.944 309.6 
" style="fill: none; stroke: #9ba2a9; stroke-width: 0.8; stroke-linejoin: miter; stroke-linecap: square"/>
   </g>
   <g id="patch_10">
    <path d="M 136.935261 250.890467 
Q 196.967016 258.097088 255.888707 265.170449 
" style="fill: none; stroke: #d55e00; stroke-linecap: round"/>
    <path d="M 251.782294 262.461691 
L 255.888707 265.170449 
L 251.257853 266.830325 
" style="fill: none; stroke: #d55e00; stroke-linecap: round"/>
   </g>
   <g id="text_19">
    <!-- $u_{k,j}=3/2$ -->
    <g style="fill: #d55e00" transform="translate(93.569143 250.291193) scale(0.11 -0.11)">
     <use xlink:href="#STIXGeneral-Italic-75" transform="translate(0 0.40625)"/>
     <use xlink:href="#STIXGeneral-Italic-6b" transform="translate(49.999985 -12.821875) scale(0.7)"/>
     <use xlink:href="#STIXGeneral-Regular-2c" transform="translate(81.07998 -12.821875) scale(0.7)"/>
     <use xlink:href="#STIXGeneral-Italic-6a" transform="translate(108.687967 -12.821875) scale(0.7)"/>
     <use xlink:href="#STIXGeneral-Regular-3d" transform="translate(146.99733 0.40625)"/>
     <use xlink:href="#STIXGeneral-Regular-33" transform="translate(229.937311 0.40625)"/>
     <use xlink:href="#STIXGeneral-Regular-2f" transform="translate(279.937296 0.40625)"/>
     <use xlink:href="#STIXGeneral-Regular-32" transform="translate(307.737284 0.40625)"/>
    </g>
   </g>
   <g id="text_20">
    <!-- $\tau_j=1/2$ -->
    <g style="fill: #d55e00" transform="translate(297.452571 294.349164) scale(0.11 -0.11)">
     <use xlink:href="#STIXGeneral-Italic-3c4" transform="translate(0 0.40625)"/>
     <use xlink:href="#STIXGeneral-Italic-6a" transform="translate(40.999985 -12.821875) scale(0.7)"/>
     <use xlink:href="#STIXGeneral-Regular-3d" transform="translate(79.309348 0.40625)"/>
     <use xlink:href="#STIXGeneral-Regular-31" transform="translate(162.249329 0.40625)"/>
     <use xlink:href="#STIXGeneral-Regular-2f" transform="translate(212.249313 0.40625)"/>
     <use xlink:href="#STIXGeneral-Regular-32" transform="translate(240.049301 0.40625)"/>
    </g>
   </g>
   <g id="PathCollection_3">
    <g clip-path="url(#p5b06da1510)">
     <use xlink:href="#m23c764953a" x="258.984" y="265.542029" style="fill: #d55e00; stroke: #d55e00"/>
    </g>
   </g>
  </g>
 </g>
 <defs>
  <clipPath id="p0adec5672e">
   <rect x="57.024" y="36" width="403.92" height="146.408027"/>
  </clipPath>
  <clipPath id="p5b06da1510">
   <rect x="57.024" y="218.094983" width="403.92" height="91.505017"/>
  </clipPath>
 </defs>
</svg>
