<?xml version="1.0" encoding="utf-8" standalone="no"?>
<!DOCTYPE svg PUBLIC "-//W3C//DTD SVG 1.1//EN"
  "http://www.w3.org/Graphics/SVG/1.1/DTD/svg11.dtd">
<svg xmlns:xlink="http://www.w3.org/1999/xlink" width="725.23pt" height="377.1075pt" viewBox="0 0 725.23 377.1075" xmlns="http://www.w3.org/2000/svg" version="1.1">
 <metadata>
  <rdf:RDF xmlns:dc="http://purl.org/dc/elements/1.1/" xmlns:cc="http://creativecommons.org/ns#" xmlns:rdf="http://www.w3.org/1999/02/22-rdf-syntax-ns#">
   <cc:Work>
    <dc:type rdf:resource="http://purl.org/dc/dcmitype/StillImage"/>
    <dc:date>2025-11-19T22:56:25.060802</dc:date>
    <dc:format>image/svg+xml</dc:format>
    <dc:creator>
     <cc:Agent>
      <dc:title>Matplotlib v3.10.3, https://matplotlib.org/</dc:title>
     </cc:Agent>
    </dc:creator>
   </cc:Work>
  </rdf:RDF>
 </metadata>
 <defs>
  <style type="text/css">*{stroke-linejoin: round; stroke-linecap: butt}</style>
 </defs>
 <g id="figure_1">
  <g id="patch_1">
   <path d="M 0 377.1075 
L 725.23 377.1075 
L 725.23 0 
L 0 0 
z
" style="fill: #ffffff"/>
  </g>
  <g id="axes_1">
   <g id="patch_2">
    <path d="M 52.03 354.5225 
L 721.63 354.5225 
L 721.63 21.8825 
L 52.03 21.8825 
z
" style="fill: #ffffff"/>
   </g>
   <g id="FillBetweenPolyCollection_1">
    <path d="M 164.296296 339.4025 
L 162.963704 339.4025 
L 162.867399 338.946714 
L 162.783892 338.490928 
L 162.713058 338.035142 
L 162.649651 337.579356 
L 162.582875 337.123569 
L 162.496723 336.667783 
L 162.371275 336.211997 
L 162.185034 335.756211 
L 161.918095 335.300425 
L 161.555461 334.84465 
L 161.08933 334.388864 
L 160.519363 333.933078 
L 159.850313 333.477292 
L 159.087807 333.021506 
L 158.233997 332.56572 
L 157.28519 332.109934 
L 156.232974 331.654147 
L 155.068811 331.198361 
L 153.790533 330.742575 
L 152.408071 330.286789 
L 150.945834 329.831003 
L 149.44024 329.375217 
L 147.932649 328.919431 
L 146.459687 328.463645 
L 145.04401 328.007859 
L 143.688483 327.552072 
L 142.375538 327.096286 
L 141.071532 326.6405 
L 139.734162 326.184714 
L 138.320153 325.728928 
L 136.790979 325.273153 
L 135.115633 324.817367 
L 133.271972 324.361581 
L 131.247912 323.905795 
L 129.044741 323.450009 
L 126.682593 322.994223 
L 124.206274 322.538436 
L 121.688023 322.08265 
L 119.223749 321.626864 
L 116.921226 321.171078 
L 114.881996 320.715292 
L 113.181783 320.259506 
L 111.855454 319.80372 
L 110.891158 319.347934 
L 110.234948 318.892148 
L 109.803764 318.436361 
L 109.502829 317.980575 
L 109.243929 317.524801 
L 108.962469 317.069014 
L 108.632275 316.613228 
L 108.276177 316.157442 
L 107.969127 315.701656 
L 107.83 315.24587 
L 108.00064 314.790084 
L 108.6153 314.334298 
L 109.768191 313.878512 
L 111.488493 313.422726 
L 113.729744 312.966939 
L 116.375532 312.511153 
L 119.258615 312.055367 
L 122.188181 311.599581 
L 124.980042 311.143795 
L 127.485413 310.688009 
L 129.61421 310.232223 
L 131.348438 309.776437 
L 132.741635 309.320651 
L 133.902868 308.864864 
L 134.968331 308.409078 
L 136.068172 307.953292 
L 137.298259 307.497506 
L 138.70479 307.04172 
L 140.284537 306.585934 
L 141.997708 306.130148 
L 143.786441 305.674362 
L 145.591443 305.218576 
L 147.361972 304.762789 
L 149.058388 304.307003 
L 150.649862 303.851217 
L 152.1112 303.395431 
L 153.421807 302.939645 
L 154.567601 302.483859 
L 155.544479 302.028095 
L 156.361169 301.572309 
L 157.038835 301.116523 
L 157.607911 300.660737 
L 158.102491 300.204951 
L 158.55441 299.749165 
L 158.988591 299.293379 
L 159.420469 298.837593 
L 159.855485 298.381806 
L 160.29028 297.92602 
L 160.715174 297.470234 
L 161.117533 297.014448 
L 161.485477 296.558662 
L 161.811109 296.102876 
L 162.092378 295.64709 
L 162.332986 295.191304 
L 162.540467 294.735518 
L 162.723264 294.279731 
L 164.536736 294.279731 
L 164.536736 294.279731 
L 164.719533 294.735518 
L 164.927014 295.191304 
L 165.167622 295.64709 
L 165.448891 296.102876 
L 165.774523 296.558662 
L 166.142467 297.014448 
L 166.544826 297.470234 
L 166.96972 297.92602 
L 167.404515 298.381806 
L 167.839531 298.837593 
L 168.271409 299.293379 
L 168.70559 299.749165 
L 169.157509 300.204951 
L 169.652089 300.660737 
L 170.221165 301.116523 
L 170.898831 301.572309 
L 171.715521 302.028095 
L 172.692399 302.483859 
L 173.838193 302.939645 
L 175.1488 303.395431 
L 176.610138 303.851217 
L 178.201612 304.307003 
L 179.898028 304.762789 
L 181.668557 305.218576 
L 183.473559 305.674362 
L 185.262292 306.130148 
L 186.975463 306.585934 
L 188.55521 307.04172 
L 189.961741 307.497506 
L 191.191828 307.953292 
L 192.291669 308.409078 
L 193.357132 308.864864 
L 194.518365 309.320651 
L 195.911562 309.776437 
L 197.64579 310.232223 
L 199.774587 310.688009 
L 202.279958 311.143795 
L 205.071819 311.599581 
L 208.001385 312.055367 
L 210.884468 312.511153 
L 213.530256 312.966939 
L 215.771507 313.422726 
L 217.491809 313.878512 
L 218.6447 314.334298 
L 219.25936 314.790084 
L 219.43 315.24587 
L 219.290873 315.701656 
L 218.983823 316.157442 
L 218.627725 316.613228 
L 218.297531 317.069014 
L 218.016071 317.524801 
L 217.757171 317.980575 
L 217.456236 318.436361 
L 217.025052 318.892148 
L 216.368842 319.347934 
L 215.404546 319.80372 
L 214.078217 320.259506 
L 212.378004 320.715292 
L 210.338774 321.171078 
L 208.036251 321.626864 
L 205.571977 322.08265 
L 203.053726 322.538436 
L 200.577407 322.994223 
L 198.215259 323.450009 
L 196.012088 323.905795 
L 193.988028 324.361581 
L 192.144367 324.817367 
L 190.469021 325.273153 
L 188.939847 325.728928 
L 187.525838 326.184714 
L 186.188468 326.6405 
L 184.884462 327.096286 
L 183.571517 327.552072 
L 182.21599 328.007859 
L 180.800313 328.463645 
L 179.327351 328.919431 
L 177.81976 329.375217 
L 176.314166 329.831003 
L 174.851929 330.286789 
L 173.469467 330.742575 
L 172.191189 331.198361 
L 171.027026 331.654147 
L 169.97481 332.109934 
L 169.026003 332.56572 
L 168.172193 333.021506 
L 167.409687 333.477292 
L 166.740637 333.933078 
L 166.17067 334.388864 
L 165.704539 334.84465 
L 165.341905 335.300425 
L 165.074966 335.756211 
L 164.888725 336.211997 
L 164.763277 336.667783 
L 164.677125 337.123569 
L 164.610349 337.579356 
L 164.546942 338.035142 
L 164.476108 338.490928 
L 164.392601 338.946714 
L 164.296296 339.4025 
z
" clip-path="url(#p81d5944754)" style="fill: #ff9999; fill-opacity: 0.7"/>
   </g>
   <g id="FillBetweenPolyCollection_2">
    <path d="M 387.367407 200.991524 
L 386.292593 200.991524 
L 386.197357 199.335075 
L 386.108336 197.678626 
L 386.023916 196.022154 
L 385.939777 194.365705 
L 385.849431 192.709256 
L 385.743499 191.052784 
L 385.607919 189.396335 
L 385.42277 187.739886 
L 385.163723 186.083437 
L 384.806597 184.426988 
L 384.333045 182.770516 
L 383.734186 181.114067 
L 383.0101 179.457618 
L 382.16632 177.801146 
L 381.210446 176.144697 
L 380.151034 174.488248 
L 378.998165 172.831799 
L 377.762307 171.17535 
L 376.449251 169.518878 
L 375.052853 167.862429 
L 373.550696 166.20598 
L 371.908617 164.549508 
L 370.095461 162.893059 
L 368.102814 161.23661 
L 365.960244 159.580161 
L 363.73568 157.923712 
L 361.5169 156.26724 
L 359.379746 154.610791 
L 357.356426 152.954342 
L 355.420219 151.297871 
L 353.495418 149.641422 
L 351.489204 147.984972 
L 349.331629 146.328523 
L 347.005356 144.672074 
L 344.553501 143.015603 
L 342.065911 141.359154 
L 339.653536 139.702704 
L 337.423781 138.046233 
L 335.463802 136.389784 
L 333.832676 134.733335 
L 332.562072 133.076886 
L 331.664651 131.420436 
L 331.148448 129.763965 
L 331.03 128.107516 
L 331.335119 126.451067 
L 332.081561 124.794595 
L 333.250957 123.138168 
L 334.770052 121.481697 
L 336.519252 119.825225 
L 338.371293 118.168799 
L 340.24112 116.512327 
L 342.117743 114.855855 
L 344.059337 113.199429 
L 346.153198 111.542957 
L 348.461928 109.886531 
L 350.984876 108.230059 
L 353.650567 106.573587 
L 356.34114 104.917161 
L 358.933136 103.260689 
L 361.334294 101.604263 
L 363.504121 99.947791 
L 365.452134 98.291319 
L 367.220246 96.634893 
L 368.857779 94.978421 
L 370.39865 93.321949 
L 371.849575 91.665523 
L 373.192857 90.009051 
L 374.401858 88.35258 
L 375.461976 86.696153 
L 376.385486 85.039681 
L 377.211571 83.38321 
L 377.991802 81.726783 
L 378.769253 80.070357 
L 379.563163 78.413885 
L 380.366843 76.757413 
L 381.157969 75.100987 
L 381.913366 73.444515 
L 382.619155 71.788044 
L 383.272299 70.131617 
L 383.875175 68.475145 
L 384.428581 66.818674 
L 384.928445 65.162247 
L 385.367378 63.505776 
L 385.738839 61.849304 
L 386.040828 60.192877 
L 386.276942 58.536406 
L 386.454897 56.879934 
L 386.584144 55.223508 
L 386.673854 53.567081 
L 386.731834 51.910609 
L 386.7642 50.254138 
L 386.775509 48.597711 
L 386.769197 46.94124 
L 386.748408 45.284768 
L 386.717066 43.628342 
L 386.680718 41.97187 
L 386.646526 40.315398 
L 386.622048 38.658972 
L 386.613172 37.0025 
L 387.046828 37.0025 
L 387.046828 37.0025 
L 387.037952 38.658972 
L 387.013474 40.315398 
L 386.979282 41.97187 
L 386.942934 43.628342 
L 386.911592 45.284768 
L 386.890803 46.94124 
L 386.884491 48.597711 
L 386.8958 50.254138 
L 386.928166 51.910609 
L 386.986146 53.567081 
L 387.075856 55.223508 
L 387.205103 56.879934 
L 387.383058 58.536406 
L 387.619172 60.192877 
L 387.921161 61.849304 
L 388.292622 63.505776 
L 388.731555 65.162247 
L 389.231419 66.818674 
L 389.784825 68.475145 
L 390.387701 70.131617 
L 391.040845 71.788044 
L 391.746634 73.444515 
L 392.502031 75.100987 
L 393.293157 76.757413 
L 394.096837 78.413885 
L 394.890747 80.070357 
L 395.668198 81.726783 
L 396.448429 83.38321 
L 397.274514 85.039681 
L 398.198024 86.696153 
L 399.258142 88.35258 
L 400.467143 90.009051 
L 401.810425 91.665523 
L 403.26135 93.321949 
L 404.802221 94.978421 
L 406.439754 96.634893 
L 408.207866 98.291319 
L 410.155879 99.947791 
L 412.325706 101.604263 
L 414.726864 103.260689 
L 417.31886 104.917161 
L 420.009433 106.573587 
L 422.675124 108.230059 
L 425.198072 109.886531 
L 427.506802 111.542957 
L 429.600663 113.199429 
L 431.542257 114.855855 
L 433.41888 116.512327 
L 435.288707 118.168799 
L 437.140748 119.825225 
L 438.889948 121.481697 
L 440.409043 123.138168 
L 441.578439 124.794595 
L 442.324881 126.451067 
L 442.63 128.107516 
L 442.511552 129.763965 
L 441.995349 131.420436 
L 441.097928 133.076886 
L 439.827324 134.733335 
L 438.196198 136.389784 
L 436.236219 138.046233 
L 434.006464 139.702704 
L 431.594089 141.359154 
L 429.106499 143.015603 
L 426.654644 144.672074 
L 424.328371 146.328523 
L 422.170796 147.984972 
L 420.164582 149.641422 
L 418.239781 151.297871 
L 416.303574 152.954342 
L 414.280254 154.610791 
L 412.1431 156.26724 
L 409.92432 157.923712 
L 407.699756 159.580161 
L 405.557186 161.23661 
L 403.564539 162.893059 
L 401.751383 164.549508 
L 400.109304 166.20598 
L 398.607147 167.862429 
L 397.210749 169.518878 
L 395.897693 171.17535 
L 394.661835 172.831799 
L 393.508966 174.488248 
L 392.449554 176.144697 
L 391.49368 177.801146 
L 390.6499 179.457618 
L 389.925814 181.114067 
L 389.326955 182.770516 
L 388.853403 184.426988 
L 388.496277 186.083437 
L 388.23723 187.739886 
L 388.052081 189.396335 
L 387.916501 191.052784 
L 387.810569 192.709256 
L 387.720223 194.365705 
L 387.636084 196.022154 
L 387.551664 197.678626 
L 387.462643 199.335075 
L 387.367407 200.991524 
z
" clip-path="url(#p81d5944754)" style="fill: #66b3ff; fill-opacity: 0.7"/>
   </g>
   <g id="FillBetweenPolyCollection_3">
    <path d="M 610.263194 177.876666 
L 609.796806 177.876666 
L 609.805756 176.996314 
L 609.830592 176.115985 
L 609.866008 175.235632 
L 609.905215 174.35528 
L 609.941973 173.474951 
L 609.971945 172.594599 
L 609.992939 171.714247 
L 610.004143 170.833917 
L 610.004807 169.953565 
L 609.992896 169.073213 
L 609.964155 168.192861 
L 609.91188 167.312531 
L 609.827597 166.432179 
L 609.702628 165.551827 
L 609.530231 164.671497 
L 609.307591 163.791145 
L 609.036855 162.910793 
L 608.724359 162.030463 
L 608.377759 161.150111 
L 608.001674 160.269759 
L 607.593076 159.38943 
L 607.138599 158.509077 
L 606.615917 157.628725 
L 605.999748 156.748373 
L 605.270922 155.868044 
L 604.42424 154.987691 
L 603.470972 154.107362 
L 602.433446 153.22701 
L 601.334592 152.346658 
L 600.187403 151.466305 
L 598.990229 150.585976 
L 597.729662 149.705624 
L 596.388804 148.825272 
L 594.954658 147.944942 
L 593.419812 147.06459 
L 591.777658 146.184238 
L 590.014188 145.303886 
L 588.103445 144.423556 
L 586.011257 143.543204 
L 583.708246 142.662874 
L 581.185318 141.782522 
L 578.465169 140.90217 
L 575.602524 140.021818 
L 572.674165 139.141488 
L 569.763818 138.261136 
L 566.950788 137.380784 
L 564.305516 136.500455 
L 561.891399 135.620102 
L 559.767488 134.73975 
L 557.984973 133.859421 
L 556.577189 132.979069 
L 555.548273 132.098716 
L 554.867146 131.218387 
L 554.47217 130.338035 
L 554.285328 129.457683 
L 554.23 128.577331 
L 554.24679 127.697001 
L 554.304433 126.816626 
L 554.40565 125.936319 
L 554.58814 125.055967 
L 554.919479 124.175615 
L 555.484841 123.295263 
L 556.368457 122.414911 
L 557.632858 121.534604 
L 559.301906 120.654252 
L 561.351304 119.773899 
L 563.710303 118.893547 
L 566.273777 118.013195 
L 568.92268 117.132843 
L 571.547758 116.252491 
L 574.06918 115.372184 
L 576.446332 114.491832 
L 578.673712 113.61148 
L 580.769399 112.731128 
L 582.761647 111.850775 
L 584.680419 110.970423 
L 586.554604 110.090071 
L 588.410905 109.209764 
L 590.270328 108.329412 
L 592.139763 107.44906 
L 594.00419 106.568708 
L 595.823836 105.688356 
L 597.54046 104.808049 
L 599.092168 103.927696 
L 600.430265 103.047344 
L 601.533424 102.166992 
L 602.413266 101.28664 
L 603.110796 100.406288 
L 603.685591 99.525936 
L 604.201283 98.645629 
L 604.711381 97.765277 
L 605.248568 96.884925 
L 605.820634 96.004572 
L 606.413619 95.12422 
L 607.000819 94.243868 
L 607.553884 93.363516 
L 608.0516 92.483209 
L 608.483648 91.602857 
L 608.849025 90.722505 
L 611.210975 90.722505 
L 611.210975 90.722505 
L 611.576352 91.602857 
L 612.0084 92.483209 
L 612.506116 93.363516 
L 613.059181 94.243868 
L 613.646381 95.12422 
L 614.239366 96.004572 
L 614.811432 96.884925 
L 615.348619 97.765277 
L 615.858717 98.645629 
L 616.374409 99.525936 
L 616.949204 100.406288 
L 617.646734 101.28664 
L 618.526576 102.166992 
L 619.629735 103.047344 
L 620.967832 103.927696 
L 622.51954 104.808049 
L 624.236164 105.688356 
L 626.05581 106.568708 
L 627.920237 107.44906 
L 629.789672 108.329412 
L 631.649095 109.209764 
L 633.505396 110.090071 
L 635.379581 110.970423 
L 637.298353 111.850775 
L 639.290601 112.731128 
L 641.386288 113.61148 
L 643.613668 114.491832 
L 645.99082 115.372184 
L 648.512242 116.252491 
L 651.13732 117.132843 
L 653.786223 118.013195 
L 656.349697 118.893547 
L 658.708696 119.773899 
L 660.758094 120.654252 
L 662.427142 121.534604 
L 663.691543 122.414911 
L 664.575159 123.295263 
L 665.140521 124.175615 
L 665.47186 125.055967 
L 665.65435 125.936319 
L 665.755567 126.816626 
L 665.81321 127.697001 
L 665.83 128.577331 
L 665.774672 129.457683 
L 665.58783 130.338035 
L 665.192854 131.218387 
L 664.511727 132.098716 
L 663.482811 132.979069 
L 662.075027 133.859421 
L 660.292512 134.73975 
L 658.168601 135.620102 
L 655.754484 136.500455 
L 653.109212 137.380784 
L 650.296182 138.261136 
L 647.385835 139.141488 
L 644.457476 140.021818 
L 641.594831 140.90217 
L 638.874682 141.782522 
L 636.351754 142.662874 
L 634.048743 143.543204 
L 631.956555 144.423556 
L 630.045812 145.303886 
L 628.282342 146.184238 
L 626.640188 147.06459 
L 625.105342 147.944942 
L 623.671196 148.825272 
L 622.330338 149.705624 
L 621.069771 150.585976 
L 619.872597 151.466305 
L 618.725408 152.346658 
L 617.626554 153.22701 
L 616.589028 154.107362 
L 615.63576 154.987691 
L 614.789078 155.868044 
L 614.060252 156.748373 
L 613.444083 157.628725 
L 612.921401 158.509077 
L 612.466924 159.38943 
L 612.058326 160.269759 
L 611.682241 161.150111 
L 611.335641 162.030463 
L 611.023145 162.910793 
L 610.752409 163.791145 
L 610.529769 164.671497 
L 610.357372 165.551827 
L 610.232403 166.432179 
L 610.14812 167.312531 
L 610.095845 168.192861 
L 610.067104 169.073213 
L 610.055193 169.953565 
L 610.055857 170.833917 
L 610.067061 171.714247 
L 610.088055 172.594599 
L 610.118027 173.474951 
L 610.154785 174.35528 
L 610.193992 175.235632 
L 610.229408 176.115985 
L 610.254244 176.996314 
L 610.263194 177.876666 
z
" clip-path="url(#p81d5944754)" style="fill: #99ff99; fill-opacity: 0.7"/>
   </g>
   <g id="matplotlib.axis_1">
    <g id="xtick_1">
     <g id="line2d_1">
      <path d="M 163.63 354.5225 
L 163.63 21.8825 
" clip-path="url(#p81d5944754)" style="fill: none; stroke: #b0b0b0; stroke-opacity: 0.3; stroke-linecap: square"/>
     </g>
     <g id="line2d_2">
      <defs>
       <path id="mfaf7e72a93" d="M 0 0 
L 0 -6 
" style="stroke: #000000"/>
      </defs>
      <g>
       <use xlink:href="#mfaf7e72a93" x="163.63" y="354.5225" style="stroke: #000000"/>
      </g>
     </g>
     <g id="line2d_3">
      <defs>
       <path id="m23cbd97fe8" d="M 0 0 
L 0 6 
" style="stroke: #000000"/>
      </defs>
      <g>
       <use xlink:href="#m23cbd97fe8" x="163.63" y="21.8825" style="stroke: #000000"/>
      </g>
     </g>
     <g id="text_1">
      <!-- Naive -->
      <g transform="translate(140.8625 370.18) scale(0.16 -0.16)">
       <defs>
        <path id="DejaVuSans-4e" d="M 628 4666 
L 1478 4666 
L 3547 763 
L 3547 4666 
L 4159 4666 
L 4159 0 
L 3309 0 
L 1241 3903 
L 1241 0 
L 628 0 
L 628 4666 
z
" transform="scale(0.015625)"/>
        <path id="DejaVuSans-61" d="M 2194 1759 
Q 1497 1759 1228 1600 
Q 959 1441 959 1056 
Q 959 750 1161 570 
Q 1363 391 1709 391 
Q 2188 391 2477 730 
Q 2766 1069 2766 1631 
L 2766 1759 
L 2194 1759 
z
M 3341 1997 
L 3341 0 
L 2766 0 
L 2766 531 
Q 2569 213 2275 61 
Q 1981 -91 1556 -91 
Q 1019 -91 701 211 
Q 384 513 384 1019 
Q 384 1609 779 1909 
Q 1175 2209 1959 2209 
L 2766 2209 
L 2766 2266 
Q 2766 2663 2505 2880 
Q 2244 3097 1772 3097 
Q 1472 3097 1187 3025 
Q 903 2953 641 2809 
L 641 3341 
Q 956 3463 1253 3523 
Q 1550 3584 1831 3584 
Q 2591 3584 2966 3190 
Q 3341 2797 3341 1997 
z
" transform="scale(0.015625)"/>
        <path id="DejaVuSans-69" d="M 603 3500 
L 1178 3500 
L 1178 0 
L 603 0 
L 603 3500 
z
M 603 4863 
L 1178 4863 
L 1178 4134 
L 603 4134 
L 603 4863 
z
" transform="scale(0.015625)"/>
        <path id="DejaVuSans-76" d="M 191 3500 
L 800 3500 
L 1894 563 
L 2988 3500 
L 3597 3500 
L 2284 0 
L 1503 0 
L 191 3500 
z
" transform="scale(0.015625)"/>
        <path id="DejaVuSans-65" d="M 3597 1894 
L 3597 1613 
L 953 1613 
Q 991 1019 1311 708 
Q 1631 397 2203 397 
Q 2534 397 2845 478 
Q 3156 559 3463 722 
L 3463 178 
Q 3153 47 2828 -22 
Q 2503 -91 2169 -91 
Q 1331 -91 842 396 
Q 353 884 353 1716 
Q 353 2575 817 3079 
Q 1281 3584 2069 3584 
Q 2775 3584 3186 3129 
Q 3597 2675 3597 1894 
z
M 3022 2063 
Q 3016 2534 2758 2815 
Q 2500 3097 2075 3097 
Q 1594 3097 1305 2825 
Q 1016 2553 972 2059 
L 3022 2063 
z
" transform="scale(0.015625)"/>
       </defs>
       <use xlink:href="#DejaVuSans-4e"/>
       <use xlink:href="#DejaVuSans-61" transform="translate(74.804688 0)"/>
       <use xlink:href="#DejaVuSans-69" transform="translate(136.083984 0)"/>
       <use xlink:href="#DejaVuSans-76" transform="translate(163.867188 0)"/>
       <use xlink:href="#DejaVuSans-65" transform="translate(223.046875 0)"/>
      </g>
     </g>
    </g>
    <g id="xtick_2">
     <g id="line2d_4">
      <path d="M 386.83 354.5225 
L 386.83 21.8825 
" clip-path="url(#p81d5944754)" style="fill: none; stroke: #b0b0b0; stroke-opacity: 0.3; stroke-linecap: square"/>
     </g>
     <g id="line2d_5">
      <g>
       <use xlink:href="#mfaf7e72a93" x="386.83" y="354.5225" style="stroke: #000000"/>
      </g>
     </g>
     <g id="line2d_6">
      <g>
       <use xlink:href="#m23cbd97fe8" x="386.83" y="21.8825" style="stroke: #000000"/>
      </g>
     </g>
     <g id="text_2">
      <!-- Score Function -->
      <g transform="translate(327.86 370.18) scale(0.16 -0.16)">
       <defs>
        <path id="DejaVuSans-53" d="M 3425 4513 
L 3425 3897 
Q 3066 4069 2747 4153 
Q 2428 4238 2131 4238 
Q 1616 4238 1336 4038 
Q 1056 3838 1056 3469 
Q 1056 3159 1242 3001 
Q 1428 2844 1947 2747 
L 2328 2669 
Q 3034 2534 3370 2195 
Q 3706 1856 3706 1288 
Q 3706 609 3251 259 
Q 2797 -91 1919 -91 
Q 1588 -91 1214 -16 
Q 841 59 441 206 
L 441 856 
Q 825 641 1194 531 
Q 1563 422 1919 422 
Q 2459 422 2753 634 
Q 3047 847 3047 1241 
Q 3047 1584 2836 1778 
Q 2625 1972 2144 2069 
L 1759 2144 
Q 1053 2284 737 2584 
Q 422 2884 422 3419 
Q 422 4038 858 4394 
Q 1294 4750 2059 4750 
Q 2388 4750 2728 4690 
Q 3069 4631 3425 4513 
z
" transform="scale(0.015625)"/>
        <path id="DejaVuSans-63" d="M 3122 3366 
L 3122 2828 
Q 2878 2963 2633 3030 
Q 2388 3097 2138 3097 
Q 1578 3097 1268 2742 
Q 959 2388 959 1747 
Q 959 1106 1268 751 
Q 1578 397 2138 397 
Q 2388 397 2633 464 
Q 2878 531 3122 666 
L 3122 134 
Q 2881 22 2623 -34 
Q 2366 -91 2075 -91 
Q 1284 -91 818 406 
Q 353 903 353 1747 
Q 353 2603 823 3093 
Q 1294 3584 2113 3584 
Q 2378 3584 2631 3529 
Q 2884 3475 3122 3366 
z
" transform="scale(0.015625)"/>
        <path id="DejaVuSans-6f" d="M 1959 3097 
Q 1497 3097 1228 2736 
Q 959 2375 959 1747 
Q 959 1119 1226 758 
Q 1494 397 1959 397 
Q 2419 397 2687 759 
Q 2956 1122 2956 1747 
Q 2956 2369 2687 2733 
Q 2419 3097 1959 3097 
z
M 1959 3584 
Q 2709 3584 3137 3096 
Q 3566 2609 3566 1747 
Q 3566 888 3137 398 
Q 2709 -91 1959 -91 
Q 1206 -91 779 398 
Q 353 888 353 1747 
Q 353 2609 779 3096 
Q 1206 3584 1959 3584 
z
" transform="scale(0.015625)"/>
        <path id="DejaVuSans-72" d="M 2631 2963 
Q 2534 3019 2420 3045 
Q 2306 3072 2169 3072 
Q 1681 3072 1420 2755 
Q 1159 2438 1159 1844 
L 1159 0 
L 581 0 
L 581 3500 
L 1159 3500 
L 1159 2956 
Q 1341 3275 1631 3429 
Q 1922 3584 2338 3584 
Q 2397 3584 2469 3576 
Q 2541 3569 2628 3553 
L 2631 2963 
z
" transform="scale(0.015625)"/>
        <path id="DejaVuSans-20" transform="scale(0.015625)"/>
        <path id="DejaVuSans-46" d="M 628 4666 
L 3309 4666 
L 3309 4134 
L 1259 4134 
L 1259 2759 
L 3109 2759 
L 3109 2228 
L 1259 2228 
L 1259 0 
L 628 0 
L 628 4666 
z
" transform="scale(0.015625)"/>
        <path id="DejaVuSans-75" d="M 544 1381 
L 544 3500 
L 1119 3500 
L 1119 1403 
Q 1119 906 1312 657 
Q 1506 409 1894 409 
Q 2359 409 2629 706 
Q 2900 1003 2900 1516 
L 2900 3500 
L 3475 3500 
L 3475 0 
L 2900 0 
L 2900 538 
Q 2691 219 2414 64 
Q 2138 -91 1772 -91 
Q 1169 -91 856 284 
Q 544 659 544 1381 
z
M 1991 3584 
L 1991 3584 
z
" transform="scale(0.015625)"/>
        <path id="DejaVuSans-6e" d="M 3513 2113 
L 3513 0 
L 2938 0 
L 2938 2094 
Q 2938 2591 2744 2837 
Q 2550 3084 2163 3084 
Q 1697 3084 1428 2787 
Q 1159 2491 1159 1978 
L 1159 0 
L 581 0 
L 581 3500 
L 1159 3500 
L 1159 2956 
Q 1366 3272 1645 3428 
Q 1925 3584 2291 3584 
Q 2894 3584 3203 3211 
Q 3513 2838 3513 2113 
z
" transform="scale(0.015625)"/>
        <path id="DejaVuSans-74" d="M 1172 4494 
L 1172 3500 
L 2356 3500 
L 2356 3053 
L 1172 3053 
L 1172 1153 
Q 1172 725 1289 603 
Q 1406 481 1766 481 
L 2356 481 
L 2356 0 
L 1766 0 
Q 1100 0 847 248 
Q 594 497 594 1153 
L 594 3053 
L 172 3053 
L 172 3500 
L 594 3500 
L 594 4494 
L 1172 4494 
z
" transform="scale(0.015625)"/>
       </defs>
       <use xlink:href="#DejaVuSans-53"/>
       <use xlink:href="#DejaVuSans-63" transform="translate(63.476562 0)"/>
       <use xlink:href="#DejaVuSans-6f" transform="translate(118.457031 0)"/>
       <use xlink:href="#DejaVuSans-72" transform="translate(179.638672 0)"/>
       <use xlink:href="#DejaVuSans-65" transform="translate(218.501953 0)"/>
       <use xlink:href="#DejaVuSans-20" transform="translate(280.025391 0)"/>
       <use xlink:href="#DejaVuSans-46" transform="translate(311.8125 0)"/>
       <use xlink:href="#DejaVuSans-75" transform="translate(363.832031 0)"/>
       <use xlink:href="#DejaVuSans-6e" transform="translate(427.210938 0)"/>
       <use xlink:href="#DejaVuSans-63" transform="translate(490.589844 0)"/>
       <use xlink:href="#DejaVuSans-74" transform="translate(545.570312 0)"/>
       <use xlink:href="#DejaVuSans-69" transform="translate(584.779297 0)"/>
       <use xlink:href="#DejaVuSans-6f" transform="translate(612.5625 0)"/>
       <use xlink:href="#DejaVuSans-6e" transform="translate(673.744141 0)"/>
      </g>
     </g>
    </g>
    <g id="xtick_3">
     <g id="line2d_7">
      <path d="M 610.03 354.5225 
L 610.03 21.8825 
" clip-path="url(#p81d5944754)" style="fill: none; stroke: #b0b0b0; stroke-opacity: 0.3; stroke-linecap: square"/>
     </g>
     <g id="line2d_8">
      <g>
       <use xlink:href="#mfaf7e72a93" x="610.03" y="354.5225" style="stroke: #000000"/>
      </g>
     </g>
     <g id="line2d_9">
      <g>
       <use xlink:href="#m23cbd97fe8" x="610.03" y="21.8825" style="stroke: #000000"/>
      </g>
     </g>
     <g id="text_3">
      <!-- Reparam -->
      <g transform="translate(573.94375 370.18) scale(0.16 -0.16)">
       <defs>
        <path id="DejaVuSans-52" d="M 2841 2188 
Q 3044 2119 3236 1894 
Q 3428 1669 3622 1275 
L 4263 0 
L 3584 0 
L 2988 1197 
Q 2756 1666 2539 1819 
Q 2322 1972 1947 1972 
L 1259 1972 
L 1259 0 
L 628 0 
L 628 4666 
L 2053 4666 
Q 2853 4666 3247 4331 
Q 3641 3997 3641 3322 
Q 3641 2881 3436 2590 
Q 3231 2300 2841 2188 
z
M 1259 4147 
L 1259 2491 
L 2053 2491 
Q 2509 2491 2742 2702 
Q 2975 2913 2975 3322 
Q 2975 3731 2742 3939 
Q 2509 4147 2053 4147 
L 1259 4147 
z
" transform="scale(0.015625)"/>
        <path id="DejaVuSans-70" d="M 1159 525 
L 1159 -1331 
L 581 -1331 
L 581 3500 
L 1159 3500 
L 1159 2969 
Q 1341 3281 1617 3432 
Q 1894 3584 2278 3584 
Q 2916 3584 3314 3078 
Q 3713 2572 3713 1747 
Q 3713 922 3314 415 
Q 2916 -91 2278 -91 
Q 1894 -91 1617 61 
Q 1341 213 1159 525 
z
M 3116 1747 
Q 3116 2381 2855 2742 
Q 2594 3103 2138 3103 
Q 1681 3103 1420 2742 
Q 1159 2381 1159 1747 
Q 1159 1113 1420 752 
Q 1681 391 2138 391 
Q 2594 391 2855 752 
Q 3116 1113 3116 1747 
z
" transform="scale(0.015625)"/>
        <path id="DejaVuSans-6d" d="M 3328 2828 
Q 3544 3216 3844 3400 
Q 4144 3584 4550 3584 
Q 5097 3584 5394 3201 
Q 5691 2819 5691 2113 
L 5691 0 
L 5113 0 
L 5113 2094 
Q 5113 2597 4934 2840 
Q 4756 3084 4391 3084 
Q 3944 3084 3684 2787 
Q 3425 2491 3425 1978 
L 3425 0 
L 2847 0 
L 2847 2094 
Q 2847 2600 2669 2842 
Q 2491 3084 2119 3084 
Q 1678 3084 1418 2786 
Q 1159 2488 1159 1978 
L 1159 0 
L 581 0 
L 581 3500 
L 1159 3500 
L 1159 2956 
Q 1356 3278 1631 3431 
Q 1906 3584 2284 3584 
Q 2666 3584 2933 3390 
Q 3200 3197 3328 2828 
z
" transform="scale(0.015625)"/>
       </defs>
       <use xlink:href="#DejaVuSans-52"/>
       <use xlink:href="#DejaVuSans-65" transform="translate(64.982422 0)"/>
       <use xlink:href="#DejaVuSans-70" transform="translate(126.505859 0)"/>
       <use xlink:href="#DejaVuSans-61" transform="translate(189.982422 0)"/>
       <use xlink:href="#DejaVuSans-72" transform="translate(251.261719 0)"/>
       <use xlink:href="#DejaVuSans-61" transform="translate(292.375 0)"/>
       <use xlink:href="#DejaVuSans-6d" transform="translate(353.654297 0)"/>
      </g>
     </g>
    </g>
    <g id="xtick_4">
     <g id="line2d_10">
      <defs>
       <path id="mcf6d84aac9" d="M 0 0 
L 0 -3 
" style="stroke: #000000"/>
      </defs>
      <g>
       <use xlink:href="#mcf6d84aac9" x="74.35" y="354.5225" style="stroke: #000000"/>
      </g>
     </g>
     <g id="line2d_11">
      <defs>
       <path id="m10180c22a6" d="M 0 0 
L 0 3 
" style="stroke: #000000"/>
      </defs>
      <g>
       <use xlink:href="#m10180c22a6" x="74.35" y="21.8825" style="stroke: #000000"/>
      </g>
     </g>
    </g>
    <g id="xtick_5">
     <g id="line2d_12">
      <g>
       <use xlink:href="#mcf6d84aac9" x="118.99" y="354.5225" style="stroke: #000000"/>
      </g>
     </g>
     <g id="line2d_13">
      <g>
       <use xlink:href="#m10180c22a6" x="118.99" y="21.8825" style="stroke: #000000"/>
      </g>
     </g>
    </g>
    <g id="xtick_6">
     <g id="line2d_14">
      <g>
       <use xlink:href="#mcf6d84aac9" x="208.27" y="354.5225" style="stroke: #000000"/>
      </g>
     </g>
     <g id="line2d_15">
      <g>
       <use xlink:href="#m10180c22a6" x="208.27" y="21.8825" style="stroke: #000000"/>
      </g>
     </g>
    </g>
    <g id="xtick_7">
     <g id="line2d_16">
      <g>
       <use xlink:href="#mcf6d84aac9" x="252.91" y="354.5225" style="stroke: #000000"/>
      </g>
     </g>
     <g id="line2d_17">
      <g>
       <use xlink:href="#m10180c22a6" x="252.91" y="21.8825" style="stroke: #000000"/>
      </g>
     </g>
    </g>
    <g id="xtick_8">
     <g id="line2d_18">
      <g>
       <use xlink:href="#mcf6d84aac9" x="297.55" y="354.5225" style="stroke: #000000"/>
      </g>
     </g>
     <g id="line2d_19">
      <g>
       <use xlink:href="#m10180c22a6" x="297.55" y="21.8825" style="stroke: #000000"/>
      </g>
     </g>
    </g>
    <g id="xtick_9">
     <g id="line2d_20">
      <g>
       <use xlink:href="#mcf6d84aac9" x="342.19" y="354.5225" style="stroke: #000000"/>
      </g>
     </g>
     <g id="line2d_21">
      <g>
       <use xlink:href="#m10180c22a6" x="342.19" y="21.8825" style="stroke: #000000"/>
      </g>
     </g>
    </g>
    <g id="xtick_10">
     <g id="line2d_22">
      <g>
       <use xlink:href="#mcf6d84aac9" x="431.47" y="354.5225" style="stroke: #000000"/>
      </g>
     </g>
     <g id="line2d_23">
      <g>
       <use xlink:href="#m10180c22a6" x="431.47" y="21.8825" style="stroke: #000000"/>
      </g>
     </g>
    </g>
    <g id="xtick_11">
     <g id="line2d_24">
      <g>
       <use xlink:href="#mcf6d84aac9" x="476.11" y="354.5225" style="stroke: #000000"/>
      </g>
     </g>
     <g id="line2d_25">
      <g>
       <use xlink:href="#m10180c22a6" x="476.11" y="21.8825" style="stroke: #000000"/>
      </g>
     </g>
    </g>
    <g id="xtick_12">
     <g id="line2d_26">
      <g>
       <use xlink:href="#mcf6d84aac9" x="520.75" y="354.5225" style="stroke: #000000"/>
      </g>
     </g>
     <g id="line2d_27">
      <g>
       <use xlink:href="#m10180c22a6" x="520.75" y="21.8825" style="stroke: #000000"/>
      </g>
     </g>
    </g>
    <g id="xtick_13">
     <g id="line2d_28">
      <g>
       <use xlink:href="#mcf6d84aac9" x="565.39" y="354.5225" style="stroke: #000000"/>
      </g>
     </g>
     <g id="line2d_29">
      <g>
       <use xlink:href="#m10180c22a6" x="565.39" y="21.8825" style="stroke: #000000"/>
      </g>
     </g>
    </g>
    <g id="xtick_14">
     <g id="line2d_30">
      <g>
       <use xlink:href="#mcf6d84aac9" x="654.67" y="354.5225" style="stroke: #000000"/>
      </g>
     </g>
     <g id="line2d_31">
      <g>
       <use xlink:href="#m10180c22a6" x="654.67" y="21.8825" style="stroke: #000000"/>
      </g>
     </g>
    </g>
    <g id="xtick_15">
     <g id="line2d_32">
      <g>
       <use xlink:href="#mcf6d84aac9" x="699.31" y="354.5225" style="stroke: #000000"/>
      </g>
     </g>
     <g id="line2d_33">
      <g>
       <use xlink:href="#m10180c22a6" x="699.31" y="21.8825" style="stroke: #000000"/>
      </g>
     </g>
    </g>
   </g>
   <g id="matplotlib.axis_2">
    <g id="ytick_1">
     <g id="line2d_34">
      <path d="M 52.03 316.59877 
L 721.63 316.59877 
" clip-path="url(#p81d5944754)" style="fill: none; stroke: #b0b0b0; stroke-opacity: 0.3; stroke-linecap: square"/>
     </g>
     <g id="line2d_35">
      <defs>
       <path id="m6df585aa14" d="M 0 0 
L 6 0 
" style="stroke: #000000"/>
      </defs>
      <g>
       <use xlink:href="#m6df585aa14" x="52.03" y="316.59877" style="stroke: #000000"/>
      </g>
     </g>
     <g id="line2d_36">
      <defs>
       <path id="m9f158d555d" d="M 0 0 
L -6 0 
" style="stroke: #000000"/>
      </defs>
      <g>
       <use xlink:href="#m9f158d555d" x="721.63" y="316.59877" style="stroke: #000000"/>
      </g>
     </g>
     <g id="text_4">
      <!-- 2.0 -->
      <g transform="translate(23.085 322.67752) scale(0.16 -0.16)">
       <defs>
        <path id="DejaVuSans-32" d="M 1228 531 
L 3431 531 
L 3431 0 
L 469 0 
L 469 531 
Q 828 903 1448 1529 
Q 2069 2156 2228 2338 
Q 2531 2678 2651 2914 
Q 2772 3150 2772 3378 
Q 2772 3750 2511 3984 
Q 2250 4219 1831 4219 
Q 1534 4219 1204 4116 
Q 875 4013 500 3803 
L 500 4441 
Q 881 4594 1212 4672 
Q 1544 4750 1819 4750 
Q 2544 4750 2975 4387 
Q 3406 4025 3406 3419 
Q 3406 3131 3298 2873 
Q 3191 2616 2906 2266 
Q 2828 2175 2409 1742 
Q 1991 1309 1228 531 
z
" transform="scale(0.015625)"/>
        <path id="DejaVuSans-2e" d="M 684 794 
L 1344 794 
L 1344 0 
L 684 0 
L 684 794 
z
" transform="scale(0.015625)"/>
        <path id="DejaVuSans-30" d="M 2034 4250 
Q 1547 4250 1301 3770 
Q 1056 3291 1056 2328 
Q 1056 1369 1301 889 
Q 1547 409 2034 409 
Q 2525 409 2770 889 
Q 3016 1369 3016 2328 
Q 3016 3291 2770 3770 
Q 2525 4250 2034 4250 
z
M 2034 4750 
Q 2819 4750 3233 4129 
Q 3647 3509 3647 2328 
Q 3647 1150 3233 529 
Q 2819 -91 2034 -91 
Q 1250 -91 836 529 
Q 422 1150 422 2328 
Q 422 3509 836 4129 
Q 1250 4750 2034 4750 
z
" transform="scale(0.015625)"/>
       </defs>
       <use xlink:href="#DejaVuSans-32"/>
       <use xlink:href="#DejaVuSans-2e" transform="translate(63.623047 0)"/>
       <use xlink:href="#DejaVuSans-30" transform="translate(95.410156 0)"/>
      </g>
     </g>
    </g>
    <g id="ytick_2">
     <g id="line2d_37">
      <path d="M 52.03 269.223039 
L 721.63 269.223039 
" clip-path="url(#p81d5944754)" style="fill: none; stroke: #b0b0b0; stroke-opacity: 0.3; stroke-linecap: square"/>
     </g>
     <g id="line2d_38">
      <g>
       <use xlink:href="#m6df585aa14" x="52.03" y="269.223039" style="stroke: #000000"/>
      </g>
     </g>
     <g id="line2d_39">
      <g>
       <use xlink:href="#m9f158d555d" x="721.63" y="269.223039" style="stroke: #000000"/>
      </g>
     </g>
     <g id="text_5">
      <!-- 2.5 -->
      <g transform="translate(23.085 275.301789) scale(0.16 -0.16)">
       <defs>
        <path id="DejaVuSans-35" d="M 691 4666 
L 3169 4666 
L 3169 4134 
L 1269 4134 
L 1269 2991 
Q 1406 3038 1543 3061 
Q 1681 3084 1819 3084 
Q 2600 3084 3056 2656 
Q 3513 2228 3513 1497 
Q 3513 744 3044 326 
Q 2575 -91 1722 -91 
Q 1428 -91 1123 -41 
Q 819 9 494 109 
L 494 744 
Q 775 591 1075 516 
Q 1375 441 1709 441 
Q 2250 441 2565 725 
Q 2881 1009 2881 1497 
Q 2881 1984 2565 2268 
Q 2250 2553 1709 2553 
Q 1456 2553 1204 2497 
Q 953 2441 691 2322 
L 691 4666 
z
" transform="scale(0.015625)"/>
       </defs>
       <use xlink:href="#DejaVuSans-32"/>
       <use xlink:href="#DejaVuSans-2e" transform="translate(63.623047 0)"/>
       <use xlink:href="#DejaVuSans-35" transform="translate(95.410156 0)"/>
      </g>
     </g>
    </g>
    <g id="ytick_3">
     <g id="line2d_40">
      <path d="M 52.03 221.847308 
L 721.63 221.847308 
" clip-path="url(#p81d5944754)" style="fill: none; stroke: #b0b0b0; stroke-opacity: 0.3; stroke-linecap: square"/>
     </g>
     <g id="line2d_41">
      <g>
       <use xlink:href="#m6df585aa14" x="52.03" y="221.847308" style="stroke: #000000"/>
      </g>
     </g>
     <g id="line2d_42">
      <g>
       <use xlink:href="#m9f158d555d" x="721.63" y="221.847308" style="stroke: #000000"/>
      </g>
     </g>
     <g id="text_6">
      <!-- 3.0 -->
      <g transform="translate(23.085 227.926058) scale(0.16 -0.16)">
       <defs>
        <path id="DejaVuSans-33" d="M 2597 2516 
Q 3050 2419 3304 2112 
Q 3559 1806 3559 1356 
Q 3559 666 3084 287 
Q 2609 -91 1734 -91 
Q 1441 -91 1130 -33 
Q 819 25 488 141 
L 488 750 
Q 750 597 1062 519 
Q 1375 441 1716 441 
Q 2309 441 2620 675 
Q 2931 909 2931 1356 
Q 2931 1769 2642 2001 
Q 2353 2234 1838 2234 
L 1294 2234 
L 1294 2753 
L 1863 2753 
Q 2328 2753 2575 2939 
Q 2822 3125 2822 3475 
Q 2822 3834 2567 4026 
Q 2313 4219 1838 4219 
Q 1578 4219 1281 4162 
Q 984 4106 628 3988 
L 628 4550 
Q 988 4650 1302 4700 
Q 1616 4750 1894 4750 
Q 2613 4750 3031 4423 
Q 3450 4097 3450 3541 
Q 3450 3153 3228 2886 
Q 3006 2619 2597 2516 
z
" transform="scale(0.015625)"/>
       </defs>
       <use xlink:href="#DejaVuSans-33"/>
       <use xlink:href="#DejaVuSans-2e" transform="translate(63.623047 0)"/>
       <use xlink:href="#DejaVuSans-30" transform="translate(95.410156 0)"/>
      </g>
     </g>
    </g>
    <g id="ytick_4">
     <g id="line2d_43">
      <path d="M 52.03 174.471576 
L 721.63 174.471576 
" clip-path="url(#p81d5944754)" style="fill: none; stroke: #b0b0b0; stroke-opacity: 0.3; stroke-linecap: square"/>
     </g>
     <g id="line2d_44">
      <g>
       <use xlink:href="#m6df585aa14" x="52.03" y="174.471576" style="stroke: #000000"/>
      </g>
     </g>
     <g id="line2d_45">
      <g>
       <use xlink:href="#m9f158d555d" x="721.63" y="174.471576" style="stroke: #000000"/>
      </g>
     </g>
     <g id="text_7">
      <!-- 3.5 -->
      <g transform="translate(23.085 180.550326) scale(0.16 -0.16)">
       <use xlink:href="#DejaVuSans-33"/>
       <use xlink:href="#DejaVuSans-2e" transform="translate(63.623047 0)"/>
       <use xlink:href="#DejaVuSans-35" transform="translate(95.410156 0)"/>
      </g>
     </g>
    </g>
    <g id="ytick_5">
     <g id="line2d_46">
      <path d="M 52.03 127.095845 
L 721.63 127.095845 
" clip-path="url(#p81d5944754)" style="fill: none; stroke: #b0b0b0; stroke-opacity: 0.3; stroke-linecap: square"/>
     </g>
     <g id="line2d_47">
      <g>
       <use xlink:href="#m6df585aa14" x="52.03" y="127.095845" style="stroke: #000000"/>
      </g>
     </g>
     <g id="line2d_48">
      <g>
       <use xlink:href="#m9f158d555d" x="721.63" y="127.095845" style="stroke: #000000"/>
      </g>
     </g>
     <g id="text_8">
      <!-- 4.0 -->
      <g transform="translate(23.085 133.174595) scale(0.16 -0.16)">
       <defs>
        <path id="DejaVuSans-34" d="M 2419 4116 
L 825 1625 
L 2419 1625 
L 2419 4116 
z
M 2253 4666 
L 3047 4666 
L 3047 1625 
L 3713 1625 
L 3713 1100 
L 3047 1100 
L 3047 0 
L 2419 0 
L 2419 1100 
L 313 1100 
L 313 1709 
L 2253 4666 
z
" transform="scale(0.015625)"/>
       </defs>
       <use xlink:href="#DejaVuSans-34"/>
       <use xlink:href="#DejaVuSans-2e" transform="translate(63.623047 0)"/>
       <use xlink:href="#DejaVuSans-30" transform="translate(95.410156 0)"/>
      </g>
     </g>
    </g>
    <g id="ytick_6">
     <g id="line2d_49">
      <path d="M 52.03 79.720114 
L 721.63 79.720114 
" clip-path="url(#p81d5944754)" style="fill: none; stroke: #b0b0b0; stroke-opacity: 0.3; stroke-linecap: square"/>
     </g>
     <g id="line2d_50">
      <g>
       <use xlink:href="#m6df585aa14" x="52.03" y="79.720114" style="stroke: #000000"/>
      </g>
     </g>
     <g id="line2d_51">
      <g>
       <use xlink:href="#m9f158d555d" x="721.63" y="79.720114" style="stroke: #000000"/>
      </g>
     </g>
     <g id="text_9">
      <!-- 4.5 -->
      <g transform="translate(23.085 85.798864) scale(0.16 -0.16)">
       <use xlink:href="#DejaVuSans-34"/>
       <use xlink:href="#DejaVuSans-2e" transform="translate(63.623047 0)"/>
       <use xlink:href="#DejaVuSans-35" transform="translate(95.410156 0)"/>
      </g>
     </g>
    </g>
    <g id="ytick_7">
     <g id="line2d_52">
      <path d="M 52.03 32.344382 
L 721.63 32.344382 
" clip-path="url(#p81d5944754)" style="fill: none; stroke: #b0b0b0; stroke-opacity: 0.3; stroke-linecap: square"/>
     </g>
     <g id="line2d_53">
      <g>
       <use xlink:href="#m6df585aa14" x="52.03" y="32.344382" style="stroke: #000000"/>
      </g>
     </g>
     <g id="line2d_54">
      <g>
       <use xlink:href="#m9f158d555d" x="721.63" y="32.344382" style="stroke: #000000"/>
      </g>
     </g>
     <g id="text_10">
      <!-- 5.0 -->
      <g transform="translate(23.085 38.423132) scale(0.16 -0.16)">
       <use xlink:href="#DejaVuSans-35"/>
       <use xlink:href="#DejaVuSans-2e" transform="translate(63.623047 0)"/>
       <use xlink:href="#DejaVuSans-30" transform="translate(95.410156 0)"/>
      </g>
     </g>
    </g>
    <g id="ytick_8">
     <g id="line2d_55">
      <defs>
       <path id="m333a14370a" d="M 0 0 
L 3 0 
" style="stroke: #000000"/>
      </defs>
      <g>
       <use xlink:href="#m333a14370a" x="52.03" y="354.499355" style="stroke: #000000"/>
      </g>
     </g>
     <g id="line2d_56">
      <defs>
       <path id="mc37207d05a" d="M 0 0 
L -3 0 
" style="stroke: #000000"/>
      </defs>
      <g>
       <use xlink:href="#mc37207d05a" x="721.63" y="354.499355" style="stroke: #000000"/>
      </g>
     </g>
    </g>
    <g id="ytick_9">
     <g id="line2d_57">
      <g>
       <use xlink:href="#m333a14370a" x="52.03" y="345.024209" style="stroke: #000000"/>
      </g>
     </g>
     <g id="line2d_58">
      <g>
       <use xlink:href="#mc37207d05a" x="721.63" y="345.024209" style="stroke: #000000"/>
      </g>
     </g>
    </g>
    <g id="ytick_10">
     <g id="line2d_59">
      <g>
       <use xlink:href="#m333a14370a" x="52.03" y="335.549063" style="stroke: #000000"/>
      </g>
     </g>
     <g id="line2d_60">
      <g>
       <use xlink:href="#mc37207d05a" x="721.63" y="335.549063" style="stroke: #000000"/>
      </g>
     </g>
    </g>
    <g id="ytick_11">
     <g id="line2d_61">
      <g>
       <use xlink:href="#m333a14370a" x="52.03" y="326.073917" style="stroke: #000000"/>
      </g>
     </g>
     <g id="line2d_62">
      <g>
       <use xlink:href="#mc37207d05a" x="721.63" y="326.073917" style="stroke: #000000"/>
      </g>
     </g>
    </g>
    <g id="ytick_12">
     <g id="line2d_63">
      <g>
       <use xlink:href="#m333a14370a" x="52.03" y="307.123624" style="stroke: #000000"/>
      </g>
     </g>
     <g id="line2d_64">
      <g>
       <use xlink:href="#mc37207d05a" x="721.63" y="307.123624" style="stroke: #000000"/>
      </g>
     </g>
    </g>
    <g id="ytick_13">
     <g id="line2d_65">
      <g>
       <use xlink:href="#m333a14370a" x="52.03" y="297.648478" style="stroke: #000000"/>
      </g>
     </g>
     <g id="line2d_66">
      <g>
       <use xlink:href="#mc37207d05a" x="721.63" y="297.648478" style="stroke: #000000"/>
      </g>
     </g>
    </g>
    <g id="ytick_14">
     <g id="line2d_67">
      <g>
       <use xlink:href="#m333a14370a" x="52.03" y="288.173332" style="stroke: #000000"/>
      </g>
     </g>
     <g id="line2d_68">
      <g>
       <use xlink:href="#mc37207d05a" x="721.63" y="288.173332" style="stroke: #000000"/>
      </g>
     </g>
    </g>
    <g id="ytick_15">
     <g id="line2d_69">
      <g>
       <use xlink:href="#m333a14370a" x="52.03" y="278.698185" style="stroke: #000000"/>
      </g>
     </g>
     <g id="line2d_70">
      <g>
       <use xlink:href="#mc37207d05a" x="721.63" y="278.698185" style="stroke: #000000"/>
      </g>
     </g>
    </g>
    <g id="ytick_16">
     <g id="line2d_71">
      <g>
       <use xlink:href="#m333a14370a" x="52.03" y="259.747893" style="stroke: #000000"/>
      </g>
     </g>
     <g id="line2d_72">
      <g>
       <use xlink:href="#mc37207d05a" x="721.63" y="259.747893" style="stroke: #000000"/>
      </g>
     </g>
    </g>
    <g id="ytick_17">
     <g id="line2d_73">
      <g>
       <use xlink:href="#m333a14370a" x="52.03" y="250.272746" style="stroke: #000000"/>
      </g>
     </g>
     <g id="line2d_74">
      <g>
       <use xlink:href="#mc37207d05a" x="721.63" y="250.272746" style="stroke: #000000"/>
      </g>
     </g>
    </g>
    <g id="ytick_18">
     <g id="line2d_75">
      <g>
       <use xlink:href="#m333a14370a" x="52.03" y="240.7976" style="stroke: #000000"/>
      </g>
     </g>
     <g id="line2d_76">
      <g>
       <use xlink:href="#mc37207d05a" x="721.63" y="240.7976" style="stroke: #000000"/>
      </g>
     </g>
    </g>
    <g id="ytick_19">
     <g id="line2d_77">
      <g>
       <use xlink:href="#m333a14370a" x="52.03" y="231.322454" style="stroke: #000000"/>
      </g>
     </g>
     <g id="line2d_78">
      <g>
       <use xlink:href="#mc37207d05a" x="721.63" y="231.322454" style="stroke: #000000"/>
      </g>
     </g>
    </g>
    <g id="ytick_20">
     <g id="line2d_79">
      <g>
       <use xlink:href="#m333a14370a" x="52.03" y="212.372161" style="stroke: #000000"/>
      </g>
     </g>
     <g id="line2d_80">
      <g>
       <use xlink:href="#mc37207d05a" x="721.63" y="212.372161" style="stroke: #000000"/>
      </g>
     </g>
    </g>
    <g id="ytick_21">
     <g id="line2d_81">
      <g>
       <use xlink:href="#m333a14370a" x="52.03" y="202.897015" style="stroke: #000000"/>
      </g>
     </g>
     <g id="line2d_82">
      <g>
       <use xlink:href="#mc37207d05a" x="721.63" y="202.897015" style="stroke: #000000"/>
      </g>
     </g>
    </g>
    <g id="ytick_22">
     <g id="line2d_83">
      <g>
       <use xlink:href="#m333a14370a" x="52.03" y="193.421869" style="stroke: #000000"/>
      </g>
     </g>
     <g id="line2d_84">
      <g>
       <use xlink:href="#mc37207d05a" x="721.63" y="193.421869" style="stroke: #000000"/>
      </g>
     </g>
    </g>
    <g id="ytick_23">
     <g id="line2d_85">
      <g>
       <use xlink:href="#m333a14370a" x="52.03" y="183.946723" style="stroke: #000000"/>
      </g>
     </g>
     <g id="line2d_86">
      <g>
       <use xlink:href="#mc37207d05a" x="721.63" y="183.946723" style="stroke: #000000"/>
      </g>
     </g>
    </g>
    <g id="ytick_24">
     <g id="line2d_87">
      <g>
       <use xlink:href="#m333a14370a" x="52.03" y="164.99643" style="stroke: #000000"/>
      </g>
     </g>
     <g id="line2d_88">
      <g>
       <use xlink:href="#mc37207d05a" x="721.63" y="164.99643" style="stroke: #000000"/>
      </g>
     </g>
    </g>
    <g id="ytick_25">
     <g id="line2d_89">
      <g>
       <use xlink:href="#m333a14370a" x="52.03" y="155.521284" style="stroke: #000000"/>
      </g>
     </g>
     <g id="line2d_90">
      <g>
       <use xlink:href="#mc37207d05a" x="721.63" y="155.521284" style="stroke: #000000"/>
      </g>
     </g>
    </g>
    <g id="ytick_26">
     <g id="line2d_91">
      <g>
       <use xlink:href="#m333a14370a" x="52.03" y="146.046137" style="stroke: #000000"/>
      </g>
     </g>
     <g id="line2d_92">
      <g>
       <use xlink:href="#mc37207d05a" x="721.63" y="146.046137" style="stroke: #000000"/>
      </g>
     </g>
    </g>
    <g id="ytick_27">
     <g id="line2d_93">
      <g>
       <use xlink:href="#m333a14370a" x="52.03" y="136.570991" style="stroke: #000000"/>
      </g>
     </g>
     <g id="line2d_94">
      <g>
       <use xlink:href="#mc37207d05a" x="721.63" y="136.570991" style="stroke: #000000"/>
      </g>
     </g>
    </g>
    <g id="ytick_28">
     <g id="line2d_95">
      <g>
       <use xlink:href="#m333a14370a" x="52.03" y="117.620699" style="stroke: #000000"/>
      </g>
     </g>
     <g id="line2d_96">
      <g>
       <use xlink:href="#mc37207d05a" x="721.63" y="117.620699" style="stroke: #000000"/>
      </g>
     </g>
    </g>
    <g id="ytick_29">
     <g id="line2d_97">
      <g>
       <use xlink:href="#m333a14370a" x="52.03" y="108.145552" style="stroke: #000000"/>
      </g>
     </g>
     <g id="line2d_98">
      <g>
       <use xlink:href="#mc37207d05a" x="721.63" y="108.145552" style="stroke: #000000"/>
      </g>
     </g>
    </g>
    <g id="ytick_30">
     <g id="line2d_99">
      <g>
       <use xlink:href="#m333a14370a" x="52.03" y="98.670406" style="stroke: #000000"/>
      </g>
     </g>
     <g id="line2d_100">
      <g>
       <use xlink:href="#mc37207d05a" x="721.63" y="98.670406" style="stroke: #000000"/>
      </g>
     </g>
    </g>
    <g id="ytick_31">
     <g id="line2d_101">
      <g>
       <use xlink:href="#m333a14370a" x="52.03" y="89.19526" style="stroke: #000000"/>
      </g>
     </g>
     <g id="line2d_102">
      <g>
       <use xlink:href="#mc37207d05a" x="721.63" y="89.19526" style="stroke: #000000"/>
      </g>
     </g>
    </g>
    <g id="ytick_32">
     <g id="line2d_103">
      <g>
       <use xlink:href="#m333a14370a" x="52.03" y="70.244967" style="stroke: #000000"/>
      </g>
     </g>
     <g id="line2d_104">
      <g>
       <use xlink:href="#mc37207d05a" x="721.63" y="70.244967" style="stroke: #000000"/>
      </g>
     </g>
    </g>
    <g id="ytick_33">
     <g id="line2d_105">
      <g>
       <use xlink:href="#m333a14370a" x="52.03" y="60.769821" style="stroke: #000000"/>
      </g>
     </g>
     <g id="line2d_106">
      <g>
       <use xlink:href="#mc37207d05a" x="721.63" y="60.769821" style="stroke: #000000"/>
      </g>
     </g>
    </g>
    <g id="ytick_34">
     <g id="line2d_107">
      <g>
       <use xlink:href="#m333a14370a" x="52.03" y="51.294675" style="stroke: #000000"/>
      </g>
     </g>
     <g id="line2d_108">
      <g>
       <use xlink:href="#mc37207d05a" x="721.63" y="51.294675" style="stroke: #000000"/>
      </g>
     </g>
    </g>
    <g id="ytick_35">
     <g id="line2d_109">
      <g>
       <use xlink:href="#m333a14370a" x="52.03" y="41.819528" style="stroke: #000000"/>
      </g>
     </g>
     <g id="line2d_110">
      <g>
       <use xlink:href="#mc37207d05a" x="721.63" y="41.819528" style="stroke: #000000"/>
      </g>
     </g>
    </g>
    <g id="ytick_36">
     <g id="line2d_111">
      <g>
       <use xlink:href="#m333a14370a" x="52.03" y="22.869236" style="stroke: #000000"/>
      </g>
     </g>
     <g id="line2d_112">
      <g>
       <use xlink:href="#mc37207d05a" x="721.63" y="22.869236" style="stroke: #000000"/>
      </g>
     </g>
    </g>
    <g id="text_11">
     <!-- Gradient Estimate -->
     <g transform="translate(15.7575 260.9) rotate(-90) scale(0.16 -0.16)">
      <defs>
       <path id="DejaVuSans-47" d="M 3809 666 
L 3809 1919 
L 2778 1919 
L 2778 2438 
L 4434 2438 
L 4434 434 
Q 4069 175 3628 42 
Q 3188 -91 2688 -91 
Q 1594 -91 976 548 
Q 359 1188 359 2328 
Q 359 3472 976 4111 
Q 1594 4750 2688 4750 
Q 3144 4750 3555 4637 
Q 3966 4525 4313 4306 
L 4313 3634 
Q 3963 3931 3569 4081 
Q 3175 4231 2741 4231 
Q 1884 4231 1454 3753 
Q 1025 3275 1025 2328 
Q 1025 1384 1454 906 
Q 1884 428 2741 428 
Q 3075 428 3337 486 
Q 3600 544 3809 666 
z
" transform="scale(0.015625)"/>
       <path id="DejaVuSans-64" d="M 2906 2969 
L 2906 4863 
L 3481 4863 
L 3481 0 
L 2906 0 
L 2906 525 
Q 2725 213 2448 61 
Q 2172 -91 1784 -91 
Q 1150 -91 751 415 
Q 353 922 353 1747 
Q 353 2572 751 3078 
Q 1150 3584 1784 3584 
Q 2172 3584 2448 3432 
Q 2725 3281 2906 2969 
z
M 947 1747 
Q 947 1113 1208 752 
Q 1469 391 1925 391 
Q 2381 391 2643 752 
Q 2906 1113 2906 1747 
Q 2906 2381 2643 2742 
Q 2381 3103 1925 3103 
Q 1469 3103 1208 2742 
Q 947 2381 947 1747 
z
" transform="scale(0.015625)"/>
       <path id="DejaVuSans-45" d="M 628 4666 
L 3578 4666 
L 3578 4134 
L 1259 4134 
L 1259 2753 
L 3481 2753 
L 3481 2222 
L 1259 2222 
L 1259 531 
L 3634 531 
L 3634 0 
L 628 0 
L 628 4666 
z
" transform="scale(0.015625)"/>
       <path id="DejaVuSans-73" d="M 2834 3397 
L 2834 2853 
Q 2591 2978 2328 3040 
Q 2066 3103 1784 3103 
Q 1356 3103 1142 2972 
Q 928 2841 928 2578 
Q 928 2378 1081 2264 
Q 1234 2150 1697 2047 
L 1894 2003 
Q 2506 1872 2764 1633 
Q 3022 1394 3022 966 
Q 3022 478 2636 193 
Q 2250 -91 1575 -91 
Q 1294 -91 989 -36 
Q 684 19 347 128 
L 347 722 
Q 666 556 975 473 
Q 1284 391 1588 391 
Q 1994 391 2212 530 
Q 2431 669 2431 922 
Q 2431 1156 2273 1281 
Q 2116 1406 1581 1522 
L 1381 1569 
Q 847 1681 609 1914 
Q 372 2147 372 2553 
Q 372 3047 722 3315 
Q 1072 3584 1716 3584 
Q 2034 3584 2315 3537 
Q 2597 3491 2834 3397 
z
" transform="scale(0.015625)"/>
      </defs>
      <use xlink:href="#DejaVuSans-47"/>
      <use xlink:href="#DejaVuSans-72" transform="translate(77.490234 0)"/>
      <use xlink:href="#DejaVuSans-61" transform="translate(118.603516 0)"/>
      <use xlink:href="#DejaVuSans-64" transform="translate(179.882812 0)"/>
      <use xlink:href="#DejaVuSans-69" transform="translate(243.359375 0)"/>
      <use xlink:href="#DejaVuSans-65" transform="translate(271.142578 0)"/>
      <use xlink:href="#DejaVuSans-6e" transform="translate(332.666016 0)"/>
      <use xlink:href="#DejaVuSans-74" transform="translate(396.044922 0)"/>
      <use xlink:href="#DejaVuSans-20" transform="translate(435.253906 0)"/>
      <use xlink:href="#DejaVuSans-45" transform="translate(467.041016 0)"/>
      <use xlink:href="#DejaVuSans-73" transform="translate(530.224609 0)"/>
      <use xlink:href="#DejaVuSans-74" transform="translate(582.324219 0)"/>
      <use xlink:href="#DejaVuSans-69" transform="translate(621.533203 0)"/>
      <use xlink:href="#DejaVuSans-6d" transform="translate(649.316406 0)"/>
      <use xlink:href="#DejaVuSans-61" transform="translate(746.728516 0)"/>
      <use xlink:href="#DejaVuSans-74" transform="translate(808.007812 0)"/>
      <use xlink:href="#DejaVuSans-65" transform="translate(847.216797 0)"/>
     </g>
    </g>
   </g>
   <g id="line2d_113">
    <path d="M 130.15 321.371829 
L 197.11 321.371829 
L 197.11 317.134657 
L 180.37 316.668897 
L 197.11 316.203137 
L 197.11 311.990544 
L 130.15 311.990544 
L 130.15 316.203137 
L 146.89 316.668897 
L 130.15 317.134657 
L 130.15 321.371829 
" clip-path="url(#p81d5944754)" style="fill: none; stroke: #000000; stroke-linecap: square"/>
   </g>
   <g id="line2d_114">
    <path d="M 163.63 321.371829 
L 163.63 333.806481 
" clip-path="url(#p81d5944754)" style="fill: none; stroke: #000000; stroke-linecap: square"/>
   </g>
   <g id="line2d_115">
    <path d="M 163.63 311.990544 
L 163.63 298.164508 
" clip-path="url(#p81d5944754)" style="fill: none; stroke: #000000; stroke-linecap: square"/>
   </g>
   <g id="line2d_116">
    <path d="M 146.89 333.806481 
L 180.37 333.806481 
" clip-path="url(#p81d5944754)" style="fill: none; stroke: #000000; stroke-linecap: square"/>
   </g>
   <g id="line2d_117">
    <path d="M 146.89 298.164508 
L 180.37 298.164508 
" clip-path="url(#p81d5944754)" style="fill: none; stroke: #000000; stroke-linecap: square"/>
   </g>
   <g id="line2d_118">
    <path d="M 353.35 142.407466 
L 420.31 142.407466 
L 420.31 129.307665 
L 403.57 127.832183 
L 420.31 126.3567 
L 420.31 112.688443 
L 353.35 112.688443 
L 353.35 126.3567 
L 370.09 127.832183 
L 353.35 129.307665 
L 353.35 142.407466 
" clip-path="url(#p81d5944754)" style="fill: none; stroke: #000000; stroke-linecap: square"/>
   </g>
   <g id="line2d_119">
    <path d="M 386.83 142.407466 
L 386.83 185.974867 
" clip-path="url(#p81d5944754)" style="fill: none; stroke: #000000; stroke-linecap: square"/>
   </g>
   <g id="line2d_120">
    <path d="M 386.83 112.688443 
L 386.83 70.323411 
" clip-path="url(#p81d5944754)" style="fill: none; stroke: #000000; stroke-linecap: square"/>
   </g>
   <g id="line2d_121">
    <path d="M 370.09 185.974867 
L 403.57 185.974867 
" clip-path="url(#p81d5944754)" style="fill: none; stroke: #000000; stroke-linecap: square"/>
   </g>
   <g id="line2d_122">
    <path d="M 370.09 70.323411 
L 403.57 70.323411 
" clip-path="url(#p81d5944754)" style="fill: none; stroke: #000000; stroke-linecap: square"/>
   </g>
   <g id="line2d_123">
    <path d="M 576.55 135.526521 
L 643.51 135.526521 
L 643.51 128.007574 
L 626.77 127.180559 
L 643.51 126.353545 
L 643.51 118.868878 
L 576.55 118.868878 
L 576.55 126.353545 
L 593.29 127.180559 
L 576.55 128.007574 
L 576.55 135.526521 
" clip-path="url(#p81d5944754)" style="fill: none; stroke: #000000; stroke-linecap: square"/>
   </g>
   <g id="line2d_124">
    <path d="M 610.03 135.526521 
L 610.03 160.404195 
" clip-path="url(#p81d5944754)" style="fill: none; stroke: #000000; stroke-linecap: square"/>
   </g>
   <g id="line2d_125">
    <path d="M 610.03 118.868878 
L 610.03 94.698615 
" clip-path="url(#p81d5944754)" style="fill: none; stroke: #000000; stroke-linecap: square"/>
   </g>
   <g id="line2d_126">
    <path d="M 593.29 160.404195 
L 626.77 160.404195 
" clip-path="url(#p81d5944754)" style="fill: none; stroke: #000000; stroke-linecap: square"/>
   </g>
   <g id="line2d_127">
    <path d="M 593.29 94.698615 
L 626.77 94.698615 
" clip-path="url(#p81d5944754)" style="fill: none; stroke: #000000; stroke-linecap: square"/>
   </g>
   <g id="line2d_128">
    <path d="M 52.03 127.095845 
L 721.63 127.095845 
" clip-path="url(#p81d5944754)" style="fill: none; stroke-dasharray: 7.4,3.2; stroke-dashoffset: 0; stroke: #ff0000; stroke-width: 2"/>
   </g>
   <g id="line2d_129">
    <path d="M 146.89 316.668897 
L 180.37 316.668897 
" clip-path="url(#p81d5944754)" style="fill: none; stroke: #00b945"/>
   </g>
   <g id="line2d_130">
    <path d="M 370.09 127.832183 
L 403.57 127.832183 
" clip-path="url(#p81d5944754)" style="fill: none; stroke: #00b945"/>
   </g>
   <g id="line2d_131">
    <path d="M 593.29 127.180559 
L 626.77 127.180559 
" clip-path="url(#p81d5944754)" style="fill: none; stroke: #00b945"/>
   </g>
   <g id="patch_3">
    <path d="M 52.03 354.5225 
L 52.03 21.8825 
" style="fill: none; stroke: #000000; stroke-linejoin: miter; stroke-linecap: square"/>
   </g>
   <g id="patch_4">
    <path d="M 721.63 354.5225 
L 721.63 21.8825 
" style="fill: none; stroke: #000000; stroke-linejoin: miter; stroke-linecap: square"/>
   </g>
   <g id="patch_5">
    <path d="M 52.03 354.5225 
L 721.63 354.5225 
" style="fill: none; stroke: #000000; stroke-linejoin: miter; stroke-linecap: square"/>
   </g>
   <g id="patch_6">
    <path d="M 52.03 21.8825 
L 721.63 21.8825 
" style="fill: none; stroke: #000000; stroke-linejoin: miter; stroke-linecap: square"/>
   </g>
   <g id="text_12">
    <!-- Gradient Estimators (=1.0, true grad=4.00) -->
    <g transform="translate(206.6875 15.8825) scale(0.16 -0.16)">
     <defs>
      <path id="DejaVuSans-28" d="M 1984 4856 
Q 1566 4138 1362 3434 
Q 1159 2731 1159 2009 
Q 1159 1288 1364 580 
Q 1569 -128 1984 -844 
L 1484 -844 
Q 1016 -109 783 600 
Q 550 1309 550 2009 
Q 550 2706 781 3412 
Q 1013 4119 1484 4856 
L 1984 4856 
z
" transform="scale(0.015625)"/>
      <path id="DejaVuSans-3b8" d="M 2953 2219 
L 963 2219 
Q 1009 1284 1225 888 
Q 1494 400 1959 400 
Q 2428 400 2688 891 
Q 2916 1322 2953 2219 
z
M 2944 2750 
Q 2856 3638 2688 3950 
Q 2419 4444 1959 4444 
Q 1481 4444 1228 3956 
Q 1028 3563 969 2750 
L 2944 2750 
z
M 1959 4913 
Q 2709 4913 3138 4250 
Q 3566 3591 3566 2422 
Q 3566 1256 3138 594 
Q 2709 -72 1959 -72 
Q 1206 -72 781 594 
Q 353 1256 353 2422 
Q 353 3591 781 4250 
Q 1206 4913 1959 4913 
z
" transform="scale(0.015625)"/>
      <path id="DejaVuSans-3d" d="M 678 2906 
L 4684 2906 
L 4684 2381 
L 678 2381 
L 678 2906 
z
M 678 1631 
L 4684 1631 
L 4684 1100 
L 678 1100 
L 678 1631 
z
" transform="scale(0.015625)"/>
      <path id="DejaVuSans-31" d="M 794 531 
L 1825 531 
L 1825 4091 
L 703 3866 
L 703 4441 
L 1819 4666 
L 2450 4666 
L 2450 531 
L 3481 531 
L 3481 0 
L 794 0 
L 794 531 
z
" transform="scale(0.015625)"/>
      <path id="DejaVuSans-2c" d="M 750 794 
L 1409 794 
L 1409 256 
L 897 -744 
L 494 -744 
L 750 256 
L 750 794 
z
" transform="scale(0.015625)"/>
      <path id="DejaVuSans-67" d="M 2906 1791 
Q 2906 2416 2648 2759 
Q 2391 3103 1925 3103 
Q 1463 3103 1205 2759 
Q 947 2416 947 1791 
Q 947 1169 1205 825 
Q 1463 481 1925 481 
Q 2391 481 2648 825 
Q 2906 1169 2906 1791 
z
M 3481 434 
Q 3481 -459 3084 -895 
Q 2688 -1331 1869 -1331 
Q 1566 -1331 1297 -1286 
Q 1028 -1241 775 -1147 
L 775 -588 
Q 1028 -725 1275 -790 
Q 1522 -856 1778 -856 
Q 2344 -856 2625 -561 
Q 2906 -266 2906 331 
L 2906 616 
Q 2728 306 2450 153 
Q 2172 0 1784 0 
Q 1141 0 747 490 
Q 353 981 353 1791 
Q 353 2603 747 3093 
Q 1141 3584 1784 3584 
Q 2172 3584 2450 3431 
Q 2728 3278 2906 2969 
L 2906 3500 
L 3481 3500 
L 3481 434 
z
" transform="scale(0.015625)"/>
      <path id="DejaVuSans-29" d="M 513 4856 
L 1013 4856 
Q 1481 4119 1714 3412 
Q 1947 2706 1947 2009 
Q 1947 1309 1714 600 
Q 1481 -109 1013 -844 
L 513 -844 
Q 928 -128 1133 580 
Q 1338 1288 1338 2009 
Q 1338 2731 1133 3434 
Q 928 4138 513 4856 
z
" transform="scale(0.015625)"/>
     </defs>
     <use xlink:href="#DejaVuSans-47"/>
     <use xlink:href="#DejaVuSans-72" transform="translate(77.490234 0)"/>
     <use xlink:href="#DejaVuSans-61" transform="translate(118.603516 0)"/>
     <use xlink:href="#DejaVuSans-64" transform="translate(179.882812 0)"/>
     <use xlink:href="#DejaVuSans-69" transform="translate(243.359375 0)"/>
     <use xlink:href="#DejaVuSans-65" transform="translate(271.142578 0)"/>
     <use xlink:href="#DejaVuSans-6e" transform="translate(332.666016 0)"/>
     <use xlink:href="#DejaVuSans-74" transform="translate(396.044922 0)"/>
     <use xlink:href="#DejaVuSans-20" transform="translate(435.253906 0)"/>
     <use xlink:href="#DejaVuSans-45" transform="translate(467.041016 0)"/>
     <use xlink:href="#DejaVuSans-73" transform="translate(530.224609 0)"/>
     <use xlink:href="#DejaVuSans-74" transform="translate(582.324219 0)"/>
     <use xlink:href="#DejaVuSans-69" transform="translate(621.533203 0)"/>
     <use xlink:href="#DejaVuSans-6d" transform="translate(649.316406 0)"/>
     <use xlink:href="#DejaVuSans-61" transform="translate(746.728516 0)"/>
     <use xlink:href="#DejaVuSans-74" transform="translate(808.007812 0)"/>
     <use xlink:href="#DejaVuSans-6f" transform="translate(847.216797 0)"/>
     <use xlink:href="#DejaVuSans-72" transform="translate(908.398438 0)"/>
     <use xlink:href="#DejaVuSans-73" transform="translate(949.511719 0)"/>
     <use xlink:href="#DejaVuSans-20" transform="translate(1001.611328 0)"/>
     <use xlink:href="#DejaVuSans-28" transform="translate(1033.398438 0)"/>
     <use xlink:href="#DejaVuSans-3b8" transform="translate(1072.412109 0)"/>
     <use xlink:href="#DejaVuSans-3d" transform="translate(1133.59375 0)"/>
     <use xlink:href="#DejaVuSans-31" transform="translate(1217.382812 0)"/>
     <use xlink:href="#DejaVuSans-2e" transform="translate(1281.005859 0)"/>
     <use xlink:href="#DejaVuSans-30" transform="translate(1312.792969 0)"/>
     <use xlink:href="#DejaVuSans-2c" transform="translate(1376.416016 0)"/>
     <use xlink:href="#DejaVuSans-20" transform="translate(1408.203125 0)"/>
     <use xlink:href="#DejaVuSans-74" transform="translate(1439.990234 0)"/>
     <use xlink:href="#DejaVuSans-72" transform="translate(1479.199219 0)"/>
     <use xlink:href="#DejaVuSans-75" transform="translate(1520.3125 0)"/>
     <use xlink:href="#DejaVuSans-65" transform="translate(1583.691406 0)"/>
     <use xlink:href="#DejaVuSans-20" transform="translate(1645.214844 0)"/>
     <use xlink:href="#DejaVuSans-67" transform="translate(1677.001953 0)"/>
     <use xlink:href="#DejaVuSans-72" transform="translate(1740.478516 0)"/>
     <use xlink:href="#DejaVuSans-61" transform="translate(1781.591797 0)"/>
     <use xlink:href="#DejaVuSans-64" transform="translate(1842.871094 0)"/>
     <use xlink:href="#DejaVuSans-3d" transform="translate(1906.347656 0)"/>
     <use xlink:href="#DejaVuSans-34" transform="translate(1990.136719 0)"/>
     <use xlink:href="#DejaVuSans-2e" transform="translate(2053.759766 0)"/>
     <use xlink:href="#DejaVuSans-30" transform="translate(2085.546875 0)"/>
     <use xlink:href="#DejaVuSans-30" transform="translate(2149.169922 0)"/>
     <use xlink:href="#DejaVuSans-29" transform="translate(2212.792969 0)"/>
    </g>
   </g>
   <g id="legend_1">
    <g id="line2d_132">
     <path d="M 553.73 42.84 
L 569.73 42.84 
L 585.73 42.84 
" style="fill: none; stroke-dasharray: 7.4,3.2; stroke-dashoffset: 0; stroke: #ff0000; stroke-width: 2"/>
    </g>
    <g id="text_13">
     <!-- True Gradient -->
     <g transform="translate(598.53 48.44) scale(0.16 -0.16)">
      <defs>
       <path id="DejaVuSans-54" d="M -19 4666 
L 3928 4666 
L 3928 4134 
L 2272 4134 
L 2272 0 
L 1638 0 
L 1638 4134 
L -19 4134 
L -19 4666 
z
" transform="scale(0.015625)"/>
      </defs>
      <use xlink:href="#DejaVuSans-54"/>
      <use xlink:href="#DejaVuSans-72" transform="translate(46.333984 0)"/>
      <use xlink:href="#DejaVuSans-75" transform="translate(87.447266 0)"/>
      <use xlink:href="#DejaVuSans-65" transform="translate(150.826172 0)"/>
      <use xlink:href="#DejaVuSans-20" transform="translate(212.349609 0)"/>
      <use xlink:href="#DejaVuSans-47" transform="translate(244.136719 0)"/>
      <use xlink:href="#DejaVuSans-72" transform="translate(321.626953 0)"/>
      <use xlink:href="#DejaVuSans-61" transform="translate(362.740234 0)"/>
      <use xlink:href="#DejaVuSans-64" transform="translate(424.019531 0)"/>
      <use xlink:href="#DejaVuSans-69" transform="translate(487.496094 0)"/>
      <use xlink:href="#DejaVuSans-65" transform="translate(515.279297 0)"/>
      <use xlink:href="#DejaVuSans-6e" transform="translate(576.802734 0)"/>
      <use xlink:href="#DejaVuSans-74" transform="translate(640.181641 0)"/>
     </g>
    </g>
   </g>
  </g>
 </g>
 <defs>
  <clipPath id="p81d5944754">
   <rect x="52.03" y="21.8825" width="669.6" height="332.64"/>
  </clipPath>
 </defs>
</svg>
